<?xml version="1.0" standalone="no"?>
<!DOCTYPE svg PUBLIC "-//W3C//DTD SVG 1.1//EN" "http://www.w3.org/Graphics/SVG/1.1/DTD/svg11.dtd" >
<svg>
<metadata>
Created by FontForge 20090622 at Wed Aug 17 19:54:25 2016
 By deploy user
copyright missing
</metadata>
<defs>
<font id="CharlevoixPro-Bold" horiz-adv-x="0" >
  <font-face 
    font-family="Charlevoix Pro"
    font-weight="700"
    font-stretch="normal"
    units-per-em="1000"
    panose-1="0 0 8 0 0 0 0 0 0 0"
    ascent="800"
    descent="-200"
    x-height="527"
    cap-height="713"
    bbox="-860 -326 1832 1041"
    underline-thickness="50"
    underline-position="-50"
    unicode-range="U+0020-U+2260"
  />
<missing-glyph horiz-adv-x="480" 
d="M394 753v-960h-305v960h305zM320 689h-159v-32h63v-36h-64v-31h160v31h-64v36h64v32zM256 565h-96v-100h160v33h-64v67zM224 532v-34h-32v34h32zM320 439h-160v-32h64v-35h-64v-32h96v67h64v32zM320 381h-32v-63h-128v-33h160v96zM320 264h-96v-53h32v22h32v-45h-96v76
h-32v-108h160v108zM320 98h-160v-108h160v108zM288 67v-46h-96v46h96zM320 -32h-160v-32h68l-68 -45v-32h160v32h-98l67 45h31v32z" />
    <glyph glyph-name=".notdef" horiz-adv-x="480" 
d="M394 753v-960h-305v960h305zM320 689h-159v-32h63v-36h-64v-31h160v31h-64v36h64v32zM256 565h-96v-100h160v33h-64v67zM224 532v-34h-32v34h32zM320 439h-160v-32h64v-35h-64v-32h96v67h64v32zM320 381h-32v-63h-128v-33h160v96zM320 264h-96v-53h32v22h32v-45h-96v76
h-32v-108h160v108zM320 98h-160v-108h160v108zM288 67v-46h-96v46h96zM320 -32h-160v-32h68l-68 -45v-32h160v32h-98l67 45h31v32z" />
    <glyph glyph-name=".null" 
 />
    <glyph glyph-name="nonmarkingreturn" horiz-adv-x="333" 
 />
    <glyph glyph-name="space" unicode=" " horiz-adv-x="390" 
 />
    <glyph glyph-name="exclam" unicode="!" horiz-adv-x="320" 
d="M100 753q-10 0 -10 -10l15 -476q0 -10 10 -10h120q10 0 10 10l15 476q0 10 -10 10h-150zM175 -3q-33 0 -56.5 23.5t-23.5 56.5t23.5 56.5t56.5 23.5t56.5 -23.5t23.5 -56.5t-23.5 -56.5t-56.5 -23.5z" />
    <glyph glyph-name="quotedbl" unicode="&#x22;" horiz-adv-x="504" 
d="M70 743q0 10 10 10h130q10 0 10 -10l-10 -244q0 -10 -10 -10h-110q-10 0 -10 10zM284 743q0 10 10 10h130q10 0 10 -10l-10 -244q0 -10 -10 -10h-110q-10 0 -10 10z" />
    <glyph glyph-name="numbersign" unicode="#" horiz-adv-x="903" 
d="M843 435q0 -10 -10 -10h-91q-9 0 -10 -9l-16 -136q-1 -4 2 -7.5t8 -3.5h67q10 0 10 -10v-130q0 -10 -10 -10h-86q-9 0 -10 -9l-11 -101q-1 -9 -10 -9h-151q-5 0 -8 3.5t-2 7.5l11 97q1 4 -2 7.5t-8 3.5h-145q-9 0 -10 -9l-11 -101q-1 -9 -10 -9h-151q-5 0 -8 3.5t-2 7.5
l11 97q1 4 -2 7.5t-8 3.5h-80q-10 0 -10 10v130q0 10 10 10h99q9 0 10 9l16 136q1 4 -2 7.5t-8 3.5h-75q-10 0 -10 10v130q0 10 10 10h93q9 0 10 9l14 120q1 9 10 9h151q5 0 8 -3.5t2 -7.5l-14 -116q-1 -4 2 -7.5t8 -3.5h145q9 0 10 9l14 120q1 9 10 9h151q5 0 8 -3.5
t2 -7.5l-14 -116q-1 -4 2 -7.5t8 -3.5h73q10 0 10 -10v-130zM535 269q9 0 10 9l16 136q1 4 -2 7.5t-8 3.5h-145q-9 0 -10 -9l-16 -136q-1 -4 2 -7.5t8 -3.5h145z" />
    <glyph glyph-name="dollar" unicode="$" horiz-adv-x="658" 
d="M638 208q0 -90 -65.5 -147t-175.5 -63v-88q0 -10 -10 -10h-70q-10 0 -10 10v92q-99 15 -160 73t-77 135q-1 8 10 10l149 25q6 1 11 -10q15 -35 49 -61.5t88 -26.5q41 0 66 16t25 45q0 17 -6.5 29.5t-15 20t-27 14.5t-32.5 10.5l-41.5 10l-44.5 10.5q-51 14 -83 26.5
t-67 35.5t-52 60t-17 89q0 73 64 132t161 68v89q0 10 10 10h70q10 0 10 -10v-91q97 -14 153 -71t69 -124q1 -8 -10 -10l-150 -20q-4 -1 -6 1.5t-4 8.5q-8 31 -36 50t-71 19q-35 0 -62.5 -14.5t-27.5 -47.5q0 -30 28 -44.5t112 -36.5l23 -6q114 -30 168.5 -74.5t54.5 -134.5z
" />
    <glyph glyph-name="percent" unicode="%" horiz-adv-x="1381" 
d="M373 277q-106 0 -173 71t-67 169t67 168.5t173 70.5t172.5 -70.5t66.5 -168.5t-66.5 -169t-172.5 -71zM621 -40q8 0 11 7l365 774q5 12 -7 12h-152q-8 0 -11 -7l-365 -774q-5 -12 7 -12h152zM373 606q-29 0 -49.5 -22.5t-20.5 -66.5t20.5 -67t49.5 -23t49 23t20 67
t-20 66.5t-49 22.5zM1102 -3q-106 0 -173 71t-67 169t67 168.5t173 70.5t172.5 -70.5t66.5 -168.5t-66.5 -169t-172.5 -71zM1102 326q-29 0 -49.5 -22.5t-20.5 -66.5t20.5 -67t49.5 -23t49 23t20 67t-20 66.5t-49 22.5z" />
    <glyph glyph-name="ampersand" unicode="&#x26;" horiz-adv-x="822" 
d="M744 331q12 -2 6 -12q-35 -68 -72 -123l62 -51q6 -6 5 -13l-17 -128q-2 -13 -13 -6l-127 92q-102 -93 -224 -93q-109 0 -186.5 52.5t-77.5 155.5q0 120 118 178q-64 65 -64 143q0 75 62 132.5t171 57.5q112 0 169 -54.5t57 -127.5q0 -67 -40.5 -106t-104.5 -66l86 -67
q19 30 28 48q4 7 12 6zM385 566q-25 0 -43 -16t-18 -42q0 -35 43 -71q76 34 76 78q0 24 -15.5 37.5t-42.5 13.5zM369 147q45 0 92 39l-100 77l-45 35q-46 -29 -46 -76q0 -34 29 -54.5t70 -20.5z" />
    <glyph glyph-name="quotesingle" unicode="'" horiz-adv-x="290" 
d="M70 743q0 10 10 10h130q10 0 10 -10l-10 -244q0 -10 -10 -10h-110q-10 0 -10 10z" />
    <glyph glyph-name="parenleft" unicode="(" horiz-adv-x="408" 
d="M356 -177q9 -12 -6 -12h-98q-7 0 -13 3q-59 38 -114 169t-55 296q0 164 55 298.5t114 172.5q6 3 13 3h98q15 0 6 -12q-44 -61 -80 -185.5t-36 -276.5t35.5 -272.5t80.5 -183.5z" />
    <glyph glyph-name="parenright" unicode=")" horiz-adv-x="408" 
d="M72 -177q45 63 80.5 183.5t35.5 272.5t-36 276.5t-80 185.5q-9 12 6 12h98q7 0 13 -3q59 -38 114 -172.5t55 -298.5q0 -165 -55 -296t-114 -169q-6 -3 -13 -3h-98q-15 0 -6 12z" />
    <glyph glyph-name="asterisk" unicode="*" horiz-adv-x="553" 
d="M363 362q-8 -7 -13 3l-56 93q-7 11 -14 0l-57 -93q-5 -10 -13 -3l-81 59q-7 6 -1 14l72 81q8 10 -4 13l-108 27q-10 3 -7 12l31 94q3 11 13 6l102 -45q5 -2 8.5 0.5t2.5 7.5l-10 112q-2 10 9 10h100q11 0 9 -10l-10 -112q-1 -5 2.5 -7.5t8.5 -0.5l101 45q10 5 13 -6
l31 -94q3 -9 -7 -12l-108 -27q-12 -3 -4 -13l73 -81q6 -8 -2 -14z" />
    <glyph glyph-name="plus" unicode="+" horiz-adv-x="673" 
d="M583 425q10 0 10 -10v-130q0 -10 -10 -10h-126q-10 0 -10 -10v-136q0 -10 -10 -10h-150q-10 0 -10 10v136q0 10 -10 10h-127q-10 0 -10 10v130q0 10 10 10h127q10 0 10 10v137q0 10 10 10h150q10 0 10 -10v-137q0 -10 10 -10h126z" />
    <glyph glyph-name="comma" unicode="," horiz-adv-x="348" 
d="M129 145q2 9 11 9h129q11 0 8 -11l-86 -246q-3 -8 -12 -8h-100q-12 0 -8 11z" />
    <glyph glyph-name="hyphen" unicode="-" horiz-adv-x="640" 
d="M570 255q0 -10 -10 -10h-430q-10 0 -10 10v130q0 10 10 10h430q10 0 10 -10v-130z" />
    <glyph glyph-name="period" unicode="." horiz-adv-x="350" 
d="M150 -3q-33 0 -56.5 23.5t-23.5 56.5t23.5 56.5t56.5 23.5t56.5 -23.5t23.5 -56.5t-23.5 -56.5t-56.5 -23.5z" />
    <glyph glyph-name="slash" unicode="/" horiz-adv-x="592" 
d="M205 -40q8 0 11 7l365 774q5 12 -7 12h-167q-8 0 -11 -7l-365 -774q-5 -12 7 -12h167z" />
    <glyph glyph-name="zero" unicode="0" horiz-adv-x="799" 
d="M410 716q-99 0 -173.5 -51.5t-110.5 -132t-36 -175.5t36 -175.5t110.5 -132.5t173.5 -52q153 0 236 105t83 255t-83 254.5t-236 104.5zM410 566q76 0 112.5 -56t36.5 -153t-36.5 -153.5t-112.5 -56.5q-70 0 -110 58t-40 152t39.5 151.5t110.5 57.5z" />
    <glyph glyph-name="one" unicode="1" horiz-adv-x="511" 
d="M355 160q0 -10 10 -10h76q10 0 10 -10v-130q0 -10 -10 -10h-341q-10 0 -10 10v130q0 10 10 10h75q10 0 10 10v392q0 10 -10 10h-75q-12 0 -10 10l20 130q2 10 10 10l225 1q10 0 10 -10v-543z" />
    <glyph glyph-name="two" unicode="2" horiz-adv-x="670" 
d="M590 11q-2 -10 -10 -10h-480q-10 0 -10 11q0 78 19.5 139.5t50 99t68 66t75 48t68 37.5t50 41.5t19.5 53.5q0 31 -22.5 50t-54.5 19q-34 0 -64.5 -23t-37.5 -75q-2 -12 -11 -10l-149 18q-11 2 -9 12q21 110 93 169t173 59q123 0 187.5 -66t64.5 -163q0 -51 -23 -93.5
t-58 -68.5t-75.5 -49.5t-75.5 -39t-58 -35t-23 -39.5q0 -11 10 -11h293q12 0 10 -10z" />
    <glyph glyph-name="three" unicode="3" horiz-adv-x="616" 
d="M444 364l-7 -2l7 -2q55 -12 88.5 -57t33.5 -107q0 -80 -62.5 -139.5t-166.5 -59.5q-98 0 -168 55.5t-89 143.5q-1 9 9 11l140 18q9 2 11 -8q4 -14 9 -24t14 -21.5t24.5 -18t35.5 -6.5q34 0 53.5 17t19.5 47q0 26 -21.5 51t-55.5 25h-55q-11 0 -11 10v130q0 10 11 10h55
q34 0 50.5 20t16.5 47q0 29 -17.5 45.5t-50.5 16.5q-67 0 -88 -71q-2 -10 -11 -8l-140 18q-10 2 -9 11q19 87 91.5 143.5t170.5 56.5q103 0 163.5 -59.5t60.5 -139.5q0 -60 -31 -100.5t-81 -52.5z" />
    <glyph glyph-name="four" unicode="4" horiz-adv-x="786" 
d="M591 301q0 -10 10 -10h95q12 0 10 -10l-20 -130q-2 -10 -10 -10h-75q-10 0 -10 -10v-121q0 -10 -10 -10h-150q-10 0 -10 10v121q0 10 -10 10h-301q-10 0 -10 10v133q0 8 4 13l312 410q4 6 13 6h152q10 0 10 -10v-402zM411 291q10 0 10 10v128q0 7 -3.5 8.5t-8.5 -4.5
l-99 -130q-4 -5 -2 -8.5t8 -3.5h95z" />
    <glyph glyph-name="five" unicode="5" horiz-adv-x="662" 
d="M512 573q-2 -10 -10 -10h-223q-11 0 -11 -10l-7 -102q-1 -5 0 -6.5t3 -0.5t6 4q19 16 51 26.5t62 10.5q105 0 162 -68.5t57 -168.5q0 -111 -70 -181t-191 -70q-96 0 -172.5 56t-88.5 145q-1 9 9 11l152 18q8 1 12 -7q32 -53 92 -53q37 0 62 23t25 61q0 37 -24.5 60.5
t-61.5 23.5q-62 0 -94 -50q-4 -6 -13 -6l-141 9q-11 0 -9 11l30 404q1 10 11 10h392q12 0 10 -10z" />
    <glyph glyph-name="six" unicode="6" horiz-adv-x="700" 
d="M371 -3q-123 0 -202 81.5t-79 219.5v19q0 86 16.5 156.5t50 126t91 86t133.5 30.5q95 0 201 -58q8 -4 6 -12l-17 -117q-2 -13 -13 -6q-86 43 -167 43q-68 0 -109.5 -46.5t-41.5 -109.5q0 -15 7 -3q15 32 52.5 55t91.5 23q114 0 181.5 -73.5t67.5 -170.5
q0 -107 -75 -175.5t-194 -68.5zM366 335q-45 0 -75.5 -26.5t-30.5 -67.5q0 -43 30 -68.5t76 -25.5t75 25.5t29 68.5q0 41 -29.5 67.5t-74.5 26.5z" />
    <glyph glyph-name="seven" unicode="7" horiz-adv-x="712" 
d="M632 713q10 0 10 -10v-93q0 -6 -6 -12q-77 -67 -129 -142t-86.5 -189.5t-35.5 -256.5q0 -10 -10 -10h-150q-10 0 -10 10q2 141 50 294.5t129 246.5q4 5 2 8.5t-8 3.5h-298q-10 0 -10 10v130q0 10 10 10h542z" />
    <glyph glyph-name="eight" unicode="8" horiz-adv-x="732" 
d="M376 -3q-53 0 -103 11t-94.5 34t-71.5 63t-27 93q0 123 141 177q-54 21 -80 63.5t-26 84.5q0 59 37.5 104t96.5 67t127 22q111 0 186 -51.5t75 -141.5q0 -41 -26 -84t-75 -64q136 -58 136 -177q0 -53 -26 -93t-69.5 -63t-94 -34t-106.5 -11zM285 503q0 -60 91 -60t91 60
q0 26 -24 44.5t-67 18.5t-67 -18.5t-24 -44.5zM250 220q0 -73 126 -73t126 73q0 32 -33.5 52.5t-92.5 20.5t-92.5 -20.5t-33.5 -52.5z" />
    <glyph glyph-name="nine" unicode="9" horiz-adv-x="700" 
d="M359 716q123 0 202 -81.5t79 -219.5v-19q0 -86 -16.5 -156.5t-50 -126t-91 -86t-133.5 -30.5q-95 0 -201 58q-8 5 -6 12l17 117q2 13 13 6q86 -43 167 -43q68 0 109.5 46.5t41.5 109.5q0 15 -7 3q-15 -32 -52.5 -55t-91.5 -23q-114 0 -181.5 73.5t-67.5 170.5
q0 107 75 175.5t194 68.5zM364 378q45 0 75.5 26.5t30.5 67.5q0 43 -30 68.5t-76 25.5t-75 -25.5t-29 -68.5q0 -41 29.5 -67.5t74.5 -26.5z" />
    <glyph glyph-name="colon" unicode=":" horiz-adv-x="300" 
d="M150 320q33 0 56.5 23.5t23.5 56.5t-23.5 56.5t-56.5 23.5t-56.5 -23.5t-23.5 -56.5t23.5 -56.5t56.5 -23.5zM150 7q-33 0 -56.5 23.5t-23.5 56.5t23.5 56.5t56.5 23.5t56.5 -23.5t23.5 -56.5t-23.5 -56.5t-56.5 -23.5z" />
    <glyph glyph-name="semicolon" unicode=";" horiz-adv-x="358" 
d="M218 323q-33 0 -56.5 23.5t-23.5 56.5t23.5 56.5t56.5 23.5t56.5 -23.5t23.5 -56.5t-23.5 -56.5t-56.5 -23.5zM129 145q2 9 11 9h129q11 0 8 -11l-86 -246q-3 -8 -12 -8h-100q-12 0 -8 11z" />
    <glyph glyph-name="less" unicode="&#x3c;" horiz-adv-x="525" 
d="M75 405l383 230q7 3 7 -6v-134q0 -7 -5 -10l-221 -135q-8 -5 0 -10l221 -135q5 -3 5 -10v-134q0 -9 -7 -6l-383 231q-5 2 -5 10v99q0 7 5 10z" />
    <glyph glyph-name="equal" unicode="=" horiz-adv-x="710" 
d="M610 411q0 -10 -10 -10h-430q-10 0 -10 10v130q0 10 10 10h430q10 0 10 -10v-130zM610 161q0 -10 -10 -10h-430q-10 0 -10 10v130q0 10 10 10h430q10 0 10 -10v-130z" />
    <glyph glyph-name="greater" unicode="&#x3e;" horiz-adv-x="545" 
d="M490 405q5 -3 5 -10v-99q0 -8 -5 -10l-383 -231q-7 -3 -7 6v134q0 7 5 10l221 135q8 5 0 10l-221 135q-5 3 -5 10v134q0 9 7 6z" />
    <glyph glyph-name="question" unicode="?" horiz-adv-x="621" 
d="M237 257q-10 0 -10 10q-4 53 11.5 94t40.5 65.5t50 44t43.5 39t18.5 40.5q0 56 -61 56q-28 0 -49.5 -19t-28.5 -49q-2 -9 -13 -7l-150 18q-10 2 -8 11q21 86 89.5 141t164.5 55q103 0 164.5 -51.5t61.5 -144.5q0 -44 -20.5 -78t-48.5 -55l-56 -42t-45.5 -50t-13.5 -68
q2 -10 -10 -10h-130zM301 -3q-33 0 -56.5 23.5t-23.5 56.5t23.5 56.5t56.5 23.5t56.5 -23.5t23.5 -56.5t-23.5 -56.5t-56.5 -23.5z" />
    <glyph glyph-name="at" unicode="@" horiz-adv-x="1052" 
d="M491 -120q100 0 176.5 32t112.5 72q4 6 12 6h88q14 0 7 -12q-14 -24 -44.5 -53t-78.5 -61t-120.5 -53t-152.5 -21q-115 0 -204 37t-141.5 100t-79 141.5t-26.5 168.5q0 75 21.5 148.5t65 140.5t104.5 118t146.5 81.5t183.5 30.5q179 0 288.5 -116t109.5 -284
q0 -80 -21.5 -144.5t-54 -103t-73.5 -64.5t-75.5 -36t-64.5 -10q-87 0 -122 57q-5 10 -13 2q-60 -60 -138 -60q-53 0 -91 28t-53 71t-19.5 95.5t8.5 102.5q22 102 91.5 169t164.5 67q57 0 89 -35q10 -10 13 4l4 19q2 9 11 9h140q11 0 9 -11l-74 -353q-6 -37 1 -54t35 -17
q42 0 87.5 78t45.5 196q0 129 -77.5 214.5t-220.5 85.5q-98 0 -180 -37t-133.5 -97.5t-79.5 -135t-28 -151.5q0 -175 96 -270t255 -95zM406 264q-4 -28 -3 -55t16.5 -47t42.5 -20q25 0 49 19t32 58l17 85q7 36 -5.5 58.5t-43.5 22.5q-42 0 -68 -33.5t-37 -87.5z" />
    <glyph glyph-name="A" unicode="A" horiz-adv-x="879" 
d="M399 706q3 7 12 7h68q9 0 12 -7l327 -694q5 -12 -7 -12h-167q-9 0 -12 7l-45 95q-3 7 -11 7h-263q-9 0 -12 -7l-45 -95q-3 -7 -11 -7h-167q-12 0 -7 12zM372 271q-5 -12 7 -12h131q12 0 7 12l-65 149q-2 5 -7 5t-7 -5z" />
    <glyph glyph-name="B" unicode="B" horiz-adv-x="709" 
d="M110 0q-10 0 -10 10v693q0 10 10 10h277q107 0 164.5 -53.5t57.5 -152.5q0 -43 -17 -77t-42 -51q-8 -6 1 -11q38 -19 63 -62t25 -100q0 -99 -57.5 -152.5t-164.5 -53.5h-307zM280 432h107q33 0 52.5 19t19.5 46t-19.5 46.5t-52.5 19.5h-107q-10 0 -10 -10v-111
q0 -10 10 -10zM280 150h137q32 0 52 19.5t20 46.5t-19.5 46.5t-52.5 19.5h-137q-10 0 -10 -10v-112q0 -10 10 -10z" />
    <glyph glyph-name="C" unicode="C" horiz-adv-x="787" 
d="M612 204q8 8 14 0l88 -96q8 -8 0 -14q-49 -45 -105 -71t-139 -26q-154 0 -262 106t-108 255q0 148 108 253t262 105q136 0 244 -96q8 -6 0 -14l-88 -96q-6 -8 -14 0q-47 56 -142 56q-74 0 -137 -55t-63 -153q0 -99 63 -155t137 -56q46 0 83.5 16t58.5 41z" />
    <glyph glyph-name="D" unicode="D" horiz-adv-x="796" 
d="M736 356q0 -151 -108 -253.5t-263 -102.5h-255q-10 0 -10 10v693q0 10 10 10h255q156 0 263.5 -102.5t107.5 -254.5zM566 356q0 92 -59 149.5t-132 57.5h-95q-10 0 -10 -10v-394q0 -10 10 -10h95q73 0 132 57.5t59 149.5z" />
    <glyph glyph-name="E" unicode="E" horiz-adv-x="619" 
d="M539 150q10 0 10 -10v-130q0 -10 -10 -10h-439q-10 0 -10 10v693q0 10 10 10h429q10 0 10 -10v-130q0 -10 -10 -10h-259q-10 0 -10 -10v-117q0 -10 10 -10h187q10 0 10 -10v-130q0 -10 -10 -10h-187q-10 0 -10 -10v-106q0 -10 10 -10h269z" />
    <glyph glyph-name="F" unicode="F" horiz-adv-x="629" 
d="M280 253q-10 0 -10 -10v-233q0 -10 -10 -10h-150q-10 0 -10 10v693q0 10 10 10h439q10 0 10 -10v-130q0 -10 -10 -10h-269q-10 0 -10 -10v-140q0 -10 10 -10h167q10 0 10 -10v-130q0 -10 -10 -10h-167z" />
    <glyph glyph-name="G" unicode="G" horiz-adv-x="859" 
d="M789 419q10 0 10 -10v-52q0 -154 -93.5 -257t-246.5 -103q-149 0 -254 105.5t-105 254.5t105.5 254t254.5 105q153 0 257 -98q7 -7 0 -14l-96 -96q-7 -7 -14 0q-64 58 -147 58q-85 0 -137.5 -60.5t-52.5 -148.5q0 -89 54 -149.5t145 -60.5q76 0 118 40t42 82q0 10 -9 10
h-138q-10 0 -10 10v120q0 10 10 10h307z" />
    <glyph glyph-name="H" unicode="H" horiz-adv-x="816" 
d="M566 703q0 10 10 10h150q10 0 10 -10v-693q0 -10 -10 -10h-150q-10 0 -10 10v243q0 10 -10 10h-276q-10 0 -10 -10v-243q0 -10 -10 -10h-150q-10 0 -10 10v693q0 10 10 10h150q10 0 10 -10v-280q0 -10 10 -10h276q10 0 10 10v280z" />
    <glyph glyph-name="I" unicode="I" horiz-adv-x="474" 
d="M404 573q0 -10 -10 -10h-52q-10 0 -10 -10v-393q0 -10 10 -10h52q10 0 10 -10v-130q0 -10 -10 -10h-294q-10 0 -10 10v130q0 10 10 10h52q10 0 10 10v393q0 10 -10 10h-52q-10 0 -10 10v130q0 10 10 10h294q10 0 10 -10v-130z" />
    <glyph glyph-name="J" unicode="J" horiz-adv-x="663" 
d="M433 703q0 10 10 10h150q10 0 10 -10v-396q0 -35 -1 -57t-6 -58t-14 -59.5t-28 -52t-45.5 -44.5t-68 -27.5t-93.5 -11.5q-62 0 -109.5 18.5t-74 45t-43.5 63t-22.5 64.5t-7.5 59q0 8 10 10l150 20q4 1 7 -2t3 -8q1 -25 4 -41.5t11.5 -37t26.5 -31t45 -10.5q19 0 32.5 4.5
t23 9t15.5 18.5l9 21.5t4.5 31t1.5 34v41.5v396z" />
    <glyph glyph-name="K" unicode="K" horiz-adv-x="813" 
d="M546 0q-9 0 -13 6l-172 236q-6 10 -14 0l-72 -86q-5 -7 -5 -12v-134q0 -10 -10 -10h-150q-10 0 -10 10v693q0 10 10 10h150q10 0 10 -10v-288q0 -7 4 -8.5t8 3.5l241 297q5 6 12 6h199q6 0 8 -3.5t-2 -8.5l-278 -319q-6 -6 0 -14l279 -356q4 -4 2 -8t-8 -4h-189z" />
    <glyph glyph-name="L" unicode="L" horiz-adv-x="586" 
d="M506 150q10 0 10 -10v-130q0 -10 -10 -10h-406q-10 0 -10 10v693q0 10 10 10h150q10 0 10 -10v-543q0 -10 10 -10h236z" />
    <glyph glyph-name="M" unicode="M" horiz-adv-x="909" 
d="M734 707q4 6 13 6h82q10 0 10 -10v-693q0 -10 -10 -10h-150q-10 0 -10 10v295q0 7 -4 8.5t-8 -3.5l-181 -264q-7 -11 -14 0l-180 263q-4 5 -8 4t-4 -8v-295q0 -10 -10 -10h-150q-10 0 -10 10v693q0 10 10 10h82q9 0 13 -6l257 -395q7 -10 14 0z" />
    <glyph glyph-name="N" unicode="N" horiz-adv-x="754" 
d="M684 10q0 -10 -10 -10h-96q-8 0 -12 6l-284 361q-4 6 -8 4t-4 -9v-352q0 -10 -10 -10h-150q-10 0 -10 10v693q0 10 10 10h96q8 0 12 -6l284 -361q4 -6 8 -4t4 9v352q0 10 10 10h150q10 0 10 -10v-693z" />
    <glyph glyph-name="O" unicode="O" horiz-adv-x="889" 
d="M460 716q154 0 256.5 -102t102.5 -257t-102.5 -257.5t-256.5 -102.5t-257 102.5t-103 257.5q0 154 102.5 256.5t257.5 102.5zM460 566q-78 0 -134 -54.5t-56 -154.5t56 -155t134 -55t133.5 54.5t55.5 155.5q0 100 -55.5 154.5t-133.5 54.5z" />
    <glyph glyph-name="P" unicode="P" horiz-adv-x="746" 
d="M100 0q-10 0 -10 10v693q0 10 10 10h285q123 0 207 -74t84 -192t-84 -192t-207 -74h-115q-10 0 -10 -10v-161q0 -10 -10 -10h-150zM270 331h105q131 0 131 116t-131 116h-105q-10 0 -10 -10v-212q0 -10 10 -10z" />
    <glyph glyph-name="Q" unicode="Q" horiz-adv-x="905" 
d="M832 83q7 -6 2 -14l-89 -96q-10 -6 -14 0l-80 75q-85 -51 -191 -51q-154 0 -257 102.5t-103 257.5q0 154 102.5 256.5t257.5 102.5q154 0 256.5 -102t102.5 -257q0 -114 -60 -206zM460 147q38 0 71 13l-75 70q-7 6 -1 14l88 96q10 6 14 0l77 -72q15 38 15 89
q0 100 -55.5 154.5t-133.5 54.5t-134 -54.5t-56 -154.5t56 -155t134 -55z" />
    <glyph glyph-name="R" unicode="R" horiz-adv-x="734" 
d="M100 0q-10 0 -10 10v693q0 10 10 10h305q108 0 183.5 -71.5t75.5 -179.5q0 -139 -122 -214q-8 -5 -3 -14l119 -222q3 -5 0.5 -8.5t-7.5 -3.5h-162q-9 0 -12 7l-101 197q-3 7 -12 7h-94q-10 0 -10 -10v-191q0 -10 -10 -10h-150zM270 361h115q46 0 77.5 28.5t31.5 72.5
q0 45 -32 73t-77 28h-115q-10 0 -10 -10v-182q0 -10 10 -10z" />
    <glyph glyph-name="S" unicode="S" horiz-adv-x="718" 
d="M391 -3q-126 0 -204 62t-97 151q-1 8 10 10l149 25q6 1 11 -10q15 -35 49 -61.5t88 -26.5q41 0 66 16t25 45q0 17 -6.5 29.5t-15 20t-27 14.5t-32.5 10.5l-41.5 10l-44.5 10.5q-51 14 -83 26.5t-67 35.5t-52 60t-17 89q0 80 74 141t183 61q124 0 194.5 -61t85.5 -138
q1 -8 -10 -10l-150 -20q-4 -1 -6 1.5t-4 8.5q-8 31 -36 50t-71 19q-35 0 -62.5 -14.5t-27.5 -47.5q0 -30 28 -44.5t112 -36.5l23 -6q114 -30 168.5 -74.5t54.5 -134.5q0 -95 -73 -153t-194 -58z" />
    <glyph glyph-name="T" unicode="T" horiz-adv-x="653" 
d="M583 713q10 0 10 -10v-130q0 -10 -10 -10h-151q-10 0 -10 -10v-543q0 -10 -10 -10h-150q-10 0 -10 10v543q0 10 -10 10h-152q-10 0 -10 10v130q0 10 10 10h493z" />
    <glyph glyph-name="U" unicode="U" horiz-adv-x="803" 
d="M563 703q0 10 10 10h150q10 0 10 -10v-396q0 -43 -8.5 -84t-30.5 -83t-56 -73t-91 -50.5t-130 -19.5t-130 19.5t-91.5 50.5t-56.5 73t-30.5 83t-8.5 84v396q0 10 10 10h150q10 0 10 -10v-396q0 -81 38.5 -120.5t108.5 -39.5q142 0 146 160v396z" />
    <glyph glyph-name="V" unicode="V" horiz-adv-x="880" 
d="M491 7q-3 -7 -11 -7h-70q-9 0 -12 8l-317 693q-5 12 8 12h166q7 0 11 -8l172 -404q2 -6 7 -6t7 6l172 404q4 8 11 8h166q13 0 8 -12z" />
    <glyph glyph-name="W" unicode="W" horiz-adv-x="1104" 
d="M389 7l158 381q6 15 10 15t10 -15l157 -381q3 -7 12 -7h76q9 0 12 8l219 694q3 11 -8 11h-150q-10 0 -12 -8l-100 -395q-8 -32 -20 0l-146 395q-3 8 -11 8h-79q-8 0 -11 -8l-146 -395q-12 -32 -20 0l-99 395v3t-0.5 3t-3.5 1.5t-8 0.5h-150q-11 0 -8 -11l218 -694
q3 -8 12 -8h76q9 0 12 7z" />
    <glyph glyph-name="X" unicode="X" horiz-adv-x="915" 
d="M847 713q15 0 6 -12l-271 -338q-7 -7 0 -14l271 -337q9 -12 -6 -12h-194q-9 0 -13 6l-166 216q-7 10 -14 0l-165 -216q-4 -6 -13 -6h-194q-15 0 -6 12l270 337q7 7 0 14l-269 338q-9 12 6 12h193q9 0 13 -6l165 -216q7 -10 14 0l166 216q4 6 13 6h194z" />
    <glyph glyph-name="Y" unicode="Y" horiz-adv-x="850" 
d="M792 713q6 0 8 -3.5t-2 -8.5l-279 -386q-4 -5 -4 -13v-292q0 -10 -10 -10h-150q-10 0 -10 10v292q0 8 -4 13l-279 386q-4 5 -2 8.5t8 3.5h186q8 0 12 -6l157 -225q7 -10 14 0l157 225q4 6 12 6h186z" />
    <glyph glyph-name="Z" unicode="Z" horiz-adv-x="792" 
d="M702 713q10 0 10 -10v-78q0 -7 -4 -12l-349 -450q-4 -5 -2 -9t8 -4h337q10 0 10 -10v-130q0 -10 -10 -10h-592q-10 0 -10 10v78q0 8 4 13l348 449q4 4 2 8.5t-8 4.5h-336q-10 0 -10 10v130q0 10 10 10h592z" />
    <glyph glyph-name="bracketleft" unicode="[" horiz-adv-x="387" 
d="M337 633q0 -10 -10 -10h-77q-10 0 -10 -10v-660q0 -10 10 -10h77q10 0 10 -10v-130q0 -10 -10 -10h-247q-10 0 -10 10v961q0 10 10 10l247 -1q10 0 10 -10v-130z" />
    <glyph glyph-name="backslash" unicode="\" horiz-adv-x="612" 
d="M412 -40q-8 0 -11 7l-365 774q-5 12 7 12h167q8 0 11 -7l365 -774q5 -12 -7 -12h-167z" />
    <glyph glyph-name="bracketright" unicode="]" horiz-adv-x="387" 
d="M70 633v130q0 10 10 10l247 1q10 0 10 -10v-961q0 -10 -10 -10h-247q-10 0 -10 10v130q0 10 10 10h77q10 0 10 10v660q0 10 -10 10h-77q-10 0 -10 10z" />
    <glyph glyph-name="asciicircum" unicode="^" horiz-adv-x="762" 
d="M331 708q3 5 10 5h99q8 0 10 -5l231 -383q3 -7 -6 -7h-134q-7 0 -10 5l-135 221q-5 8 -10 0l-135 -221q-3 -5 -10 -5h-134q-9 0 -6 7z" />
    <glyph glyph-name="underscore" unicode="_" horiz-adv-x="940" 
d="M880 -153q0 -10 -10 -10h-780q-10 0 -10 10v100q0 10 10 10h780q10 0 10 -10v-100z" />
    <glyph glyph-name="a" unicode="a" horiz-adv-x="564" 
d="M307 530q55 0 95 -15.5t61 -38t33 -57.5t15 -63t3 -67v-281q0 -8 -8 -8h-144q-8 0 -8 8v41q0 5 -3 6.5t-6 -2.5q-52 -56 -130 -56q-70 0 -112.5 39.5t-42.5 105.5q0 65 42.5 108t103.5 60.5t140 20.5q8 0 8 9q0 65 -84 65q-29 0 -71 -9t-68 -22q-8 -5 -10 4l-17 89
q-1 5 4 10q38 24 93 38.5t106 14.5zM282 112q41 0 67 26q5 5 5 10v75q0 8 -8 8q-57 0 -86.5 -23t-29.5 -51q0 -18 13.5 -31.5t38.5 -13.5z" />
    <glyph glyph-name="b" unicode="b" horiz-adv-x="644" 
d="M369 530q106 0 165.5 -79t59.5 -187t-59.5 -187.5t-165.5 -79.5q-75 0 -129 61q-2 3 -4.5 3.5t-4 -1.5t-1.5 -5v-47q0 -8 -8 -8h-144q-8 0 -8 8v737q0 8 8 8h144q8 0 8 -8v-273q0 -5 2.5 -7t5.5 2q54 63 131 63zM325 122q40 0 66 24.5t34.5 54.5t8.5 63t-8.5 62.5
t-34.5 54t-66 24.5q-56 0 -92 -49q-3 -4 -3 -9v-167q0 -3 2 -9q36 -49 93 -49z" />
    <glyph glyph-name="c" unicode="c" horiz-adv-x="584" 
d="M541 113q5 -5 1 -11q-32 -46 -86 -75.5t-120 -29.5q-117 0 -196.5 77.5t-79.5 189.5q0 111 79.5 188.5t196.5 77.5q67 0 120.5 -29t85.5 -76q4 -6 -1 -11l-80 -73q-8 -6 -11 1q-32 63 -104 63q-53 0 -89.5 -40t-36.5 -101t37 -101.5t89 -40.5q69 0 104 62q4 6 11 1z" />
    <glyph glyph-name="d" unicode="d" horiz-adv-x="634" 
d="M576 753q8 0 8 -8v-737q0 -8 -8 -8h-144q-8 0 -8 8v47q0 3 -1.5 5t-4 1.5t-4.5 -3.5q-54 -61 -129 -61q-106 0 -165.5 79.5t-59.5 187.5t59.5 187t165.5 79q75 0 129 -61q2 -3 4.5 -3.5t4 1.5t1.5 5v273q0 8 8 8h144zM329 122q56 0 92 49q3 5 3 9v167q0 5 -3 9
q-36 49 -92 49q-40 0 -66 -24.5t-34.5 -54t-8.5 -62.5t8.5 -63t34.5 -54.5t66 -24.5z" />
    <glyph glyph-name="e" unicode="e" horiz-adv-x="612" 
d="M572 267v-44q0 -8 -8 -8h-328q-7 0 -7 -8q0 -36 27 -60.5t61 -24.5q63 0 93 43q3 7 10 5l134 -18q9 -2 6 -9q-22 -63 -82 -104.5t-152 -41.5q-127 0 -196.5 75.5t-69.5 191.5q0 113 71 189.5t186 76.5q63 0 113 -22t80.5 -59.5t46 -84t15.5 -97.5zM317 415
q-39 0 -62.5 -26.5t-24.5 -59.5q0 -9 6 -9h158q8 0 8 7q0 36 -22 62t-63 26z" />
    <glyph glyph-name="f" unicode="f" horiz-adv-x="485" 
d="M356 631q-62 0 -62 -85v-11q0 -8 8 -8h110q8 0 8 -8v-109q0 -8 -8 -8h-110q-8 0 -8 -8v-386q0 -8 -8 -8h-144q-8 0 -8 8v386q0 8 -8 8h-58q-8 0 -8 8v109q0 8 8 8h58q8 0 8 8v11q0 101 38 155.5t133 54.5q83 0 126 -43q4 -4 3 -10l-17 -87q-2 -11 -10 -3q-20 18 -51 18z
" />
    <glyph glyph-name="g" unicode="g" horiz-adv-x="634" 
d="M576 527q8 0 8 -8v-491q0 -102 -72.5 -170t-178.5 -68q-129 0 -224 54q-7 3 -5 10l17 89q2 10 10 5q78 -33 161 -33q132 0 132 113v27q0 3 -1.5 5t-4 1.5t-4.5 -3.5q-54 -61 -129 -61q-106 0 -165.5 79.5t-59.5 187.5t59.5 187t165.5 79q75 0 129 -61q2 -3 4.5 -3.5
t4 1.5t1.5 5v47q0 8 8 8h144zM329 122q56 0 92 49q3 5 3 9v167q0 5 -3 9q-36 49 -92 49q-40 0 -66 -24.5t-34.5 -54t-8.5 -62.5t8.5 -63t34.5 -54.5t66 -24.5z" />
    <glyph glyph-name="h" unicode="h" horiz-adv-x="652" 
d="M78 0q-8 0 -8 8v737q0 8 8 8h144q8 0 8 -8v-287q0 -3 1.5 -5t3.5 -1.5t4 3.5q62 75 152 75q102 0 156.5 -65.5t54.5 -172.5v-284q0 -8 -8 -8h-144q-8 0 -8 8v284q0 56 -27 84.5t-75 28.5q-44 0 -77 -30t-33 -73v-294q0 -8 -8 -8h-144z" />
    <glyph glyph-name="i" unicode="i" horiz-adv-x="280" 
d="M150 593q-33 0 -56.5 23.5t-23.5 56.5t23.5 56.5t56.5 23.5t56.5 -23.5t23.5 -56.5t-23.5 -56.5t-56.5 -23.5zM70 519q0 8 8 8h144q8 0 8 -8v-511q0 -8 -8 -8h-144q-8 0 -8 8v511z" />
    <glyph glyph-name="j" unicode="j" horiz-adv-x="281" 
d="M151 593q-33 0 -56.5 23.5t-23.5 56.5t23.5 56.5t56.5 23.5t56.5 -23.5t23.5 -56.5t-23.5 -56.5t-56.5 -23.5zM231 519v-499q0 -230 -171 -230q-83 0 -126 43q-4 4 -3 10l17 87q2 11 10 3q20 -18 51 -18q62 0 62 105v499q0 8 8 8h144q8 0 8 -8z" />
    <glyph glyph-name="k" unicode="k" horiz-adv-x="674" 
d="M463 0q-7 0 -10 5l-155 214q-5 6 -11 1l-53 -47q-4 -4 -4 -10v-155q0 -8 -8 -8h-144q-8 0 -8 8v737q0 8 8 8h144q8 0 8 -8v-388q0 -5 3 -7t7 2l186 171q4 4 10 4h179q5 0 6.5 -3t-2.5 -7l-212 -199q-5 -5 -1 -11l215 -297q8 -10 -4 -10h-154z" />
    <glyph glyph-name="l" unicode="l" horiz-adv-x="280" 
d="M70 745q0 8 8 8h144q8 0 8 -8v-737q0 -8 -8 -8h-144q-8 0 -8 8v737z" />
    <glyph glyph-name="m" unicode="m" horiz-adv-x="984" 
d="M733 530q100 0 148.5 -64t52.5 -174v-284q0 -8 -8 -8h-144q-8 0 -8 8v284q0 113 -92 113q-46 0 -73 -34.5t-27 -82.5v-280q0 -8 -8 -8h-144q-8 0 -8 8v284q0 113 -92 113q-46 0 -73 -34.5t-27 -82.5v-280q0 -8 -8 -8h-144q-8 0 -8 8v511q0 8 8 8h144q8 0 8 -8v-58
q0 -5 3 -6.5t6 2.5q55 73 142 73q123 0 172 -102q5 -10 9 -3q23 44 69 74.5t102 30.5z" />
    <glyph glyph-name="n" unicode="n" horiz-adv-x="652" 
d="M78 0q-8 0 -8 8v511q0 8 8 8h144q8 0 8 -8v-61q0 -3 1.5 -5t3.5 -1.5t4 3.5q62 75 152 75q102 0 156.5 -65.5t54.5 -172.5v-284q0 -8 -8 -8h-144q-8 0 -8 8v284q0 113 -102 113q-42 0 -72 -29t-38 -74v-294q0 -8 -8 -8h-144z" />
    <glyph glyph-name="o" unicode="o" horiz-adv-x="653" 
d="M336 -3q-123 0 -199.5 77t-76.5 190t76.5 189.5t199.5 76.5t200 -76.5t77 -189.5t-77 -190t-200 -77zM336 405q-55 0 -85.5 -39.5t-30.5 -101.5t30.5 -102t85.5 -40t86 40t31 102t-31 101.5t-86 39.5z" />
    <glyph glyph-name="p" unicode="p" horiz-adv-x="634" 
d="M369 530q106 0 165.5 -79t59.5 -187t-59.5 -187.5t-165.5 -79.5q-75 0 -129 61q-2 3 -4.5 3.5t-4 -1.5t-1.5 -5v-254q0 -8 -8 -8h-144q-8 0 -8 8v718q0 8 8 8h144q8 0 8 -8v-47q0 -5 2.5 -7t5.5 2q54 63 131 63zM325 122q40 0 66 24.5t34.5 54.5t8.5 63t-8.5 62.5
t-34.5 54t-66 24.5q-56 0 -92 -49q-3 -4 -3 -9v-167q0 -3 2 -9q36 -49 93 -49z" />
    <glyph glyph-name="q" unicode="q" horiz-adv-x="644" 
d="M586 527q8 0 8 -8v-718q0 -8 -8 -8h-144q-8 0 -8 8v254q0 3 -1.5 5t-4 1.5t-4.5 -3.5q-54 -61 -129 -61q-106 0 -165.5 79.5t-59.5 187.5t59.5 187t165.5 79q75 0 129 -61q2 -3 4.5 -3.5t4 1.5t1.5 5v47q0 8 8 8h144zM339 122q56 0 92 49q3 5 3 9v167q0 5 -3 9
q-36 49 -92 49q-40 0 -66 -24.5t-34.5 -54t-8.5 -62.5t8.5 -63t34.5 -54.5t66 -24.5z" />
    <glyph glyph-name="r" unicode="r" horiz-adv-x="480" 
d="M434 517q7 -3 5 -10l-17 -110q-2 -8 -10 -5q-26 13 -55 13q-53 0 -90 -45t-37 -132v-220q0 -8 -8 -8h-144q-8 0 -8 8v511q0 8 8 8h144q8 0 8 -8v-67q0 -6 3 -7t6 4q49 81 132 81q39 0 63 -13z" />
    <glyph glyph-name="s" unicode="s" horiz-adv-x="560" 
d="M297 -3q-98 0 -157.5 42.5t-79.5 115.5q-2 8 8 8l126 21q5 1 9 -8q24 -54 103 -54q20 0 37 9.5t17 25.5q0 20 -16.5 35.5t-68.5 29.5q-93 25 -142 59t-49 98q0 66 58.5 108.5t151.5 42.5q99 0 148 -42t61 -106q1 -6 -8 -8l-127 -17q-4 -1 -5.5 1t-2.5 7q-10 40 -66 40
q-19 0 -34.5 -9.5t-15.5 -25.5q0 -12 6 -20t20.5 -14.5t29.5 -11l41.5 -12.5t47.5 -16q65 -24 98 -58t33 -92q0 -75 -63.5 -112t-159.5 -37z" />
    <glyph glyph-name="t" unicode="t" horiz-adv-x="474" 
d="M424 40q1 -7 -3 -10q-50 -33 -146 -33q-45 0 -74 16t-43 48.5t-19 68t-5 87.5v177q0 8 -8 8h-58q-8 0 -8 8v109q0 8 8 8h58q8 0 8 8v111q0 8 7 9l145 18q4 1 6 -1.5t2 -6.5v-130q0 -8 8 -8h110q8 0 8 -8v-109q0 -8 -8 -8h-110q-8 0 -8 -8v-177q0 -48 10.5 -71.5
t41.5 -23.5q27 0 51 8q9 3 10 -3z" />
    <glyph glyph-name="u" unicode="u" horiz-adv-x="652" 
d="M594 527q8 0 8 -8v-511q0 -8 -8 -8h-144q-8 0 -8 8v61q0 3 -1.5 5t-3.5 1.5t-4 -3.5q-62 -75 -152 -75q-102 0 -156.5 65.5t-54.5 172.5v284q0 8 8 8h144q8 0 8 -8v-284q0 -113 102 -113q42 0 72 29t38 74v294q0 8 8 8h144z" />
    <glyph glyph-name="v" unicode="v" horiz-adv-x="678" 
d="M394 6q-3 -6 -10 -6h-79q-7 0 -10 6l-241 512q-4 9 6 9h147q8 0 10 -6l122 -292q5 -10 10 0l122 292q2 6 10 6h147q10 0 6 -9z" />
    <glyph glyph-name="w" unicode="w" horiz-adv-x="976" 
d="M773 520q2 7 9 7h147q10 0 6 -9l-210 -512q-2 -6 -10 -6h-79q-8 0 -10 6l-128 289q-5 12 -10 0l-127 -289q-2 -6 -10 -6h-79q-8 0 -10 6l-211 512q-4 9 6 9h147q7 0 9 -7l93 -289q5 -14 11 0l112 290q2 6 9 6h110q7 0 9 -6l112 -290q6 -14 11 0z" />
    <glyph glyph-name="x" unicode="x" horiz-adv-x="721" 
d="M674 527q12 0 4 -10l-205 -247q-6 -6 0 -12l205 -248q8 -10 -4 -10h-171q-7 0 -10 5l-118 146q-6 8 -12 0l-118 -146q-3 -5 -10 -5h-168q-12 0 -4 10l205 248q4 6 0 12l-205 247q-8 10 4 10h168q7 0 10 -5l118 -146q6 -8 12 0l118 146q3 5 10 5h171z" />
    <glyph glyph-name="y" unicode="y" horiz-adv-x="638" 
d="M440 521q2 6 9 6h152q10 0 6 -9l-201 -528q-40 -105 -85.5 -152.5t-121.5 -47.5q-36 0 -67.5 16.5t-49.5 45.5q-3 6 -2 11l17 87q2 11 10 3q31 -28 61 -28q38 0 59 21t39 65q2 4 0 10l-205 497q-3 9 6 9h152q7 0 9 -6l102 -297q1 -3 3 -4.5t4 0t3 4.5z" />
    <glyph glyph-name="z" unicode="z" horiz-adv-x="602" 
d="M552 447q0 -4 -4 -10l-255 -301q-8 -10 4 -10h247q8 0 8 -8v-109q0 -8 -8 -8h-466q-8 0 -8 8v71q0 4 4 10l255 302q8 10 -4 10h-247q-8 0 -8 8v109q0 8 8 8h466q8 0 8 -8v-72z" />
    <glyph glyph-name="braceleft" unicode="{" horiz-adv-x="458" 
d="M406 -178q2 -11 -9 -11q-42 0 -70 1.5t-62 6.5t-55 16t-40.5 28.5t-28.5 46t-9 66.5q0 15 2.5 52.5t2.5 63t-4 55.5t-17 47.5t-36 20.5q-10 1 -10 11v80q0 10 10 11q23 3 36 20.5t17 47.5t4 55.5t-2.5 63t-2.5 52.5q0 56 20.5 95.5t58.5 61t83 30.5t103 10q12 0 10 -11
l-18 -130q-1 -9 -11 -9q-30 -1 -48.5 -10t-26.5 -21.5t-9.5 -33t0.5 -39l5 -46.5t3 -48q0 -42 -19.5 -86t-54.5 -56q-4 -1 -4 -6.5t4 -7.5q36 -13 55 -57.5t19 -86.5q0 -23 -4 -52.5t-5 -44t4.5 -29.5t25 -21t55.5 -7q10 0 11 -9z" />
    <glyph glyph-name="bar" unicode="|" horiz-adv-x="350" 
d="M110 -207q-10 0 -10 10v980q0 10 10 10h150q10 0 10 -10v-980q0 -10 -10 -10h-150z" />
    <glyph glyph-name="braceright" unicode="}" horiz-adv-x="457" 
d="M71 -178l17 120q1 9 11 9q36 1 55.5 7t25 21t4.5 29.5t-5 44t-4 52.5q0 42 19 86.5t55 57.5q5 2 5 7.5t-5 6.5q-35 12 -54.5 56t-19.5 86q0 20 3 48l5 46.5t0.5 39t-9.5 33t-26.5 21.5t-48.5 10q-10 0 -11 9l-18 130q-2 11 10 11q58 -1 103 -10t83 -30.5t58.5 -61
t20.5 -95.5q0 -15 -2.5 -52.5t-2.5 -63t4 -55.5t17 -47.5t36 -20.5q10 -1 10 -11v-80q0 -10 -10 -11q-23 -3 -36 -20.5t-17 -47.5t-4 -55.5t2.5 -63t2.5 -52.5q0 -38 -9 -66.5t-28.5 -46t-40.5 -28.5t-55 -16t-62 -6.5t-70 -1.5q-11 0 -9 11z" />
    <glyph glyph-name="asciitilde" unicode="~" horiz-adv-x="587" 
d="M384 220q-35 0 -61.5 17t-48 33.5t-41.5 16.5q-42 0 -62 -41q-3 -6 -10 -5l-55 16q-8 2 -6 9q39 146 133 146q32 0 59 -17t49 -33.5t43 -16.5q47 0 62 40q3 7 10 6l54 -16q2 0 4 -1t2.5 -2t0.5 -2q-21 -77 -47 -109q-34 -41 -86 -41z" />
    <glyph glyph-name="exclamdown" unicode="&#xa1;" horiz-adv-x="420" 
d="M225 549q33 0 56.5 -23.5t23.5 -56.5t-23.5 -56.5t-56.5 -23.5t-56.5 23.5t-23.5 56.5t23.5 56.5t56.5 23.5zM150 -207h150q10 0 10 10l-15 476q0 10 -10 10h-120q-10 0 -10 -10l-15 -476q0 -10 10 -10z" />
    <glyph glyph-name="cent" unicode="&#xa2;" horiz-adv-x="566" 
d="M461 185l80 -72q5 -5 1 -11q-60 -86 -166 -102v-90q0 -10 -10 -10h-70q-10 0 -10 10v91q-99 17 -162.5 90.5t-63.5 172.5q0 98 63.5 172t162.5 90v91q0 10 10 10h70q10 0 10 -10v-90q108 -16 166 -102q4 -6 -1 -11l-80 -73q-8 -6 -11 1q-32 63 -104 63q-53 0 -89.5 -40
t-36.5 -101t37 -101.5t89 -40.5q69 0 104 62q4 6 11 1z" />
    <glyph glyph-name="sterling" unicode="&#xa3;" horiz-adv-x="654" 
d="M595 150q11 0 9 -11l-16 -130q-2 -9 -11 -9h-487q-10 0 -10 10v130q0 10 10 11q72 7 72 117q0 10 -2 28h-72q-8 0 -8 6v78q0 6 8 6h38q-31 60 -31 131q0 84 72 141.5t170 57.5q105 0 171 -59.5t89 -146.5q2 -9 -8 -11l-140 -18q-9 -1 -12 8q-20 77 -90 77
q-33 0 -57.5 -23t-24.5 -58q0 -41 34 -99h147q9 0 9 -6v-78q0 -6 -9 -6h-115q1 -6 1 -20q0 -70 -56 -115q-5 -5 -4 -8t8 -3h315z" />
    <glyph glyph-name="currency" unicode="&#xa4;" horiz-adv-x="667" 
d="M570 212l52 -53q7 -7 0 -14l-49 -50q-8 -6 -14 0l-53 53l-2 2q-69 -44 -159 -44t-158 44l-2 -2l-53 -52q-7 -7 -14 0l-50 49q-6 8 0 14l53 53q-52 69 -52 161q0 90 52 161l-53 53q-7 7 0 14l50 49q6 8 14 0l53 -53l2 -2q68 44 158 44q91 0 160 -44l55 55q7 7 14 0l49 -50
q8 -6 0 -14l-53 -53q52 -67 52 -160q0 -90 -52 -161zM345 231q55 0 86 40t31 102t-31 101.5t-86 39.5t-85.5 -39.5t-30.5 -101.5t30.5 -102t85.5 -40z" />
    <glyph glyph-name="yen" unicode="&#xa5;" horiz-adv-x="850" 
d="M792 713q6 0 8 -3.5t-2 -8.5l-254 -352h106q10 0 10 -6v-78q0 -6 -10 -6h-135v-40h135q10 0 10 -6v-78q0 -6 -10 -6h-135v-119q0 -10 -10 -10h-150q-10 0 -10 10v119h-125q-10 0 -10 6v78q0 6 10 6h125v40h-125q-10 0 -10 6v78q0 6 10 6h96l-254 352q-4 5 -2 8.5t8 3.5
h186q8 0 12 -6l157 -225q7 -10 14 0l157 225q4 6 12 6h186z" />
    <glyph glyph-name="copyright" unicode="&#xa9;" horiz-adv-x="889" 
d="M460 716q-157 0 -258.5 -99.5t-101.5 -259.5q0 -161 101.5 -260.5t258.5 -99.5q156 0 257.5 99.5t101.5 260.5q0 160 -101.5 259.5t-257.5 99.5zM461 659q115 0 205.5 -80t91.5 -222q0 -97 -46.5 -168t-112 -103t-138.5 -32q-117 0 -208 80t-92 223q1 142 92 222t208 80z
M555 260q5 6 9 0l55 -60q5 -5 0 -8q-65 -61 -153 -61q-96 0 -163.5 66.5t-67.5 159.5q0 92 67.5 158t163.5 66q86 0 153 -61q5 -3 0 -8l-55 -60q-4 -4 -9 0q-29 35 -89 35q-46 0 -85.5 -34.5t-39.5 -95.5q0 -62 39.5 -97t85.5 -35q60 0 89 35z" />
    <glyph glyph-name="guillemotleft" unicode="&#xab;" horiz-adv-x="621" 
d="M164 465q3 7 12 7h148q14 0 7 -12l-99 -163q-4 -7 0 -14l100 -167q3 -5 0.5 -8.5t-8.5 -3.5h-148q-9 0 -12 7l-92 172q-4 7 0 14zM392 465q3 7 12 7h148q14 0 7 -12l-99 -163q-4 -7 0 -14l100 -167q3 -5 0.5 -8.5t-8.5 -3.5h-148q-9 0 -12 7l-92 172q-4 7 0 14z" />
    <glyph glyph-name="logicalnot" unicode="&#xac;" horiz-adv-x="653" 
d="M573 435q10 0 10 -10v-284q0 -10 -10 -10h-150q-10 0 -10 10v134q0 10 -10 10h-293q-10 0 -10 10v130q0 10 10 10h463z" />
    <glyph glyph-name="registered" unicode="&#xae;" horiz-adv-x="889" 
d="M460 716q-157 0 -258.5 -99.5t-101.5 -259.5q0 -161 101.5 -260.5t258.5 -99.5q156 0 257.5 99.5t101.5 260.5q0 160 -101.5 259.5t-257.5 99.5zM461 659q115 0 205.5 -80t91.5 -222q0 -97 -46.5 -168t-112 -103t-138.5 -32q-117 0 -208 80t-92 223q1 142 92 222t208 80z
M324 171q-5 0 -5 5v361q0 5 5 5h159q56 0 95 -37.5t39 -93.5q0 -73 -63 -111q-2 -1 -2.5 -3.5t0.5 -3.5l63 -116q2 -6 -4 -6h-85q-5 0 -5 3l-54 103q-2 4 -6 4h-49q-5 0 -5 -6v-99q0 -5 -5 -5h-78zM415 359h60q23 0 39.5 15t16.5 37q0 24 -16.5 38.5t-39.5 14.5h-60
q-5 0 -5 -5v-95q0 -5 5 -5z" />
    <glyph glyph-name="degree" unicode="&#xb0;" horiz-adv-x="405" 
d="M198 401q-65 0 -111.5 46t-46.5 111t46.5 111.5t111.5 46.5q66 0 111.5 -46t45.5 -112q0 -65 -45.5 -111t-111.5 -46zM198 630q-25 0 -44 -19t-19 -53t19 -53t44 -19t43.5 19t18.5 53t-18.5 53t-43.5 19z" />
    <glyph glyph-name="plusminus" unicode="&#xb1;" horiz-adv-x="634" 
d="M427 275q-10 0 -10 -10v-74h136q10 0 10 -10v-130q0 -10 -10 -10h-443q-10 0 -10 10v130q0 10 10 10h137v74q0 10 -10 10h-127q-10 0 -10 10v130q0 10 10 10h127q10 0 10 10v137q0 10 10 10h150q10 0 10 -10v-137q0 -10 10 -10h126q10 0 10 -10v-130q0 -10 -10 -10h-126z
" />
    <glyph glyph-name="periodcentered" unicode="&#xb7;" horiz-adv-x="480" 
d="M260 234q-33 0 -56.5 23.5t-23.5 56.5t23.5 56.5t56.5 23.5t56.5 -23.5t23.5 -56.5t-23.5 -56.5t-56.5 -23.5z" />
    <glyph glyph-name="guillemotright" unicode="&#xbb;" horiz-adv-x="621" 
d="M239 465l92 -168q3 -7 0 -14l-92 -172q-3 -7 -12 -7h-148q-6 0 -8.5 3.5t0.5 8.5l100 167q3 7 0 14l-99 163q-7 12 7 12h148q9 0 12 -7zM467 465l92 -168q3 -7 0 -14l-92 -172q-3 -7 -12 -7h-148q-6 0 -8.5 3.5t0.5 8.5l100 167q3 7 0 14l-99 163q-7 12 7 12h148
q9 0 12 -7z" />
    <glyph glyph-name="questiondown" unicode="&#xbf;" horiz-adv-x="601" 
d="M330 549q33 0 56.5 -23.5t23.5 -56.5t-23.5 -56.5t-56.5 -23.5t-56.5 23.5t-23.5 56.5t23.5 56.5t56.5 23.5zM394 289q10 0 10 -10q4 -53 -11.5 -94t-40.5 -65.5t-50 -44t-43.5 -39t-18.5 -40.5q0 -56 61 -56q28 0 49.5 19t28.5 49q2 9 13 7l150 -18q10 -2 8 -11
q-21 -86 -89.5 -141t-164.5 -55q-103 0 -164.5 51.5t-61.5 144.5q0 44 20.5 78t48.5 55l56 42t45.5 50t13.5 68q-2 10 10 10h130z" />
    <glyph glyph-name="Agrave" unicode="&#xc0;" horiz-adv-x="879" 
d="M420 932l74 -137q3 -5 0.5 -8.5t-8.5 -3.5h-98q-8 0 -12 6l-101 138q-4 5 -2 8.5t8 3.5h127q9 0 12 -7zM399 706q3 7 12 7h68q9 0 12 -7l327 -694q5 -12 -7 -12h-167q-9 0 -12 7l-45 95q-3 7 -11 7h-263q-9 0 -12 -7l-45 -95q-3 -7 -11 -7h-167q-12 0 -7 12zM372 271
q-5 -12 7 -12h131q12 0 7 12l-65 149q-2 5 -7 5t-7 -5z" />
    <glyph glyph-name="Aacute" unicode="&#xc1;" horiz-adv-x="879" 
d="M478 932q3 7 12 7h127q6 0 8 -3.5t-2 -8.5l-101 -138q-4 -6 -12 -6h-98q-6 0 -8.5 3.5t0.5 8.5zM399 706q3 7 12 7h68q9 0 12 -7l327 -694q5 -12 -7 -12h-167q-9 0 -12 7l-45 95q-3 7 -11 7h-263q-9 0 -12 -7l-45 -95q-3 -7 -11 -7h-167q-12 0 -7 12zM372 271
q-5 -12 7 -12h131q12 0 7 12l-65 149q-2 5 -7 5t-7 -5z" />
    <glyph glyph-name="Acircumflex" unicode="&#xc2;" horiz-adv-x="879" 
d="M304 868q0 7 8 12l125 61q7 3 14 0l125 -61q8 -5 8 -12v-88q0 -13 -12 -8l-121 59q-7 3 -14 0l-121 -59q-12 -5 -12 8v88zM399 706q3 7 12 7h68q9 0 12 -7l327 -694q5 -12 -7 -12h-167q-9 0 -12 7l-45 95q-3 7 -11 7h-263q-9 0 -12 -7l-45 -95q-3 -7 -11 -7h-167
q-12 0 -7 12zM372 271q-5 -12 7 -12h131q12 0 7 12l-65 149q-2 5 -7 5t-7 -5z" />
    <glyph glyph-name="Atilde" unicode="&#xc3;" horiz-adv-x="879" 
d="M510 769q-27 0 -50.5 10.5t-36.5 23t-30 23t-34 10.5q-42 0 -62 -41q-3 -6 -10 -5l-55 16q-8 2 -6 9q39 146 133 146q32 0 59 -16.5t49 -33.5t43 -17q47 0 62 40q3 7 10 6l54 -16q2 0 4 -1t2.5 -2t0.5 -2q-21 -77 -47 -109q-34 -41 -86 -41zM399 706q3 7 12 7h68
q9 0 12 -7l327 -694q5 -12 -7 -12h-167q-9 0 -12 7l-45 95q-3 7 -11 7h-263q-9 0 -12 -7l-45 -95q-3 -7 -11 -7h-167q-12 0 -7 12zM372 271q-5 -12 7 -12h131q12 0 7 12l-65 149q-2 5 -7 5t-7 -5z" />
    <glyph glyph-name="Adieresis" unicode="&#xc4;" horiz-adv-x="879" 
d="M343 782q-33 0 -56.5 23.5t-23.5 56.5t23.5 56.5t56.5 23.5t56.5 -23.5t23.5 -56.5t-23.5 -56.5t-56.5 -23.5zM552 782q-33 0 -56.5 23.5t-23.5 56.5t23.5 56.5t56.5 23.5t56.5 -23.5t23.5 -56.5t-23.5 -56.5t-56.5 -23.5zM399 706q3 7 12 7h68q9 0 12 -7l327 -694
q5 -12 -7 -12h-167q-9 0 -12 7l-45 95q-3 7 -11 7h-263q-9 0 -12 -7l-45 -95q-3 -7 -11 -7h-167q-12 0 -7 12zM372 271q-5 -12 7 -12h131q12 0 7 12l-65 149q-2 5 -7 5t-7 -5z" />
    <glyph glyph-name="Aring" unicode="&#xc5;" horiz-adv-x="879" 
d="M444 792q-31 0 -53 22t-22 53t21.5 53t53.5 22q31 0 53 -22t22 -53t-22 -53t-53 -22zM444 892q-12 0 -18.5 -8t-6.5 -17t6.5 -17t18.5 -8t18.5 8t6.5 17t-6.5 17t-18.5 8zM399 706q3 7 12 7h68q9 0 12 -7l327 -694q5 -12 -7 -12h-167q-9 0 -12 7l-45 95q-3 7 -11 7h-263
q-9 0 -12 -7l-45 -95q-3 -7 -11 -7h-167q-12 0 -7 12zM372 271q-5 -12 7 -12h131q12 0 7 12l-65 149q-2 5 -7 5t-7 -5z" />
    <glyph glyph-name="AE" unicode="&#xc6;" horiz-adv-x="1115" 
d="M1035 150q10 0 10 -10v-130q0 -10 -10 -10h-439q-10 0 -10 10v89q0 10 -10 10h-213q-8 0 -12 -6l-71 -97q-4 -6 -12 -6h-190q-6 0 -8 4t2 8l501 695q4 6 12 6h440q10 0 10 -10v-130q0 -10 -10 -10h-259q-10 0 -10 -10v-120q0 -10 10 -10h167q10 0 10 -10v-130
q0 -10 -10 -10h-167q-10 0 -10 -10v-103q0 -10 10 -10h269zM460 271q-3 -5 -1 -8.5t8 -3.5h109q10 0 10 10v163q0 7 -4 8t-8 -5z" />
    <glyph glyph-name="Ccedilla" unicode="&#xc7;" horiz-adv-x="787" 
d="M626 204l88 -96q8 -8 0 -14q-47 -43 -99.5 -68.5t-129.5 -28.5l-7 -32q-2 -9 7 -9q29 -3 49.5 -22.5t20.5 -52.5q0 -37 -40 -64.5t-84 -27.5q-49 0 -82 21q-5 2 -5 9v42q0 4 2.5 6t6.5 1q29 -9 53 -9q22 0 35 8.5t13 21.5q0 36 -48 36q-23 0 -41 -9q-5 -2 -7.5 0t-0.5 7
l32 83q-126 27 -207.5 126t-81.5 226q0 148 108 253t262 105q136 0 244 -96q8 -6 0 -14l-88 -96q-6 -8 -14 0q-47 56 -142 56q-74 0 -137 -55t-63 -153q0 -99 63 -155t137 -56q46 0 83.5 16t58.5 41q8 8 14 0z" />
    <glyph glyph-name="Egrave" unicode="&#xc8;" horiz-adv-x="619" 
d="M293 932l74 -137q3 -5 0.5 -8.5t-8.5 -3.5h-98q-8 0 -12 6l-101 138q-4 5 -2 8.5t8 3.5h127q9 0 12 -7zM539 150q10 0 10 -10v-130q0 -10 -10 -10h-439q-10 0 -10 10v693q0 10 10 10h429q10 0 10 -10v-130q0 -10 -10 -10h-259q-10 0 -10 -10v-117q0 -10 10 -10h187
q10 0 10 -10v-130q0 -10 -10 -10h-187q-10 0 -10 -10v-106q0 -10 10 -10h269z" />
    <glyph glyph-name="Eacute" unicode="&#xc9;" horiz-adv-x="619" 
d="M351 932q3 7 12 7h127q6 0 8 -3.5t-2 -8.5l-101 -138q-4 -6 -12 -6h-98q-6 0 -8.5 3.5t0.5 8.5zM539 150q10 0 10 -10v-130q0 -10 -10 -10h-439q-10 0 -10 10v693q0 10 10 10h429q10 0 10 -10v-130q0 -10 -10 -10h-259q-10 0 -10 -10v-117q0 -10 10 -10h187q10 0 10 -10
v-130q0 -10 -10 -10h-187q-10 0 -10 -10v-106q0 -10 10 -10h269z" />
    <glyph glyph-name="Ecircumflex" unicode="&#xca;" horiz-adv-x="619" 
d="M177 868q0 7 8 12l125 61q7 3 14 0l125 -61q8 -5 8 -12v-88q0 -13 -12 -8l-121 59q-7 3 -14 0l-121 -59q-12 -5 -12 8v88zM539 150q10 0 10 -10v-130q0 -10 -10 -10h-439q-10 0 -10 10v693q0 10 10 10h429q10 0 10 -10v-130q0 -10 -10 -10h-259q-10 0 -10 -10v-117
q0 -10 10 -10h187q10 0 10 -10v-130q0 -10 -10 -10h-187q-10 0 -10 -10v-106q0 -10 10 -10h269z" />
    <glyph glyph-name="Edieresis" unicode="&#xcb;" horiz-adv-x="619" 
d="M216 782q-33 0 -56.5 23.5t-23.5 56.5t23.5 56.5t56.5 23.5t56.5 -23.5t23.5 -56.5t-23.5 -56.5t-56.5 -23.5zM425 782q-33 0 -56.5 23.5t-23.5 56.5t23.5 56.5t56.5 23.5t56.5 -23.5t23.5 -56.5t-23.5 -56.5t-56.5 -23.5zM539 150q10 0 10 -10v-130q0 -10 -10 -10h-439
q-10 0 -10 10v693q0 10 10 10h429q10 0 10 -10v-130q0 -10 -10 -10h-259q-10 0 -10 -10v-117q0 -10 10 -10h187q10 0 10 -10v-130q0 -10 -10 -10h-187q-10 0 -10 -10v-106q0 -10 10 -10h269z" />
    <glyph glyph-name="Igrave" unicode="&#xcc;" horiz-adv-x="474" 
d="M218 932l74 -137q3 -5 0.5 -8.5t-8.5 -3.5h-98q-8 0 -12 6l-101 138q-4 5 -2 8.5t8 3.5h127q9 0 12 -7zM404 573q0 -10 -10 -10h-52q-10 0 -10 -10v-393q0 -10 10 -10h52q10 0 10 -10v-130q0 -10 -10 -10h-294q-10 0 -10 10v130q0 10 10 10h52q10 0 10 10v393
q0 10 -10 10h-52q-10 0 -10 10v130q0 10 10 10h294q10 0 10 -10v-130z" />
    <glyph glyph-name="Iacute" unicode="&#xcd;" horiz-adv-x="474" 
d="M276 932q3 7 12 7h127q6 0 8 -3.5t-2 -8.5l-101 -138q-4 -6 -12 -6h-98q-6 0 -8.5 3.5t0.5 8.5zM404 573q0 -10 -10 -10h-52q-10 0 -10 -10v-393q0 -10 10 -10h52q10 0 10 -10v-130q0 -10 -10 -10h-294q-10 0 -10 10v130q0 10 10 10h52q10 0 10 10v393q0 10 -10 10h-52
q-10 0 -10 10v130q0 10 10 10h294q10 0 10 -10v-130z" />
    <glyph glyph-name="Icircumflex" unicode="&#xce;" horiz-adv-x="474" 
d="M102 868q0 7 8 12l125 61q7 3 14 0l125 -61q8 -5 8 -12v-88q0 -13 -12 -8l-121 59q-7 3 -14 0l-121 -59q-12 -5 -12 8v88zM404 573q0 -10 -10 -10h-52q-10 0 -10 -10v-393q0 -10 10 -10h52q10 0 10 -10v-130q0 -10 -10 -10h-294q-10 0 -10 10v130q0 10 10 10h52
q10 0 10 10v393q0 10 -10 10h-52q-10 0 -10 10v130q0 10 10 10h294q10 0 10 -10v-130z" />
    <glyph glyph-name="Idieresis" unicode="&#xcf;" horiz-adv-x="474" 
d="M141 782q-33 0 -56.5 23.5t-23.5 56.5t23.5 56.5t56.5 23.5t56.5 -23.5t23.5 -56.5t-23.5 -56.5t-56.5 -23.5zM350 782q-33 0 -56.5 23.5t-23.5 56.5t23.5 56.5t56.5 23.5t56.5 -23.5t23.5 -56.5t-23.5 -56.5t-56.5 -23.5zM404 573q0 -10 -10 -10h-52q-10 0 -10 -10v-393
q0 -10 10 -10h52q10 0 10 -10v-130q0 -10 -10 -10h-294q-10 0 -10 10v130q0 10 10 10h52q10 0 10 10v393q0 10 -10 10h-52q-10 0 -10 10v130q0 10 10 10h294q10 0 10 -10v-130z" />
    <glyph glyph-name="Eth" unicode="&#xd0;" horiz-adv-x="956" 
d="M525 713q156 0 263.5 -102.5t107.5 -254.5q0 -151 -108 -253.5t-263 -102.5h-255q-10 0 -10 10v256h-120q-10 0 -10 10v130q0 10 10 10h120v287q0 10 10 10h255zM535 149q73 0 132 57.5t59 149.5t-59 149.5t-132 57.5h-95q-10 0 -10 -10v-137h140q10 0 10 -10v-130
q0 -10 -10 -10h-140v-107q0 -10 10 -10h95z" />
    <glyph glyph-name="Ntilde" unicode="&#xd1;" horiz-adv-x="754" 
d="M453 769q-27 0 -50.5 10.5t-36.5 23t-30 23t-34 10.5q-42 0 -62 -41q-3 -6 -10 -5l-55 16q-8 2 -6 9q39 146 133 146q32 0 59 -16.5t49 -33.5t43 -17q47 0 62 40q3 7 10 6l54 -16q2 0 4 -1t2.5 -2t0.5 -2q-21 -77 -47 -109q-34 -41 -86 -41zM684 10q0 -10 -10 -10h-96
q-8 0 -12 6l-284 361q-4 6 -8 4t-4 -9v-352q0 -10 -10 -10h-150q-10 0 -10 10v693q0 10 10 10h96q8 0 12 -6l284 -361q4 -6 8 -4t4 9v352q0 10 10 10h150q10 0 10 -10v-693z" />
    <glyph glyph-name="Ograve" unicode="&#xd2;" horiz-adv-x="889" 
d="M436 935l74 -137q3 -5 0.5 -8.5t-8.5 -3.5h-98q-8 0 -12 6l-101 138q-4 4 -2 8t8 4h127q9 0 12 -7zM460 716q154 0 256.5 -102t102.5 -257t-102.5 -257.5t-256.5 -102.5t-257 102.5t-103 257.5q0 154 102.5 256.5t257.5 102.5zM460 566q-78 0 -134 -54.5t-56 -154.5
t56 -155t134 -55t133.5 54.5t55.5 155.5q0 100 -55.5 154.5t-133.5 54.5z" />
    <glyph glyph-name="Oacute" unicode="&#xd3;" horiz-adv-x="889" 
d="M494 935q3 7 12 7h127q6 0 8 -4t-2 -8l-101 -138q-4 -6 -12 -6h-98q-6 0 -8.5 3.5t0.5 8.5zM460 716q154 0 256.5 -102t102.5 -257t-102.5 -257.5t-256.5 -102.5t-257 102.5t-103 257.5q0 154 102.5 256.5t257.5 102.5zM460 566q-78 0 -134 -54.5t-56 -154.5t56 -155
t134 -55t133.5 54.5t55.5 155.5q0 100 -55.5 154.5t-133.5 54.5z" />
    <glyph glyph-name="Ocircumflex" unicode="&#xd4;" horiz-adv-x="889" 
d="M320 871q0 7 8 12l125 61q7 4 14 0l125 -61q8 -5 8 -12v-88q0 -13 -12 -8l-121 59q-7 4 -14 0l-121 -59q-12 -5 -12 8v88zM460 716q154 0 256.5 -102t102.5 -257t-102.5 -257.5t-256.5 -102.5t-257 102.5t-103 257.5q0 154 102.5 256.5t257.5 102.5zM460 566
q-78 0 -134 -54.5t-56 -154.5t56 -155t134 -55t133.5 54.5t55.5 155.5q0 100 -55.5 154.5t-133.5 54.5z" />
    <glyph glyph-name="Otilde" unicode="&#xd5;" horiz-adv-x="889" 
d="M526 772q-35 0 -61.5 17t-48 33.5t-41.5 16.5q-42 0 -62 -41q-3 -6 -10 -5l-55 16q-8 2 -6 9q39 146 133 146q32 0 59 -17t49 -33.5t43 -16.5q47 0 62 40q3 7 10 6l54 -16q2 0 4 -1t2.5 -2t0.5 -2q-21 -77 -47 -109q-34 -41 -86 -41zM460 716q154 0 256.5 -102
t102.5 -257t-102.5 -257.5t-256.5 -102.5t-257 102.5t-103 257.5q0 154 102.5 256.5t257.5 102.5zM460 566q-78 0 -134 -54.5t-56 -154.5t56 -155t134 -55t133.5 54.5t55.5 155.5q0 100 -55.5 154.5t-133.5 54.5z" />
    <glyph glyph-name="Odieresis" unicode="&#xd6;" horiz-adv-x="889" 
d="M359 785q-33 0 -56.5 23.5t-23.5 56.5t23.5 56.5t56.5 23.5t56.5 -23.5t23.5 -56.5t-23.5 -56.5t-56.5 -23.5zM568 785q-33 0 -56.5 23.5t-23.5 56.5t23.5 56.5t56.5 23.5t56.5 -23.5t23.5 -56.5t-23.5 -56.5t-56.5 -23.5zM460 716q154 0 256.5 -102t102.5 -257
t-102.5 -257.5t-256.5 -102.5t-257 102.5t-103 257.5q0 154 102.5 256.5t257.5 102.5zM460 566q-78 0 -134 -54.5t-56 -154.5t56 -155t134 -55t133.5 54.5t55.5 155.5q0 100 -55.5 154.5t-133.5 54.5z" />
    <glyph glyph-name="multiply" unicode="&#xd7;" horiz-adv-x="619" 
d="M529 225q7 -7 0 -14l-92 -92q-7 -7 -14 0l-89 89q-8 8 -15 0l-96 -96q-7 -7 -14 0l-106 106q-7 7 0 14l96 97q6 6 0 14l-90 89q-6 8 0 15l92 91q8 8 14 0l90 -89q7 -9 14 0l97 97q7 7 14 0l106 -106q8 -8 0 -15l-96 -96q-8 -7 0 -15z" />
    <glyph glyph-name="Oslash" unicode="&#xd8;" horiz-adv-x="889" 
d="M660 659q74 -47 116.5 -126.5t42.5 -175.5q0 -155 -102.5 -257.5t-256.5 -102.5q-54 0 -105 14l-21 -44q-3 -7 -11 -7h-87q-12 0 -7 12l37 78q-77 47 -121.5 127.5t-44.5 179.5q0 154 102.5 256.5t257.5 102.5q56 0 112 -16l22 46q3 7 11 7h87q12 0 7 -12zM270 357
q0 -104 64 -163l173 367q-27 5 -47 5q-78 0 -134 -54.5t-56 -154.5zM460 147q78 0 133.5 54.5t55.5 155.5q0 98 -57 157l-171 -363q17 -4 39 -4z" />
    <glyph glyph-name="Ugrave" unicode="&#xd9;" horiz-adv-x="803" 
d="M397 932l74 -137q3 -5 0.5 -8.5t-8.5 -3.5h-98q-8 0 -12 6l-101 138q-4 5 -2 8.5t8 3.5h127q9 0 12 -7zM563 703q0 10 10 10h150q10 0 10 -10v-396q0 -43 -8.5 -84t-30.5 -83t-56 -73t-91 -50.5t-130 -19.5t-130 19.5t-91.5 50.5t-56.5 73t-30.5 83t-8.5 84v396
q0 10 10 10h150q10 0 10 -10v-396q0 -81 38.5 -120.5t108.5 -39.5q142 0 146 160v396z" />
    <glyph glyph-name="Uacute" unicode="&#xda;" horiz-adv-x="803" 
d="M455 932q3 7 12 7h127q6 0 8 -3.5t-2 -8.5l-101 -138q-4 -6 -12 -6h-98q-6 0 -8.5 3.5t0.5 8.5zM563 703q0 10 10 10h150q10 0 10 -10v-396q0 -43 -8.5 -84t-30.5 -83t-56 -73t-91 -50.5t-130 -19.5t-130 19.5t-91.5 50.5t-56.5 73t-30.5 83t-8.5 84v396q0 10 10 10h150
q10 0 10 -10v-396q0 -81 38.5 -120.5t108.5 -39.5q142 0 146 160v396z" />
    <glyph glyph-name="Ucircumflex" unicode="&#xdb;" horiz-adv-x="803" 
d="M281 868q0 7 8 12l125 61q7 3 14 0l125 -61q8 -5 8 -12v-88q0 -13 -12 -8l-121 59q-7 3 -14 0l-121 -59q-12 -5 -12 8v88zM563 703q0 10 10 10h150q10 0 10 -10v-396q0 -43 -8.5 -84t-30.5 -83t-56 -73t-91 -50.5t-130 -19.5t-130 19.5t-91.5 50.5t-56.5 73t-30.5 83
t-8.5 84v396q0 10 10 10h150q10 0 10 -10v-396q0 -81 38.5 -120.5t108.5 -39.5q142 0 146 160v396z" />
    <glyph glyph-name="Udieresis" unicode="&#xdc;" horiz-adv-x="803" 
d="M320 782q-33 0 -56.5 23.5t-23.5 56.5t23.5 56.5t56.5 23.5t56.5 -23.5t23.5 -56.5t-23.5 -56.5t-56.5 -23.5zM529 782q-33 0 -56.5 23.5t-23.5 56.5t23.5 56.5t56.5 23.5t56.5 -23.5t23.5 -56.5t-23.5 -56.5t-56.5 -23.5zM563 703q0 10 10 10h150q10 0 10 -10v-396
q0 -43 -8.5 -84t-30.5 -83t-56 -73t-91 -50.5t-130 -19.5t-130 19.5t-91.5 50.5t-56.5 73t-30.5 83t-8.5 84v396q0 10 10 10h150q10 0 10 -10v-396q0 -81 38.5 -120.5t108.5 -39.5q142 0 146 160v396z" />
    <glyph glyph-name="Yacute" unicode="&#xdd;" horiz-adv-x="850" 
d="M459 932q3 7 12 7h127q6 0 8 -3.5t-2 -8.5l-101 -138q-4 -6 -12 -6h-98q-6 0 -8.5 3.5t0.5 8.5zM792 713q6 0 8 -3.5t-2 -8.5l-279 -386q-4 -5 -4 -13v-292q0 -10 -10 -10h-150q-10 0 -10 10v292q0 8 -4 13l-279 386q-4 5 -2 8.5t8 3.5h186q8 0 12 -6l157 -225
q7 -10 14 0l157 225q4 6 12 6h186z" />
    <glyph glyph-name="Thorn" unicode="&#xde;" horiz-adv-x="756" 
d="M100 10v735q0 8 8 8h154q8 0 8 -8v-62q0 -10 10 -10h115q123 0 207 -74t84 -192t-84 -192t-207 -74h-115q-10 0 -10 -10v-121q0 -10 -10 -10h-150q-10 0 -10 10zM270 301q0 -10 10 -10h105q131 0 131 116t-131 116h-105q-10 0 -10 -10v-212z" />
    <glyph glyph-name="germandbls" unicode="&#xdf;" horiz-adv-x="717" 
d="M515 367q0 -17 13.5 -32t33 -28t39 -28.5t33 -42.5t13.5 -61q0 -78 -51.5 -128t-128.5 -50q-81 0 -135 39q-8 7 -7 13l18 130q2 12 12 8q50 -20 73 -20t36 11.5t13 32.5q0 22 -17 41t-37 31t-37 34.5t-17 49.5q0 31 24 67.5t24 66.5t-19 47.5t-50 17.5q-37 0 -57 -21
t-20 -60v-475q0 -10 -10 -10h-151q-10 0 -10 10v475q0 108 71 169.5t187 61.5q107 0 168 -48.5t61 -128.5q0 -33 -11.5 -60t-24.5 -41t-24.5 -33t-11.5 -38z" />
    <glyph glyph-name="agrave" unicode="&#xe0;" horiz-adv-x="564" 
d="M283 749l74 -137q3 -5 0.5 -8.5t-8.5 -3.5h-98q-8 0 -12 6l-101 138q-4 4 -2 8t8 4h127q9 0 12 -7zM307 530q55 0 95 -15.5t61 -38t33 -57.5t15 -63t3 -67v-281q0 -8 -8 -8h-144q-8 0 -8 8v41q0 5 -3 6.5t-6 -2.5q-52 -56 -130 -56q-70 0 -112.5 39.5t-42.5 105.5
q0 65 42.5 108t103.5 60.5t140 20.5q8 0 8 9q0 65 -84 65q-29 0 -71 -9t-68 -22q-8 -5 -10 4l-17 89q-1 5 4 10q38 24 93 38.5t106 14.5zM282 112q41 0 67 26q5 5 5 10v75q0 8 -8 8q-57 0 -86.5 -23t-29.5 -51q0 -18 13.5 -31.5t38.5 -13.5z" />
    <glyph glyph-name="aacute" unicode="&#xe1;" horiz-adv-x="564" 
d="M341 749q3 7 12 7h127q6 0 8 -4t-2 -8l-101 -138q-4 -6 -12 -6h-98q-6 0 -8.5 3.5t0.5 8.5zM307 530q55 0 95 -15.5t61 -38t33 -57.5t15 -63t3 -67v-281q0 -8 -8 -8h-144q-8 0 -8 8v41q0 5 -3 6.5t-6 -2.5q-52 -56 -130 -56q-70 0 -112.5 39.5t-42.5 105.5q0 65 42.5 108
t103.5 60.5t140 20.5q8 0 8 9q0 65 -84 65q-29 0 -71 -9t-68 -22q-8 -5 -10 4l-17 89q-1 5 4 10q38 24 93 38.5t106 14.5zM282 112q41 0 67 26q5 5 5 10v75q0 8 -8 8q-57 0 -86.5 -23t-29.5 -51q0 -18 13.5 -31.5t38.5 -13.5z" />
    <glyph glyph-name="acircumflex" unicode="&#xe2;" horiz-adv-x="564" 
d="M167 685q0 7 8 12l125 61q7 4 14 0l125 -61q8 -5 8 -12v-88q0 -13 -12 -8l-121 59q-7 4 -14 0l-121 -59q-12 -5 -12 8v88zM307 530q55 0 95 -15.5t61 -38t33 -57.5t15 -63t3 -67v-281q0 -8 -8 -8h-144q-8 0 -8 8v41q0 5 -3 6.5t-6 -2.5q-52 -56 -130 -56
q-70 0 -112.5 39.5t-42.5 105.5q0 65 42.5 108t103.5 60.5t140 20.5q8 0 8 9q0 65 -84 65q-29 0 -71 -9t-68 -22q-8 -5 -10 4l-17 89q-1 5 4 10q38 24 93 38.5t106 14.5zM282 112q41 0 67 26q5 5 5 10v75q0 8 -8 8q-57 0 -86.5 -23t-29.5 -51q0 -18 13.5 -31.5t38.5 -13.5z
" />
    <glyph glyph-name="atilde" unicode="&#xe3;" horiz-adv-x="564" 
d="M373 586q-35 0 -61.5 17t-48 33.5t-41.5 16.5q-42 0 -62 -41q-3 -6 -10 -5l-55 16q-8 2 -6 9q39 146 133 146q32 0 59 -17t49 -33.5t43 -16.5q47 0 62 40q3 7 10 6l54 -16q2 0 4 -1t2.5 -2t0.5 -2q-21 -77 -47 -109q-34 -41 -86 -41zM307 530q55 0 95 -15.5t61 -38
t33 -57.5t15 -63t3 -67v-281q0 -8 -8 -8h-144q-8 0 -8 8v41q0 5 -3 6.5t-6 -2.5q-52 -56 -130 -56q-70 0 -112.5 39.5t-42.5 105.5q0 65 42.5 108t103.5 60.5t140 20.5q8 0 8 9q0 65 -84 65q-29 0 -71 -9t-68 -22q-8 -5 -10 4l-17 89q-1 5 4 10q38 24 93 38.5t106 14.5z
M282 112q41 0 67 26q5 5 5 10v75q0 8 -8 8q-57 0 -86.5 -23t-29.5 -51q0 -18 13.5 -31.5t38.5 -13.5z" />
    <glyph glyph-name="adieresis" unicode="&#xe4;" horiz-adv-x="564" 
d="M206 599q-33 0 -56.5 23.5t-23.5 56.5t23.5 56.5t56.5 23.5t56.5 -23.5t23.5 -56.5t-23.5 -56.5t-56.5 -23.5zM415 599q-33 0 -56.5 23.5t-23.5 56.5t23.5 56.5t56.5 23.5t56.5 -23.5t23.5 -56.5t-23.5 -56.5t-56.5 -23.5zM307 530q55 0 95 -15.5t61 -38t33 -57.5t15 -63
t3 -67v-281q0 -8 -8 -8h-144q-8 0 -8 8v41q0 5 -3 6.5t-6 -2.5q-52 -56 -130 -56q-70 0 -112.5 39.5t-42.5 105.5q0 65 42.5 108t103.5 60.5t140 20.5q8 0 8 9q0 65 -84 65q-29 0 -71 -9t-68 -22q-8 -5 -10 4l-17 89q-1 5 4 10q38 24 93 38.5t106 14.5zM282 112q41 0 67 26
q5 5 5 10v75q0 8 -8 8q-57 0 -86.5 -23t-29.5 -51q0 -18 13.5 -31.5t38.5 -13.5z" />
    <glyph glyph-name="aring" unicode="&#xe5;" horiz-adv-x="564" 
d="M307 609q-31 0 -53 22t-22 53q0 32 22 53.5t53 21.5t53 -22t22 -53t-22 -53t-53 -22zM307 709q-12 0 -18.5 -8t-6.5 -17t6.5 -17t18.5 -8t18.5 8t6.5 17t-6.5 17t-18.5 8zM307 530q55 0 95 -15.5t61 -38t33 -57.5t15 -63t3 -67v-281q0 -8 -8 -8h-144q-8 0 -8 8v41
q0 5 -3 6.5t-6 -2.5q-52 -56 -130 -56q-70 0 -112.5 39.5t-42.5 105.5q0 65 42.5 108t103.5 60.5t140 20.5q8 0 8 9q0 65 -84 65q-29 0 -71 -9t-68 -22q-8 -5 -10 4l-17 89q-1 5 4 10q38 24 93 38.5t106 14.5zM282 112q41 0 67 26q5 5 5 10v75q0 8 -8 8q-57 0 -86.5 -23
t-29.5 -51q0 -18 13.5 -31.5t38.5 -13.5z" />
    <glyph glyph-name="ae" unicode="&#xe6;" horiz-adv-x="912" 
d="M617 530q63 0 113 -22t80.5 -59.5t46 -84t15.5 -97.5v-44q0 -8 -8 -8h-328q-7 0 -7 -8q0 -36 27 -60.5t61 -24.5q63 0 93 43q3 7 10 5l134 -18q9 -2 6 -9q-22 -63 -82 -104.5t-152 -41.5q-61 0 -112 19v-8q0 -8 -8 -8h-144q-8 0 -8 8v41q0 5 -3 6.5t-6 -2.5
q-52 -56 -130 -56q-70 0 -112.5 39.5t-42.5 105.5q0 65 42.5 108t103.5 60.5t140 20.5q8 0 8 9q0 65 -84 65q-29 0 -71 -9t-68 -22q-8 -5 -10 4l-17 89q-1 5 4 10q38 24 93 38.5t106 14.5q102 0 153 -51q65 51 157 51zM694 320q8 0 8 7q0 36 -22 62t-63 26
q-39 0 -62.5 -26.5t-24.5 -59.5q0 -9 6 -9h158zM354 148v75q0 8 -8 8q-57 0 -86.5 -23t-29.5 -51q0 -18 13.5 -31.5t38.5 -13.5q41 0 67 26q5 5 5 10z" />
    <glyph glyph-name="ccedilla" unicode="&#xe7;" horiz-adv-x="584" 
d="M461 185l80 -72q5 -5 1 -11q-29 -43 -77 -71.5t-108 -32.5l-7 -33q-2 -9 7 -9q29 -3 49.5 -22.5t20.5 -52.5q0 -37 -40 -64.5t-84 -27.5q-49 0 -82 21q-5 2 -5 9v42q0 4 2.5 6t6.5 1q29 -9 53 -9q22 0 35 8.5t13 21.5q0 36 -48 36q-23 0 -41 -9q-5 -2 -7.5 0t-0.5 7
l32 83q-89 23 -145 94.5t-56 163.5q0 111 79.5 188.5t196.5 77.5q67 0 120.5 -29t85.5 -76q4 -6 -1 -11l-80 -73q-8 -6 -11 1q-32 63 -104 63q-53 0 -89.5 -40t-36.5 -101t37 -101.5t89 -40.5q69 0 104 62q4 6 11 1z" />
    <glyph glyph-name="egrave" unicode="&#xe8;" horiz-adv-x="612" 
d="M293 749l74 -137q3 -5 0.5 -8.5t-8.5 -3.5h-98q-8 0 -12 6l-101 138q-4 4 -2 8t8 4h127q9 0 12 -7zM572 267v-44q0 -8 -8 -8h-328q-7 0 -7 -8q0 -36 27 -60.5t61 -24.5q63 0 93 43q3 7 10 5l134 -18q9 -2 6 -9q-22 -63 -82 -104.5t-152 -41.5q-127 0 -196.5 75.5
t-69.5 191.5q0 113 71 189.5t186 76.5q63 0 113 -22t80.5 -59.5t46 -84t15.5 -97.5zM317 415q-39 0 -62.5 -26.5t-24.5 -59.5q0 -9 6 -9h158q8 0 8 7q0 36 -22 62t-63 26z" />
    <glyph glyph-name="eacute" unicode="&#xe9;" horiz-adv-x="612" 
d="M351 749q3 7 12 7h127q6 0 8 -4t-2 -8l-101 -138q-4 -6 -12 -6h-98q-6 0 -8.5 3.5t0.5 8.5zM572 267v-44q0 -8 -8 -8h-328q-7 0 -7 -8q0 -36 27 -60.5t61 -24.5q63 0 93 43q3 7 10 5l134 -18q9 -2 6 -9q-22 -63 -82 -104.5t-152 -41.5q-127 0 -196.5 75.5t-69.5 191.5
q0 113 71 189.5t186 76.5q63 0 113 -22t80.5 -59.5t46 -84t15.5 -97.5zM317 415q-39 0 -62.5 -26.5t-24.5 -59.5q0 -9 6 -9h158q8 0 8 7q0 36 -22 62t-63 26z" />
    <glyph glyph-name="ecircumflex" unicode="&#xea;" horiz-adv-x="612" 
d="M177 685q0 7 8 12l125 61q7 4 14 0l125 -61q8 -5 8 -12v-88q0 -13 -12 -8l-121 59q-7 4 -14 0l-121 -59q-12 -5 -12 8v88zM572 267v-44q0 -8 -8 -8h-328q-7 0 -7 -8q0 -36 27 -60.5t61 -24.5q63 0 93 43q3 7 10 5l134 -18q9 -2 6 -9q-22 -63 -82 -104.5t-152 -41.5
q-127 0 -196.5 75.5t-69.5 191.5q0 113 71 189.5t186 76.5q63 0 113 -22t80.5 -59.5t46 -84t15.5 -97.5zM317 415q-39 0 -62.5 -26.5t-24.5 -59.5q0 -9 6 -9h158q8 0 8 7q0 36 -22 62t-63 26z" />
    <glyph glyph-name="edieresis" unicode="&#xeb;" horiz-adv-x="612" 
d="M216 599q-33 0 -56.5 23.5t-23.5 56.5t23.5 56.5t56.5 23.5t56.5 -23.5t23.5 -56.5t-23.5 -56.5t-56.5 -23.5zM425 599q-33 0 -56.5 23.5t-23.5 56.5t23.5 56.5t56.5 23.5t56.5 -23.5t23.5 -56.5t-23.5 -56.5t-56.5 -23.5zM572 267v-44q0 -8 -8 -8h-328q-7 0 -7 -8
q0 -36 27 -60.5t61 -24.5q63 0 93 43q3 7 10 5l134 -18q9 -2 6 -9q-22 -63 -82 -104.5t-152 -41.5q-127 0 -196.5 75.5t-69.5 191.5q0 113 71 189.5t186 76.5q63 0 113 -22t80.5 -59.5t46 -84t15.5 -97.5zM317 415q-39 0 -62.5 -26.5t-24.5 -59.5q0 -9 6 -9h158q8 0 8 7
q0 36 -22 62t-63 26z" />
    <glyph glyph-name="igrave" unicode="&#xec;" horiz-adv-x="280" 
d="M126 746l74 -137q3 -5 0.5 -8.5t-8.5 -3.5h-98q-8 0 -12 6l-101 138q-4 5 -2 8.5t8 3.5h127q9 0 12 -7zM70 519q0 8 8 8h144q8 0 8 -8v-511q0 -8 -8 -8h-144q-8 0 -8 8v511z" />
    <glyph glyph-name="iacute" unicode="&#xed;" horiz-adv-x="280" 
d="M184 746q3 7 12 7h127q6 0 8 -3.5t-2 -8.5l-101 -138q-4 -6 -12 -6h-98q-6 0 -8.5 3.5t0.5 8.5zM70 519q0 8 8 8h144q8 0 8 -8v-511q0 -8 -8 -8h-144q-8 0 -8 8v511z" />
    <glyph glyph-name="icircumflex" unicode="&#xee;" horiz-adv-x="280" 
d="M10 682q0 7 8 12l125 61q7 3 14 0l125 -61q8 -5 8 -12v-88q0 -13 -12 -8l-121 59q-7 3 -14 0l-121 -59q-12 -5 -12 8v88zM70 519q0 8 8 8h144q8 0 8 -8v-511q0 -8 -8 -8h-144q-8 0 -8 8v511z" />
    <glyph glyph-name="idieresis" unicode="&#xef;" horiz-adv-x="280" 
d="M49 596q-33 0 -56.5 23.5t-23.5 56.5t23.5 56.5t56.5 23.5t56.5 -23.5t23.5 -56.5t-23.5 -56.5t-56.5 -23.5zM258 596q-33 0 -56.5 23.5t-23.5 56.5t23.5 56.5t56.5 23.5t56.5 -23.5t23.5 -56.5t-23.5 -56.5t-56.5 -23.5zM70 519q0 8 8 8h144q8 0 8 -8v-511q0 -8 -8 -8
h-144q-8 0 -8 8v511z" />
    <glyph glyph-name="eth" unicode="&#xf0;" horiz-adv-x="700" 
d="M474 680q166 -107 166 -343v-39q0 -138 -79 -219.5t-202 -81.5q-119 0 -194 68.5t-75 175.5q0 97 67.5 170.5t181.5 73.5q54 0 91.5 -23t52.5 -55q7 -12 7 3q0 103 -106 152l-31 -40q-6 -7 -11 -7h-87q-6 0 -8 3.5t1 8.5l48 63q-61 13 -137 13q-11 0 -9 11l20 130
q1 9 10 9q121 0 215 -35l21 28q6 7 11 7h87q6 0 8 -3.5t-1 -8.5zM364 147q46 0 76 25.5t30 68.5q0 41 -30.5 67.5t-75.5 26.5t-74.5 -26.5t-29.5 -67.5q0 -43 29 -68.5t75 -25.5z" />
    <glyph glyph-name="ntilde" unicode="&#xf1;" horiz-adv-x="652" 
d="M404 586q-35 0 -61.5 17t-48 33.5t-41.5 16.5q-42 0 -62 -41q-3 -6 -10 -5l-55 16q-8 2 -6 9q39 146 133 146q32 0 59 -17t49 -33.5t43 -16.5q47 0 62 40q3 7 10 6l54 -16q2 0 4 -1t2.5 -2t0.5 -2q-21 -77 -47 -109q-34 -41 -86 -41zM78 0q-8 0 -8 8v511q0 8 8 8h144
q8 0 8 -8v-61q0 -3 1.5 -5t3.5 -1.5t4 3.5q62 75 152 75q102 0 156.5 -65.5t54.5 -172.5v-284q0 -8 -8 -8h-144q-8 0 -8 8v284q0 113 -102 113q-42 0 -72 -29t-38 -74v-294q0 -8 -8 -8h-144z" />
    <glyph glyph-name="ograve" unicode="&#xf2;" horiz-adv-x="653" 
d="M309 749l74 -137q3 -5 0.5 -8.5t-8.5 -3.5h-98q-8 0 -12 6l-101 138q-4 4 -2 8t8 4h127q9 0 12 -7zM336 -3q-123 0 -199.5 77t-76.5 190t76.5 189.5t199.5 76.5t200 -76.5t77 -189.5t-77 -190t-200 -77zM336 405q-55 0 -85.5 -39.5t-30.5 -101.5t30.5 -102t85.5 -40
t86 40t31 102t-31 101.5t-86 39.5z" />
    <glyph glyph-name="oacute" unicode="&#xf3;" horiz-adv-x="653" 
d="M367 749q3 7 12 7h127q6 0 8 -4t-2 -8l-101 -138q-4 -6 -12 -6h-98q-6 0 -8.5 3.5t0.5 8.5zM336 -3q-123 0 -199.5 77t-76.5 190t76.5 189.5t199.5 76.5t200 -76.5t77 -189.5t-77 -190t-200 -77zM336 405q-55 0 -85.5 -39.5t-30.5 -101.5t30.5 -102t85.5 -40t86 40
t31 102t-31 101.5t-86 39.5z" />
    <glyph glyph-name="ocircumflex" unicode="&#xf4;" horiz-adv-x="653" 
d="M193 685q0 7 8 12l125 61q7 4 14 0l125 -61q8 -5 8 -12v-88q0 -13 -12 -8l-121 59q-7 4 -14 0l-121 -59q-12 -5 -12 8v88zM336 -3q-123 0 -199.5 77t-76.5 190t76.5 189.5t199.5 76.5t200 -76.5t77 -189.5t-77 -190t-200 -77zM336 405q-55 0 -85.5 -39.5t-30.5 -101.5
t30.5 -102t85.5 -40t86 40t31 102t-31 101.5t-86 39.5z" />
    <glyph glyph-name="otilde" unicode="&#xf5;" horiz-adv-x="653" 
d="M399 586q-35 0 -61.5 17t-48 33.5t-41.5 16.5q-42 0 -62 -41q-3 -6 -10 -5l-55 16q-8 2 -6 9q39 146 133 146q32 0 59 -17t49 -33.5t43 -16.5q47 0 62 40q3 7 10 6l54 -16q2 0 4 -1t2.5 -2t0.5 -2q-21 -77 -47 -109q-34 -41 -86 -41zM336 -3q-123 0 -199.5 77t-76.5 190
t76.5 189.5t199.5 76.5t200 -76.5t77 -189.5t-77 -190t-200 -77zM336 405q-55 0 -85.5 -39.5t-30.5 -101.5t30.5 -102t85.5 -40t86 40t31 102t-31 101.5t-86 39.5z" />
    <glyph glyph-name="odieresis" unicode="&#xf6;" horiz-adv-x="653" 
d="M232 599q-33 0 -56.5 23.5t-23.5 56.5t23.5 56.5t56.5 23.5t56.5 -23.5t23.5 -56.5t-23.5 -56.5t-56.5 -23.5zM441 599q-33 0 -56.5 23.5t-23.5 56.5t23.5 56.5t56.5 23.5t56.5 -23.5t23.5 -56.5t-23.5 -56.5t-56.5 -23.5zM336 -3q-123 0 -199.5 77t-76.5 190t76.5 189.5
t199.5 76.5t200 -76.5t77 -189.5t-77 -190t-200 -77zM336 405q-55 0 -85.5 -39.5t-30.5 -101.5t30.5 -102t85.5 -40t86 40t31 102t-31 101.5t-86 39.5z" />
    <glyph glyph-name="divide" unicode="&#xf7;" horiz-adv-x="640" 
d="M325 480q-33 0 -56.5 23.5t-23.5 56.5t23.5 56.5t56.5 23.5t56.5 -23.5t23.5 -56.5t-23.5 -56.5t-56.5 -23.5zM550 275q0 -10 -10 -10h-430q-10 0 -10 10v130q0 10 10 10h430q10 0 10 -10v-130zM325 40q-33 0 -56.5 23.5t-23.5 56.5t23.5 56.5t56.5 23.5t56.5 -23.5
t23.5 -56.5t-23.5 -56.5t-56.5 -23.5z" />
    <glyph glyph-name="oslash" unicode="&#xf8;" horiz-adv-x="633" 
d="M486 492q60 -35 93.5 -95.5t33.5 -132.5q0 -113 -77 -190t-200 -77q-44 0 -80 10l-19 -40q-3 -7 -11 -7h-67q-12 0 -7 12l31 66q-58 35 -90.5 95t-32.5 131q0 113 76.5 189.5t199.5 76.5q42 0 76 -9l19 39q3 7 11 7h67q12 0 7 -12zM220 264q0 -56 25 -95l112 234
q-14 2 -21 2q-55 0 -85.5 -39.5t-30.5 -101.5zM336 122q55 0 86 40t31 102q0 60 -29 98l-112 -238q14 -2 24 -2z" />
    <glyph glyph-name="ugrave" unicode="&#xf9;" horiz-adv-x="652" 
d="M307 746l74 -137q3 -5 0.5 -8.5t-8.5 -3.5h-98q-8 0 -12 6l-101 138q-4 5 -2 8.5t8 3.5h127q9 0 12 -7zM594 527q8 0 8 -8v-511q0 -8 -8 -8h-144q-8 0 -8 8v61q0 3 -1.5 5t-3.5 1.5t-4 -3.5q-62 -75 -152 -75q-102 0 -156.5 65.5t-54.5 172.5v284q0 8 8 8h144q8 0 8 -8
v-284q0 -113 102 -113q42 0 72 29t38 74v294q0 8 8 8h144z" />
    <glyph glyph-name="uacute" unicode="&#xfa;" horiz-adv-x="652" 
d="M365 746q3 7 12 7h127q6 0 8 -3.5t-2 -8.5l-101 -138q-4 -6 -12 -6h-98q-6 0 -8.5 3.5t0.5 8.5zM594 527q8 0 8 -8v-511q0 -8 -8 -8h-144q-8 0 -8 8v61q0 3 -1.5 5t-3.5 1.5t-4 -3.5q-62 -75 -152 -75q-102 0 -156.5 65.5t-54.5 172.5v284q0 8 8 8h144q8 0 8 -8v-284
q0 -113 102 -113q42 0 72 29t38 74v294q0 8 8 8h144z" />
    <glyph glyph-name="ucircumflex" unicode="&#xfb;" horiz-adv-x="652" 
d="M191 682q0 7 8 12l125 61q7 3 14 0l125 -61q8 -5 8 -12v-88q0 -13 -12 -8l-121 59q-7 3 -14 0l-121 -59q-12 -5 -12 8v88zM594 527q8 0 8 -8v-511q0 -8 -8 -8h-144q-8 0 -8 8v61q0 3 -1.5 5t-3.5 1.5t-4 -3.5q-62 -75 -152 -75q-102 0 -156.5 65.5t-54.5 172.5v284
q0 8 8 8h144q8 0 8 -8v-284q0 -113 102 -113q42 0 72 29t38 74v294q0 8 8 8h144z" />
    <glyph glyph-name="udieresis" unicode="&#xfc;" horiz-adv-x="652" 
d="M230 596q-33 0 -56.5 23.5t-23.5 56.5t23.5 56.5t56.5 23.5t56.5 -23.5t23.5 -56.5t-23.5 -56.5t-56.5 -23.5zM439 596q-33 0 -56.5 23.5t-23.5 56.5t23.5 56.5t56.5 23.5t56.5 -23.5t23.5 -56.5t-23.5 -56.5t-56.5 -23.5zM594 527q8 0 8 -8v-511q0 -8 -8 -8h-144
q-8 0 -8 8v61q0 3 -1.5 5t-3.5 1.5t-4 -3.5q-62 -75 -152 -75q-102 0 -156.5 65.5t-54.5 172.5v284q0 8 8 8h144q8 0 8 -8v-284q0 -113 102 -113q42 0 72 29t38 74v294q0 8 8 8h144z" />
    <glyph glyph-name="yacute" unicode="&#xfd;" horiz-adv-x="638" 
d="M376 746q3 7 12 7h127q6 0 8 -3.5t-2 -8.5l-101 -138q-4 -6 -12 -6h-98q-6 0 -8.5 3.5t0.5 8.5zM440 521q2 6 9 6h152q10 0 6 -9l-201 -528q-40 -105 -85.5 -152.5t-121.5 -47.5q-36 0 -67.5 16.5t-49.5 45.5q-3 6 -2 11l17 87q2 11 10 3q31 -28 61 -28q38 0 59 21t39 65
q2 4 0 10l-205 497q-3 9 6 9h152q7 0 9 -6l102 -297q1 -3 3 -4.5t4 0t3 4.5z" />
    <glyph glyph-name="thorn" unicode="&#xfe;" horiz-adv-x="634" 
d="M70 -199v944q0 8 8 8h144q8 0 8 -8v-273q0 -3 1.5 -5t4 -1.5t4.5 3.5q54 61 129 61q106 0 165.5 -79t59.5 -187t-59.5 -187.5t-165.5 -79.5q-75 0 -129 61q-2 3 -4.5 3.5t-4 -1.5t-1.5 -5v-254q0 -8 -8 -8h-144q-8 0 -8 8zM230 180q0 -4 3 -10q36 -48 92 -48
q40 0 66 24.5t34.5 54.5t8.5 63t-8.5 62.5t-34.5 54t-66 24.5q-56 0 -92 -49q-3 -4 -3 -10v-166z" />
    <glyph glyph-name="ydieresis" unicode="&#xff;" horiz-adv-x="638" 
d="M241 596q-33 0 -56.5 23.5t-23.5 56.5t23.5 56.5t56.5 23.5t56.5 -23.5t23.5 -56.5t-23.5 -56.5t-56.5 -23.5zM450 596q-33 0 -56.5 23.5t-23.5 56.5t23.5 56.5t56.5 23.5t56.5 -23.5t23.5 -56.5t-23.5 -56.5t-56.5 -23.5zM440 521q2 6 9 6h152q10 0 6 -9l-201 -528
q-40 -105 -85.5 -152.5t-121.5 -47.5q-36 0 -67.5 16.5t-49.5 45.5q-3 6 -2 11l17 87q2 11 10 3q31 -28 61 -28q38 0 59 21t39 65q2 4 0 10l-205 497q-3 9 6 9h152q7 0 9 -6l102 -297q1 -3 3 -4.5t4 0t3 4.5z" />
    <glyph glyph-name="Amacron" unicode="&#x100;" horiz-adv-x="879" 
d="M304 891q0 8 8 8h264q8 0 8 -8v-94q0 -8 -8 -8h-264q-8 0 -8 8v94zM399 706q3 7 12 7h68q9 0 12 -7l327 -694q5 -12 -7 -12h-167q-9 0 -12 7l-45 95q-3 7 -11 7h-263q-9 0 -12 -7l-45 -95q-3 -7 -11 -7h-167q-12 0 -7 12zM372 271q-5 -12 7 -12h131q12 0 7 12l-65 149
q-2 5 -7 5t-7 -5z" />
    <glyph glyph-name="amacron" unicode="&#x101;" horiz-adv-x="564" 
d="M167 708q0 8 8 8h264q8 0 8 -8v-94q0 -8 -8 -8h-264q-8 0 -8 8v94zM307 530q55 0 95 -15.5t61 -38t33 -57.5t15 -63t3 -67v-281q0 -8 -8 -8h-144q-8 0 -8 8v41q0 5 -3 6.5t-6 -2.5q-52 -56 -130 -56q-70 0 -112.5 39.5t-42.5 105.5q0 65 42.5 108t103.5 60.5t140 20.5
q8 0 8 9q0 65 -84 65q-29 0 -71 -9t-68 -22q-8 -5 -10 4l-17 89q-1 5 4 10q38 24 93 38.5t106 14.5zM282 112q41 0 67 26q5 5 5 10v75q0 8 -8 8q-57 0 -86.5 -23t-29.5 -51q0 -18 13.5 -31.5t38.5 -13.5z" />
    <glyph glyph-name="Abreve" unicode="&#x102;" horiz-adv-x="879" 
d="M304 931q0 8 8 8h54q8 0 8 -8q4 -25 24 -39t46 -14t46 14t24 39q0 8 8 8h54q8 0 8 -8q-3 -70 -43.5 -106.5t-96.5 -36.5t-96.5 37t-43.5 106zM399 706q3 7 12 7h68q9 0 12 -7l327 -694q5 -12 -7 -12h-167q-9 0 -12 7l-45 95q-3 7 -11 7h-263q-9 0 -12 -7l-45 -95
q-3 -7 -11 -7h-167q-12 0 -7 12zM372 271q-5 -12 7 -12h131q12 0 7 12l-65 149q-2 5 -7 5t-7 -5z" />
    <glyph glyph-name="abreve" unicode="&#x103;" horiz-adv-x="564" 
d="M167 748q0 8 8 8h54q8 0 8 -8q4 -25 24 -39t46 -14t46 14t24 39q0 8 8 8h54q8 0 8 -8q-3 -70 -43.5 -106.5t-96.5 -36.5t-96.5 37t-43.5 106zM307 530q55 0 95 -15.5t61 -38t33 -57.5t15 -63t3 -67v-281q0 -8 -8 -8h-144q-8 0 -8 8v41q0 5 -3 6.5t-6 -2.5
q-52 -56 -130 -56q-70 0 -112.5 39.5t-42.5 105.5q0 65 42.5 108t103.5 60.5t140 20.5q8 0 8 9q0 65 -84 65q-29 0 -71 -9t-68 -22q-8 -5 -10 4l-17 89q-1 5 4 10q38 24 93 38.5t106 14.5zM282 112q41 0 67 26q5 5 5 10v75q0 8 -8 8q-57 0 -86.5 -23t-29.5 -51
q0 -18 13.5 -31.5t38.5 -13.5z" />
    <glyph glyph-name="Aogonek" unicode="&#x104;" horiz-adv-x="879" 
d="M782 0q-76 -43 -76 -90q0 -50 48 -50q24 0 53 9q4 1 6.5 -1t2.5 -6v-42q0 -6 -3 -8q-31 -22 -84 -22t-88.5 24t-35.5 68q0 81 106 118h-67q-9 0 -12 7l-45 95q-3 7 -11 7h-263q-9 0 -12 -7l-45 -95q-3 -7 -11 -7h-167q-12 0 -7 12l328 694q3 7 12 7h68q9 0 12 -7
l327 -694q5 -12 -7 -12h-29zM510 259q12 0 7 12l-65 149q-2 5 -7 5t-7 -5l-66 -149q-5 -12 7 -12h131z" />
    <glyph glyph-name="aogonek" unicode="&#x105;" horiz-adv-x="564" 
d="M479 0q-76 -43 -76 -90q0 -50 48 -50q24 0 53 9q4 1 6.5 -1t2.5 -6v-42q0 -6 -3 -8q-31 -22 -84 -22t-88.5 24t-35.5 68q0 81 106 118h-46q-8 0 -8 8v41q0 5 -3 6.5t-6 -2.5q-52 -56 -130 -56q-70 0 -112.5 39.5t-42.5 105.5q0 65 42.5 108t103.5 60.5t140 20.5q8 0 8 9
q0 65 -84 65q-29 0 -71 -9t-68 -22q-8 -5 -10 4l-17 89q-1 5 4 10q38 24 93 38.5t106 14.5q55 0 95 -15.5t61 -38t33 -57.5t15 -63t3 -67v-281q0 -8 -8 -8h-27zM354 148v75q0 8 -8 8q-57 0 -86.5 -23t-29.5 -51q0 -18 13.5 -31.5t38.5 -13.5q41 0 67 26q5 5 5 10z" />
    <glyph glyph-name="Cacute" unicode="&#x106;" horiz-adv-x="787" 
d="M504 936q3 7 12 7h127q6 0 8 -3.5t-2 -8.5l-101 -138q-4 -6 -12 -6h-98q-6 0 -8.5 3.5t0.5 8.5zM612 204q8 8 14 0l88 -96q8 -8 0 -14q-49 -45 -105 -71t-139 -26q-154 0 -262 106t-108 255q0 148 108 253t262 105q136 0 244 -96q8 -6 0 -14l-88 -96q-6 -8 -14 0
q-47 56 -142 56q-74 0 -137 -55t-63 -153q0 -99 63 -155t137 -56q46 0 83.5 16t58.5 41z" />
    <glyph glyph-name="cacute" unicode="&#x107;" horiz-adv-x="584" 
d="M370 749q3 7 12 7h127q6 0 8 -4t-2 -8l-101 -138q-4 -6 -12 -6h-98q-6 0 -8.5 3.5t0.5 8.5zM541 113q5 -5 1 -11q-32 -46 -86 -75.5t-120 -29.5q-117 0 -196.5 77.5t-79.5 189.5q0 111 79.5 188.5t196.5 77.5q67 0 120.5 -29t85.5 -76q4 -6 -1 -11l-80 -73q-8 -6 -11 1
q-32 63 -104 63q-53 0 -89.5 -40t-36.5 -101t37 -101.5t89 -40.5q69 0 104 62q4 6 11 1z" />
    <glyph glyph-name="Cdotaccent" unicode="&#x10a;" horiz-adv-x="787" 
d="M470 786q-33 0 -56.5 23.5t-23.5 56.5t23.5 56.5t56.5 23.5t56.5 -23.5t23.5 -56.5t-23.5 -56.5t-56.5 -23.5zM612 204q8 8 14 0l88 -96q8 -8 0 -14q-49 -45 -105 -71t-139 -26q-154 0 -262 106t-108 255q0 148 108 253t262 105q136 0 244 -96q8 -6 0 -14l-88 -96
q-6 -8 -14 0q-47 56 -142 56q-74 0 -137 -55t-63 -153q0 -99 63 -155t137 -56q46 0 83.5 16t58.5 41z" />
    <glyph glyph-name="cdotaccent" unicode="&#x10b;" horiz-adv-x="584" 
d="M336 599q-33 0 -56.5 23.5t-23.5 56.5t23.5 56.5t56.5 23.5t56.5 -23.5t23.5 -56.5t-23.5 -56.5t-56.5 -23.5zM541 113q5 -5 1 -11q-32 -46 -86 -75.5t-120 -29.5q-117 0 -196.5 77.5t-79.5 189.5q0 111 79.5 188.5t196.5 77.5q67 0 120.5 -29t85.5 -76q4 -6 -1 -11
l-80 -73q-8 -6 -11 1q-32 63 -104 63q-53 0 -89.5 -40t-36.5 -101t37 -101.5t89 -40.5q69 0 104 62q4 6 11 1z" />
    <glyph glyph-name="Ccaron" unicode="&#x10c;" horiz-adv-x="787" 
d="M330 849v88q0 13 12 8l121 -59q7 -4 14 0l121 59q12 5 12 -8v-88q0 -7 -8 -12l-125 -61q-7 -4 -14 0l-125 61q-8 5 -8 12zM612 204q8 8 14 0l88 -96q8 -8 0 -14q-49 -45 -105 -71t-139 -26q-154 0 -262 106t-108 255q0 148 108 253t262 105q136 0 244 -96q8 -6 0 -14
l-88 -96q-6 -8 -14 0q-47 56 -142 56q-74 0 -137 -55t-63 -153q0 -99 63 -155t137 -56q46 0 83.5 16t58.5 41z" />
    <glyph glyph-name="ccaron" unicode="&#x10d;" horiz-adv-x="584" 
d="M196 662v88q0 13 12 8l121 -59q7 -3 14 0l121 59q12 5 12 -8v-88q0 -7 -8 -12l-125 -61q-7 -3 -14 0l-125 61q-8 5 -8 12zM541 113q5 -5 1 -11q-32 -46 -86 -75.5t-120 -29.5q-117 0 -196.5 77.5t-79.5 189.5q0 111 79.5 188.5t196.5 77.5q67 0 120.5 -29t85.5 -76
q4 -6 -1 -11l-80 -73q-8 -6 -11 1q-32 63 -104 63q-53 0 -89.5 -40t-36.5 -101t37 -101.5t89 -40.5q69 0 104 62q4 6 11 1z" />
    <glyph glyph-name="Dcaron" unicode="&#x10e;" horiz-adv-x="796" 
d="M225 845v88q0 13 12 8l121 -59q7 -4 14 0l121 59q12 5 12 -8v-88q0 -7 -8 -12l-125 -61q-7 -4 -14 0l-125 61q-8 5 -8 12zM736 356q0 -151 -108 -253.5t-263 -102.5h-255q-10 0 -10 10v693q0 10 10 10h255q156 0 263.5 -102.5t107.5 -254.5zM566 356q0 92 -59 149.5
t-132 57.5h-95q-10 0 -10 -10v-394q0 -10 10 -10h95q73 0 132 57.5t59 149.5z" />
    <glyph glyph-name="dcaron" unicode="&#x10f;" horiz-adv-x="634" 
d="M576 753q8 0 8 -8v-737q0 -8 -8 -8h-144q-8 0 -8 8v47q0 3 -1.5 5t-4 1.5t-4.5 -3.5q-54 -61 -129 -61q-106 0 -165.5 79.5t-59.5 187.5t59.5 187t165.5 79q75 0 129 -61q2 -3 4.5 -3.5t4 1.5t1.5 5v273q0 8 8 8h144zM715 744q2 9 11 9h129q11 0 8 -11l-86 -246
q-3 -8 -12 -8h-100q-12 0 -8 11zM329 122q56 0 92 49q3 5 3 9v167q0 5 -3 9q-36 49 -92 49q-40 0 -66 -24.5t-34.5 -54t-8.5 -62.5t8.5 -63t34.5 -54.5t66 -24.5z" />
    <glyph glyph-name="Dcroat" unicode="&#x110;" horiz-adv-x="956" 
d="M525 713q156 0 263.5 -102.5t107.5 -254.5q0 -151 -108 -253.5t-263 -102.5h-255q-10 0 -10 10v256h-120q-10 0 -10 10v130q0 10 10 10h120v287q0 10 10 10h255zM535 149q73 0 132 57.5t59 149.5t-59 149.5t-132 57.5h-95q-10 0 -10 -10v-137h140q10 0 10 -10v-130
q0 -10 -10 -10h-140v-107q0 -10 10 -10h95z" />
    <glyph glyph-name="dcroat" unicode="&#x111;" horiz-adv-x="634" 
d="M652 681q10 0 10 -10v-70q0 -10 -10 -10h-68v-583q0 -8 -8 -8h-144q-8 0 -8 8v47q0 3 -1.5 5t-4 1.5t-4.5 -3.5q-54 -61 -129 -61q-106 0 -165.5 79.5t-59.5 187.5t59.5 187t165.5 79q75 0 129 -61q2 -3 4.5 -3.5t4 1.5t1.5 5v119h-182q-10 0 -10 10v70q0 10 10 10h182
v64q0 8 8 8h144q8 0 8 -8v-64h68zM424 180v167q0 5 -3 9q-36 49 -92 49q-40 0 -66 -24.5t-34.5 -54t-8.5 -62.5t8.5 -63t34.5 -54.5t66 -24.5q56 0 92 49q3 5 3 9z" />
    <glyph glyph-name="Emacron" unicode="&#x112;" horiz-adv-x="619" 
d="M177 891q0 8 8 8h264q8 0 8 -8v-94q0 -8 -8 -8h-264q-8 0 -8 8v94zM539 150q10 0 10 -10v-130q0 -10 -10 -10h-439q-10 0 -10 10v693q0 10 10 10h429q10 0 10 -10v-130q0 -10 -10 -10h-259q-10 0 -10 -10v-117q0 -10 10 -10h187q10 0 10 -10v-130q0 -10 -10 -10h-187
q-10 0 -10 -10v-106q0 -10 10 -10h269z" />
    <glyph glyph-name="emacron" unicode="&#x113;" horiz-adv-x="612" 
d="M177 708q0 8 8 8h264q8 0 8 -8v-94q0 -8 -8 -8h-264q-8 0 -8 8v94zM572 267v-44q0 -8 -8 -8h-328q-7 0 -7 -8q0 -36 27 -60.5t61 -24.5q63 0 93 43q3 7 10 5l134 -18q9 -2 6 -9q-22 -63 -82 -104.5t-152 -41.5q-127 0 -196.5 75.5t-69.5 191.5q0 113 71 189.5t186 76.5
q63 0 113 -22t80.5 -59.5t46 -84t15.5 -97.5zM317 415q-39 0 -62.5 -26.5t-24.5 -59.5q0 -9 6 -9h158q8 0 8 7q0 36 -22 62t-63 26z" />
    <glyph glyph-name="Edotaccent" unicode="&#x116;" horiz-adv-x="619" 
d="M317 782q-33 0 -56.5 23.5t-23.5 56.5t23.5 56.5t56.5 23.5t56.5 -23.5t23.5 -56.5t-23.5 -56.5t-56.5 -23.5zM539 150q10 0 10 -10v-130q0 -10 -10 -10h-439q-10 0 -10 10v693q0 10 10 10h429q10 0 10 -10v-130q0 -10 -10 -10h-259q-10 0 -10 -10v-117q0 -10 10 -10h187
q10 0 10 -10v-130q0 -10 -10 -10h-187q-10 0 -10 -10v-106q0 -10 10 -10h269z" />
    <glyph glyph-name="edotaccent" unicode="&#x117;" horiz-adv-x="612" 
d="M317 599q-33 0 -56.5 23.5t-23.5 56.5t23.5 56.5t56.5 23.5t56.5 -23.5t23.5 -56.5t-23.5 -56.5t-56.5 -23.5zM572 267v-44q0 -8 -8 -8h-328q-7 0 -7 -8q0 -36 27 -60.5t61 -24.5q63 0 93 43q3 7 10 5l134 -18q9 -2 6 -9q-22 -63 -82 -104.5t-152 -41.5
q-127 0 -196.5 75.5t-69.5 191.5q0 113 71 189.5t186 76.5q63 0 113 -22t80.5 -59.5t46 -84t15.5 -97.5zM317 415q-39 0 -62.5 -26.5t-24.5 -59.5q0 -9 6 -9h158q8 0 8 7q0 36 -22 62t-63 26z" />
    <glyph glyph-name="Eogonek" unicode="&#x118;" horiz-adv-x="619" 
d="M539 150q10 0 10 -10v-130q0 -10 -10 -10h-85q-76 -43 -76 -90q0 -50 48 -50q24 0 53 9q4 1 6.5 -1t2.5 -6v-42q0 -6 -3 -8q-31 -22 -84 -22t-88.5 24t-35.5 68q0 81 106 118h-283q-10 0 -10 10v693q0 10 10 10h429q10 0 10 -10v-130q0 -10 -10 -10h-259q-10 0 -10 -10
v-117q0 -10 10 -10h187q10 0 10 -10v-130q0 -10 -10 -10h-187q-10 0 -10 -10v-106q0 -10 10 -10h269z" />
    <glyph glyph-name="eogonek" unicode="&#x119;" horiz-adv-x="612" 
d="M317 530q63 0 113 -22t80.5 -59.5t46 -84t15.5 -97.5v-44q0 -8 -8 -8h-328q-7 0 -7 -8q0 -36 27 -60.5t61 -24.5q63 0 93 43q3 7 10 5l134 -18q9 -2 6 -9q-18 -50 -60.5 -87.5t-106.5 -51.5q-52 -36 -52 -75q0 -50 48 -50q24 0 53 9q4 1 6.5 -1t2.5 -6v-42q0 -7 -3 -8
q-31 -22 -84 -22t-88.5 24t-35.5 68q0 61 60 97q-115 8 -177.5 82t-62.5 184q0 113 71 189.5t186 76.5zM394 320q8 0 8 7q0 36 -22 62t-63 26q-39 0 -62.5 -26.5t-24.5 -59.5q0 -9 6 -9h158z" />
    <glyph glyph-name="Ecaron" unicode="&#x11a;" horiz-adv-x="619" 
d="M177 845v88q0 13 12 8l121 -59q7 -4 14 0l121 59q12 5 12 -8v-88q0 -7 -8 -12l-125 -61q-7 -4 -14 0l-125 61q-8 5 -8 12zM539 150q10 0 10 -10v-130q0 -10 -10 -10h-439q-10 0 -10 10v693q0 10 10 10h429q10 0 10 -10v-130q0 -10 -10 -10h-259q-10 0 -10 -10v-117
q0 -10 10 -10h187q10 0 10 -10v-130q0 -10 -10 -10h-187q-10 0 -10 -10v-106q0 -10 10 -10h269z" />
    <glyph glyph-name="ecaron" unicode="&#x11b;" horiz-adv-x="612" 
d="M177 662v88q0 13 12 8l121 -59q7 -3 14 0l121 59q12 5 12 -8v-88q0 -7 -8 -12l-125 -61q-7 -3 -14 0l-125 61q-8 5 -8 12zM572 267v-44q0 -8 -8 -8h-328q-7 0 -7 -8q0 -36 27 -60.5t61 -24.5q63 0 93 43q3 7 10 5l134 -18q9 -2 6 -9q-22 -63 -82 -104.5t-152 -41.5
q-127 0 -196.5 75.5t-69.5 191.5q0 113 71 189.5t186 76.5q63 0 113 -22t80.5 -59.5t46 -84t15.5 -97.5zM317 415q-39 0 -62.5 -26.5t-24.5 -59.5q0 -9 6 -9h158q8 0 8 7q0 36 -22 62t-63 26z" />
    <glyph glyph-name="Gbreve" unicode="&#x11e;" horiz-adv-x="859" 
d="M320 934q0 8 8 8h54q8 0 8 -8q4 -25 24 -39t46 -14t46 14t24 39q0 8 8 8h54q8 0 8 -8q-3 -70 -43.5 -106.5t-96.5 -36.5t-96.5 37t-43.5 106zM789 419q10 0 10 -10v-52q0 -154 -93.5 -257t-246.5 -103q-149 0 -254 105.5t-105 254.5t105.5 254t254.5 105q153 0 257 -98
q7 -7 0 -14l-96 -96q-7 -7 -14 0q-64 58 -147 58q-85 0 -137.5 -60.5t-52.5 -148.5q0 -89 54 -149.5t145 -60.5q76 0 118 40t42 82q0 10 -9 10h-138q-10 0 -10 10v120q0 10 10 10h307z" />
    <glyph glyph-name="gbreve" unicode="&#x11f;" horiz-adv-x="634" 
d="M187 748q0 8 8 8h54q8 0 8 -8q4 -25 24 -39t46 -14t46 14t24 39q0 8 8 8h54q8 0 8 -8q-3 -70 -43.5 -106.5t-96.5 -36.5t-96.5 37t-43.5 106zM576 527q8 0 8 -8v-491q0 -102 -72.5 -170t-178.5 -68q-129 0 -224 54q-7 3 -5 10l17 89q2 10 10 5q78 -33 161 -33
q132 0 132 113v27q0 3 -1.5 5t-4 1.5t-4.5 -3.5q-54 -61 -129 -61q-106 0 -165.5 79.5t-59.5 187.5t59.5 187t165.5 79q75 0 129 -61q2 -3 4.5 -3.5t4 1.5t1.5 5v47q0 8 8 8h144zM329 122q56 0 92 49q3 5 3 9v167q0 5 -3 9q-36 49 -92 49q-40 0 -66 -24.5t-34.5 -54
t-8.5 -62.5t8.5 -63t34.5 -54.5t66 -24.5z" />
    <glyph glyph-name="Gdotaccent" unicode="&#x120;" horiz-adv-x="859" 
d="M460 785q-33 0 -56.5 23.5t-23.5 56.5t23.5 56.5t56.5 23.5t56.5 -23.5t23.5 -56.5t-23.5 -56.5t-56.5 -23.5zM789 419q10 0 10 -10v-52q0 -154 -93.5 -257t-246.5 -103q-149 0 -254 105.5t-105 254.5t105.5 254t254.5 105q153 0 257 -98q7 -7 0 -14l-96 -96q-7 -7 -14 0
q-64 58 -147 58q-85 0 -137.5 -60.5t-52.5 -148.5q0 -89 54 -149.5t145 -60.5q76 0 118 40t42 82q0 10 -9 10h-138q-10 0 -10 10v120q0 10 10 10h307z" />
    <glyph glyph-name="gdotaccent" unicode="&#x121;" horiz-adv-x="634" 
d="M327 599q-33 0 -56.5 23.5t-23.5 56.5t23.5 56.5t56.5 23.5t56.5 -23.5t23.5 -56.5t-23.5 -56.5t-56.5 -23.5zM576 527q8 0 8 -8v-491q0 -102 -72.5 -170t-178.5 -68q-129 0 -224 54q-7 3 -5 10l17 89q2 10 10 5q78 -33 161 -33q132 0 132 113v27q0 3 -1.5 5t-4 1.5
t-4.5 -3.5q-54 -61 -129 -61q-106 0 -165.5 79.5t-59.5 187.5t59.5 187t165.5 79q75 0 129 -61q2 -3 4.5 -3.5t4 1.5t1.5 5v47q0 8 8 8h144zM329 122q56 0 92 49q3 5 3 9v167q0 5 -3 9q-36 49 -92 49q-40 0 -66 -24.5t-34.5 -54t-8.5 -62.5t8.5 -63t34.5 -54.5t66 -24.5z
" />
    <glyph glyph-name="Gcommaaccent" unicode="&#x122;" horiz-adv-x="859" 
d="M789 419q10 0 10 -10v-52q0 -154 -93.5 -257t-246.5 -103q-149 0 -254 105.5t-105 254.5t105.5 254t254.5 105q153 0 257 -98q7 -7 0 -14l-96 -96q-7 -7 -14 0q-64 58 -147 58q-85 0 -137.5 -60.5t-52.5 -148.5q0 -89 54 -149.5t145 -60.5q76 0 118 40t42 82q0 10 -9 10
h-138q-10 0 -10 10v120q0 10 10 10h307zM364 -70q2 9 11 9h129q11 0 8 -11l-86 -246q-3 -8 -12 -8h-100q-12 0 -8 11z" />
    <glyph glyph-name="gcommaaccent" unicode="&#x123;" horiz-adv-x="634" 
d="M382 599q-2 -9 -11 -9h-129q-11 0 -8 11l86 246q3 8 12 8h100q12 0 8 -11zM576 527q8 0 8 -8v-491q0 -102 -72.5 -170t-178.5 -68q-129 0 -224 54q-7 3 -5 10l17 89q2 10 10 5q78 -33 161 -33q132 0 132 113v27q0 3 -1.5 5t-4 1.5t-4.5 -3.5q-54 -61 -129 -61
q-106 0 -165.5 79.5t-59.5 187.5t59.5 187t165.5 79q75 0 129 -61q2 -3 4.5 -3.5t4 1.5t1.5 5v47q0 8 8 8h144zM329 122q56 0 92 49q3 5 3 9v167q0 5 -3 9q-36 49 -92 49q-40 0 -66 -24.5t-34.5 -54t-8.5 -62.5t8.5 -63t34.5 -54.5t66 -24.5z" />
    <glyph glyph-name="Hbar" unicode="&#x126;" horiz-adv-x="816" 
d="M803 626q10 0 10 -10v-70q0 -10 -10 -10h-67v-526q0 -10 -10 -10h-150q-10 0 -10 10v243q0 10 -10 10h-276q-10 0 -10 -10v-243q0 -10 -10 -10h-150q-10 0 -10 10v526h-67q-10 0 -10 10v70q0 10 10 10h67v77q0 10 10 10h150q10 0 10 -10v-77h296v77q0 10 10 10h150
q10 0 10 -10v-77h67zM566 423v113h-296v-113q0 -10 10 -10h276q10 0 10 10z" />
    <glyph glyph-name="hbar" unicode="&#x127;" horiz-adv-x="652" 
d="M391 530q102 0 156.5 -65.5t54.5 -172.5v-284q0 -8 -8 -8h-144q-8 0 -8 8v284q0 56 -27 84.5t-75 28.5q-44 0 -77 -30t-33 -73v-294q0 -8 -8 -8h-144q-8 0 -8 8v570h-45q-10 0 -10 10v70q0 10 10 10h45v77q0 8 8 8h144q8 0 8 -8v-77h205q10 0 10 -10v-70q0 -10 -10 -10
h-205v-120q0 -3 1.5 -5t3.5 -1.5t4 3.5q62 75 152 75z" />
    <glyph glyph-name="Imacron" unicode="&#x12a;" horiz-adv-x="474" 
d="M102 891q0 8 8 8h264q8 0 8 -8v-94q0 -8 -8 -8h-264q-8 0 -8 8v94zM404 573q0 -10 -10 -10h-52q-10 0 -10 -10v-393q0 -10 10 -10h52q10 0 10 -10v-130q0 -10 -10 -10h-294q-10 0 -10 10v130q0 10 10 10h52q10 0 10 10v393q0 10 -10 10h-52q-10 0 -10 10v130q0 10 10 10
h294q10 0 10 -10v-130z" />
    <glyph glyph-name="imacron" unicode="&#x12b;" horiz-adv-x="280" 
d="M10 705q0 8 8 8h264q8 0 8 -8v-94q0 -8 -8 -8h-264q-8 0 -8 8v94zM70 519q0 8 8 8h144q8 0 8 -8v-511q0 -8 -8 -8h-144q-8 0 -8 8v511z" />
    <glyph glyph-name="Iogonek" unicode="&#x12e;" horiz-adv-x="474" 
d="M342 563q-10 0 -10 -10v-393q0 -10 10 -10h52q10 0 10 -10v-130q0 -10 -10 -10h-26q-76 -43 -76 -90q0 -50 48 -50q24 0 53 9q4 1 6.5 -1t2.5 -6v-42q0 -6 -3 -8q-31 -22 -84 -22t-88.5 24t-35.5 68q0 81 106 118h-197q-10 0 -10 10v130q0 10 10 10h52q10 0 10 10v393
q0 10 -10 10h-52q-10 0 -10 10v130q0 10 10 10h294q10 0 10 -10v-130q0 -10 -10 -10h-52z" />
    <glyph glyph-name="iogonek" unicode="&#x12f;" horiz-adv-x="280" 
d="M150 596q-33 0 -56.5 23.5t-23.5 56.5t23.5 56.5t56.5 23.5t56.5 -23.5t23.5 -56.5t-23.5 -56.5t-56.5 -23.5zM308 -123q4 1 6.5 -1t2.5 -6v-42q0 -6 -3 -8q-31 -22 -84 -22t-88.5 24t-35.5 68q0 72 86 110h-114q-8 0 -8 8v511q0 8 8 8h144q8 0 8 -8v-509h57
q-80 -44 -80 -92q0 -50 48 -50q24 0 53 9z" />
    <glyph glyph-name="Idotaccent" unicode="&#x130;" horiz-adv-x="474" 
d="M242 782q-33 0 -56.5 23.5t-23.5 56.5t23.5 56.5t56.5 23.5t56.5 -23.5t23.5 -56.5t-23.5 -56.5t-56.5 -23.5zM404 573q0 -10 -10 -10h-52q-10 0 -10 -10v-393q0 -10 10 -10h52q10 0 10 -10v-130q0 -10 -10 -10h-294q-10 0 -10 10v130q0 10 10 10h52q10 0 10 10v393
q0 10 -10 10h-52q-10 0 -10 10v130q0 10 10 10h294q10 0 10 -10v-130z" />
    <glyph glyph-name="dotlessi" unicode="&#x131;" horiz-adv-x="280" 
d="M70 519q0 8 8 8h144q8 0 8 -8v-511q0 -8 -8 -8h-144q-8 0 -8 8v511z" />
    <glyph glyph-name="Kcommaaccent" unicode="&#x136;" horiz-adv-x="813" 
d="M546 0q-9 0 -13 6l-172 236q-6 10 -14 0l-72 -86q-5 -7 -5 -12v-134q0 -10 -10 -10h-150q-10 0 -10 10v693q0 10 10 10h150q10 0 10 -10v-288q0 -7 4 -8.5t8 3.5l241 297q5 6 12 6h199q6 0 8 -3.5t-2 -8.5l-278 -319q-6 -6 0 -14l279 -356q4 -4 2 -8t-8 -4h-189zM341 -70
q2 9 11 9h129q11 0 8 -11l-86 -246q-3 -8 -12 -8h-100q-12 0 -8 11z" />
    <glyph glyph-name="kcommaaccent" unicode="&#x137;" horiz-adv-x="674" 
d="M463 0q-7 0 -10 5l-155 214q-5 6 -11 1l-53 -47q-4 -4 -4 -10v-155q0 -8 -8 -8h-144q-8 0 -8 8v737q0 8 8 8h144q8 0 8 -8v-388q0 -5 3 -7t7 2l186 171q4 4 10 4h179q5 0 6.5 -3t-2.5 -7l-212 -199q-5 -5 -1 -11l215 -297q8 -10 -4 -10h-154zM271 -70q2 9 11 9h129
q11 0 8 -11l-86 -246q-3 -8 -12 -8h-100q-12 0 -8 11z" />
    <glyph glyph-name="Lacute" unicode="&#x139;" horiz-adv-x="586" 
d="M327 932q3 7 12 7h127q6 0 8 -3.5t-2 -8.5l-101 -138q-4 -6 -12 -6h-98q-6 0 -8.5 3.5t0.5 8.5zM506 150q10 0 10 -10v-130q0 -10 -10 -10h-406q-10 0 -10 10v693q0 10 10 10h150q10 0 10 -10v-543q0 -10 10 -10h236z" />
    <glyph glyph-name="lacute" unicode="&#x13a;" horiz-adv-x="280" 
d="M170 972q3 7 12 7h127q6 0 8 -3.5t-2 -8.5l-101 -138q-4 -6 -12 -6h-98q-6 0 -8.5 3.5t0.5 8.5zM70 745q0 8 8 8h144q8 0 8 -8v-737q0 -8 -8 -8h-144q-8 0 -8 8v737z" />
    <glyph glyph-name="Lcommaaccent" unicode="&#x13b;" horiz-adv-x="586" 
d="M506 150q10 0 10 -10v-130q0 -10 -10 -10h-406q-10 0 -10 10v693q0 10 10 10h150q10 0 10 -10v-543q0 -10 10 -10h236zM227 -70q2 9 11 9h129q11 0 8 -11l-86 -246q-3 -8 -12 -8h-100q-12 0 -8 11z" />
    <glyph glyph-name="lcommaaccent" unicode="&#x13c;" horiz-adv-x="280" 
d="M70 745q0 8 8 8h144q8 0 8 -8v-737q0 -8 -8 -8h-144q-8 0 -8 8v737zM74 -70q2 9 11 9h129q11 0 8 -11l-86 -246q-3 -8 -12 -8h-100q-12 0 -8 11z" />
    <glyph glyph-name="Lcaron" unicode="&#x13d;" horiz-adv-x="586" 
d="M436 744q2 9 11 9h129q11 0 8 -11l-86 -246q-3 -8 -12 -8h-100q-12 0 -8 11zM506 150q10 0 10 -10v-130q0 -10 -10 -10h-406q-10 0 -10 10v693q0 10 10 10h150q10 0 10 -10v-543q0 -10 10 -10h236z" />
    <glyph glyph-name="lcaron" unicode="&#x13e;" horiz-adv-x="280" 
d="M70 745q0 8 8 8h144q8 0 8 -8v-737q0 -8 -8 -8h-144q-8 0 -8 8v737zM349 744q2 9 11 9h129q11 0 8 -11l-86 -246q-3 -8 -12 -8h-100q-12 0 -8 11z" />
    <glyph glyph-name="Lslash" unicode="&#x141;" horiz-adv-x="586" 
d="M506 150q10 0 10 -10v-130q0 -10 -10 -10h-406q-10 0 -10 10v273l-69 -25q-7 -3 -13 3l-61 61q-9 9 3 14l140 50v317q0 10 10 10h150q10 0 10 -10v-257l101 36q7 3 12 -3l62 -61q9 -9 -4 -13l-171 -61v-184q0 -10 10 -10h236z" />
    <glyph glyph-name="lslash" unicode="&#x142;" horiz-adv-x="280" 
d="M402 434q9 -9 -4 -13l-168 -60v-353q0 -8 -8 -8h-144q-8 0 -8 8v295l-82 -29q-7 -3 -13 3l-61 61q-9 9 3 14l153 54v339q0 8 8 8h144q8 0 8 -8v-282l98 35q8 3 12 -3z" />
    <glyph glyph-name="Nacute" unicode="&#x143;" horiz-adv-x="754" 
d="M421 932q3 7 12 7h127q6 0 8 -3.5t-2 -8.5l-101 -138q-4 -6 -12 -6h-98q-6 0 -8.5 3.5t0.5 8.5zM684 10q0 -10 -10 -10h-96q-8 0 -12 6l-284 361q-4 6 -8 4t-4 -9v-352q0 -10 -10 -10h-150q-10 0 -10 10v693q0 10 10 10h96q8 0 12 -6l284 -361q4 -6 8 -4t4 9v352
q0 10 10 10h150q10 0 10 -10v-693z" />
    <glyph glyph-name="nacute" unicode="&#x144;" horiz-adv-x="652" 
d="M372 749q3 7 12 7h127q6 0 8 -4t-2 -8l-101 -138q-4 -6 -12 -6h-98q-6 0 -8.5 3.5t0.5 8.5zM78 0q-8 0 -8 8v511q0 8 8 8h144q8 0 8 -8v-61q0 -3 1.5 -5t3.5 -1.5t4 3.5q62 75 152 75q102 0 156.5 -65.5t54.5 -172.5v-284q0 -8 -8 -8h-144q-8 0 -8 8v284q0 113 -102 113
q-42 0 -72 -29t-38 -74v-294q0 -8 -8 -8h-144z" />
    <glyph glyph-name="Ncommaaccent" unicode="&#x145;" horiz-adv-x="754" 
d="M684 10q0 -10 -10 -10h-96q-8 0 -12 6l-284 361q-4 6 -8 4t-4 -9v-352q0 -10 -10 -10h-150q-10 0 -10 10v693q0 10 10 10h96q8 0 12 -6l284 -361q4 -6 8 -4t4 9v352q0 10 10 10h150q10 0 10 -10v-693zM311 -70q2 9 11 9h129q11 0 8 -11l-86 -246q-3 -8 -12 -8h-100
q-12 0 -8 11z" />
    <glyph glyph-name="ncommaaccent" unicode="&#x146;" horiz-adv-x="652" 
d="M78 0q-8 0 -8 8v511q0 8 8 8h144q8 0 8 -8v-61q0 -3 1.5 -5t3.5 -1.5t4 3.5q62 75 152 75q102 0 156.5 -65.5t54.5 -172.5v-284q0 -8 -8 -8h-144q-8 0 -8 8v284q0 113 -102 113q-42 0 -72 -29t-38 -74v-294q0 -8 -8 -8h-144zM260 -70q2 9 11 9h129q11 0 8 -11l-86 -246
q-3 -8 -12 -8h-100q-12 0 -8 11z" />
    <glyph glyph-name="Ncaron" unicode="&#x147;" horiz-adv-x="754" 
d="M247 845v88q0 13 12 8l121 -59q7 -4 14 0l121 59q12 5 12 -8v-88q0 -7 -8 -12l-125 -61q-7 -4 -14 0l-125 61q-8 5 -8 12zM684 10q0 -10 -10 -10h-96q-8 0 -12 6l-284 361q-4 6 -8 4t-4 -9v-352q0 -10 -10 -10h-150q-10 0 -10 10v693q0 10 10 10h96q8 0 12 -6l284 -361
q4 -6 8 -4t4 9v352q0 10 10 10h150q10 0 10 -10v-693z" />
    <glyph glyph-name="ncaron" unicode="&#x148;" horiz-adv-x="652" 
d="M198 662v88q0 13 12 8l121 -59q7 -3 14 0l121 59q12 5 12 -8v-88q0 -7 -8 -12l-125 -61q-7 -3 -14 0l-125 61q-8 5 -8 12zM78 0q-8 0 -8 8v511q0 8 8 8h144q8 0 8 -8v-61q0 -3 1.5 -5t3.5 -1.5t4 3.5q62 75 152 75q102 0 156.5 -65.5t54.5 -172.5v-284q0 -8 -8 -8h-144
q-8 0 -8 8v284q0 113 -102 113q-42 0 -72 -29t-38 -74v-294q0 -8 -8 -8h-144z" />
    <glyph glyph-name="Eng" unicode="&#x14a;" horiz-adv-x="754" 
d="M674 713q10 0 10 -10v-693v-47q0 -82 -46 -127.5t-135 -45.5q-77 0 -154 44q-7 3 -5 10l17 69q2 10 10 5q54 -23 115 -23q40 0 66.5 20t26.5 48q0 24 -16 47l-281 357q-4 6 -8 4t-4 -9v-352q0 -10 -10 -10h-150q-10 0 -10 10v693q0 10 10 10h96q8 0 12 -6l284 -361
q4 -6 8 -4t4 9v352q0 10 10 10h150z" />
    <glyph glyph-name="eng" unicode="&#x14b;" horiz-adv-x="652" 
d="M391 530q102 0 156.5 -65.5t54.5 -172.5v-284v-1q-2 -106 -42.5 -161.5t-138.5 -55.5q-77 0 -154 44q-7 3 -5 10l17 69q2 10 10 5q5 -2 15 -6.5l13.5 -6t11.5 -4t13.5 -3.5t14 -2t17.5 -1q38 0 53 29.5t15 90.5v277q0 113 -102 113q-42 0 -72 -29t-38 -74v-294
q0 -8 -8 -8h-144q-8 0 -8 8v511q0 8 8 8h144q8 0 8 -8v-61q0 -3 1.5 -5t3.5 -1.5t4 3.5q62 75 152 75z" />
    <glyph glyph-name="Omacron" unicode="&#x14c;" horiz-adv-x="889" 
d="M320 894q0 8 8 8h264q8 0 8 -8v-94q0 -8 -8 -8h-264q-8 0 -8 8v94zM460 716q154 0 256.5 -102t102.5 -257t-102.5 -257.5t-256.5 -102.5t-257 102.5t-103 257.5q0 154 102.5 256.5t257.5 102.5zM460 566q-78 0 -134 -54.5t-56 -154.5t56 -155t134 -55t133.5 54.5
t55.5 155.5q0 100 -55.5 154.5t-133.5 54.5z" />
    <glyph glyph-name="omacron" unicode="&#x14d;" horiz-adv-x="653" 
d="M193 708q0 8 8 8h264q8 0 8 -8v-94q0 -8 -8 -8h-264q-8 0 -8 8v94zM336 -3q-123 0 -199.5 77t-76.5 190t76.5 189.5t199.5 76.5t200 -76.5t77 -189.5t-77 -190t-200 -77zM336 405q-55 0 -85.5 -39.5t-30.5 -101.5t30.5 -102t85.5 -40t86 40t31 102t-31 101.5t-86 39.5z
" />
    <glyph glyph-name="Ohungarumlaut" unicode="&#x150;" horiz-adv-x="889" 
d="M441 785q-2 -9 -11 -9h-129q-11 0 -8 11l86 246q3 8 12 8h100q12 0 8 -11zM648 785q-2 -9 -11 -9h-129q-11 0 -8 11l86 246q3 8 12 8h100q12 0 8 -11zM460 716q154 0 256.5 -102t102.5 -257t-102.5 -257.5t-256.5 -102.5t-257 102.5t-103 257.5q0 154 102.5 256.5
t257.5 102.5zM460 566q-78 0 -134 -54.5t-56 -154.5t56 -155t134 -55t133.5 54.5t55.5 155.5q0 100 -55.5 154.5t-133.5 54.5z" />
    <glyph glyph-name="ohungarumlaut" unicode="&#x151;" horiz-adv-x="653" 
d="M314 599q-2 -9 -11 -9h-129q-11 0 -8 11l86 246q3 8 12 8h100q12 0 8 -11zM521 599q-2 -9 -11 -9h-129q-11 0 -8 11l86 246q3 8 12 8h100q12 0 8 -11zM336 -3q-123 0 -199.5 77t-76.5 190t76.5 189.5t199.5 76.5t200 -76.5t77 -189.5t-77 -190t-200 -77zM336 405
q-55 0 -85.5 -39.5t-30.5 -101.5t30.5 -102t85.5 -40t86 40t31 102t-31 101.5t-86 39.5z" />
    <glyph glyph-name="OE" unicode="&#x152;" horiz-adv-x="1182" 
d="M1129 150q10 0 10 -10v-130q0 -10 -10 -10h-439q-10 0 -10 10v58q-95 -71 -220 -71q-154 0 -257 102.5t-103 257.5q0 154 102.5 256.5t257.5 102.5q125 0 220 -70v57q0 10 10 10h429q10 0 10 -10v-130q0 -10 -10 -10h-259q-10 0 -10 -10v-117q0 -10 10 -10h187
q10 0 10 -10v-130q0 -10 -10 -10h-187q-10 0 -10 -10v-106q0 -10 10 -10h269zM460 147q78 0 133.5 54.5t55.5 155.5q0 100 -55.5 154.5t-133.5 54.5t-134 -54.5t-56 -154.5t56 -155t134 -55z" />
    <glyph glyph-name="oe" unicode="&#x153;" horiz-adv-x="1038" 
d="M743 530q63 0 113 -22t80.5 -59.5t46 -84t15.5 -97.5v-44q0 -8 -8 -8h-328q-7 0 -7 -8q0 -36 27 -60.5t61 -24.5q63 0 93 43q3 7 10 5l134 -18q9 -2 6 -9q-22 -63 -82 -104.5t-152 -41.5q-134 0 -207 87q-79 -87 -209 -87q-123 0 -199.5 77t-76.5 190t76.5 189.5
t199.5 76.5q131 0 211 -88q73 88 196 88zM820 320q8 0 8 7q0 36 -22 62t-63 26q-39 0 -62.5 -26.5t-24.5 -59.5q0 -9 6 -9h158zM336 122q55 0 86 40t31 102t-31 101.5t-86 39.5t-85.5 -39.5t-30.5 -101.5t30.5 -102t85.5 -40z" />
    <glyph glyph-name="Racute" unicode="&#x154;" horiz-adv-x="734" 
d="M361 932q3 7 12 7h127q6 0 8 -3.5t-2 -8.5l-101 -138q-4 -6 -12 -6h-98q-6 0 -8.5 3.5t0.5 8.5zM100 0q-10 0 -10 10v693q0 10 10 10h305q108 0 183.5 -71.5t75.5 -179.5q0 -139 -122 -214q-8 -5 -3 -14l119 -222q3 -5 0.5 -8.5t-7.5 -3.5h-162q-9 0 -12 7l-101 197
q-3 7 -12 7h-94q-10 0 -10 -10v-191q0 -10 -10 -10h-150zM270 361h115q46 0 77.5 28.5t31.5 72.5q0 45 -32 73t-77 28h-115q-10 0 -10 -10v-182q0 -10 10 -10z" />
    <glyph glyph-name="racute" unicode="&#x155;" horiz-adv-x="480" 
d="M294 746q3 7 12 7h127q6 0 8 -3.5t-2 -8.5l-101 -138q-4 -6 -12 -6h-98q-6 0 -8.5 3.5t0.5 8.5zM434 517q7 -3 5 -10l-17 -110q-2 -8 -10 -5q-26 13 -55 13q-53 0 -90 -45t-37 -132v-220q0 -8 -8 -8h-144q-8 0 -8 8v511q0 8 8 8h144q8 0 8 -8v-67q0 -6 3 -7t6 4
q49 81 132 81q39 0 63 -13z" />
    <glyph glyph-name="Rcommaaccent" unicode="&#x156;" horiz-adv-x="734" 
d="M100 0q-10 0 -10 10v693q0 10 10 10h305q108 0 183.5 -71.5t75.5 -179.5q0 -139 -122 -214q-8 -5 -3 -14l119 -222q3 -5 0.5 -8.5t-7.5 -3.5h-162q-9 0 -12 7l-101 197q-3 7 -12 7h-94q-10 0 -10 -10v-191q0 -10 -10 -10h-150zM270 361h115q46 0 77.5 28.5t31.5 72.5
q0 45 -32 73t-77 28h-115q-10 0 -10 -10v-182q0 -10 10 -10zM301 -70q2 9 11 9h129q11 0 8 -11l-86 -246q-3 -8 -12 -8h-100q-12 0 -8 11z" />
    <glyph glyph-name="rcommaaccent" unicode="&#x157;" horiz-adv-x="480" 
d="M434 517q7 -3 5 -10l-17 -110q-2 -8 -10 -5q-26 13 -55 13q-53 0 -90 -45t-37 -132v-220q0 -8 -8 -8h-144q-8 0 -8 8v511q0 8 8 8h144q8 0 8 -8v-67q0 -6 3 -7t6 4q49 81 132 81q39 0 63 -13zM174 -70q2 9 11 9h129q11 0 8 -11l-86 -246q-3 -8 -12 -8h-100q-12 0 -8 11z
" />
    <glyph glyph-name="Rcaron" unicode="&#x158;" horiz-adv-x="734" 
d="M187 845v88q0 13 12 8l121 -59q7 -4 14 0l121 59q12 5 12 -8v-88q0 -7 -8 -12l-125 -61q-7 -4 -14 0l-125 61q-8 5 -8 12zM100 0q-10 0 -10 10v693q0 10 10 10h305q108 0 183.5 -71.5t75.5 -179.5q0 -139 -122 -214q-8 -5 -3 -14l119 -222q3 -5 0.5 -8.5t-7.5 -3.5h-162
q-9 0 -12 7l-101 197q-3 7 -12 7h-94q-10 0 -10 -10v-191q0 -10 -10 -10h-150zM270 361h115q46 0 77.5 28.5t31.5 72.5q0 45 -32 73t-77 28h-115q-10 0 -10 -10v-182q0 -10 10 -10z" />
    <glyph glyph-name="rcaron" unicode="&#x159;" horiz-adv-x="480" 
d="M120 659v88q0 13 12 8l121 -59q7 -4 14 0l121 59q12 5 12 -8v-88q0 -7 -8 -12l-125 -61q-7 -4 -14 0l-125 61q-8 5 -8 12zM434 517q7 -3 5 -10l-17 -110q-2 -8 -10 -5q-26 13 -55 13q-53 0 -90 -45t-37 -132v-220q0 -8 -8 -8h-144q-8 0 -8 8v511q0 8 8 8h144q8 0 8 -8
v-67q0 -6 3 -7t6 4q49 81 132 81q39 0 63 -13z" />
    <glyph glyph-name="Sacute" unicode="&#x15a;" horiz-adv-x="718" 
d="M393 935q3 7 12 7h127q6 0 8 -4t-2 -8l-101 -138q-4 -6 -12 -6h-98q-6 0 -8.5 3.5t0.5 8.5zM391 -3q-126 0 -204 62t-97 151q-1 8 10 10l149 25q6 1 11 -10q15 -35 49 -61.5t88 -26.5q41 0 66 16t25 45q0 17 -6.5 29.5t-15 20t-27 14.5t-32.5 10.5l-41.5 10l-44.5 10.5
q-51 14 -83 26.5t-67 35.5t-52 60t-17 89q0 80 74 141t183 61q124 0 194.5 -61t85.5 -138q1 -8 -10 -10l-150 -20q-4 -1 -6 1.5t-4 8.5q-8 31 -36 50t-71 19q-35 0 -62.5 -14.5t-27.5 -47.5q0 -30 28 -44.5t112 -36.5l23 -6q114 -30 168.5 -74.5t54.5 -134.5q0 -95 -73 -153
t-194 -58z" />
    <glyph glyph-name="sacute" unicode="&#x15b;" horiz-adv-x="560" 
d="M328 749q3 7 12 7h127q6 0 8 -4t-2 -8l-101 -138q-4 -6 -12 -6h-98q-6 0 -8.5 3.5t0.5 8.5zM297 -3q-98 0 -157.5 42.5t-79.5 115.5q-2 8 8 8l126 21q5 1 9 -8q24 -54 103 -54q20 0 37 9.5t17 25.5q0 20 -16.5 35.5t-68.5 29.5q-93 25 -142 59t-49 98q0 66 58.5 108.5
t151.5 42.5q99 0 148 -42t61 -106q1 -6 -8 -8l-127 -17q-4 -1 -5.5 1t-2.5 7q-10 40 -66 40q-19 0 -34.5 -9.5t-15.5 -25.5q0 -12 6 -20t20.5 -14.5t29.5 -11l41.5 -12.5t47.5 -16q65 -24 98 -58t33 -92q0 -75 -63.5 -112t-159.5 -37z" />
    <glyph glyph-name="Scedilla" unicode="&#x15e;" horiz-adv-x="718" 
d="M424 -2l-7 -33q-1 -9 7 -9q29 -3 49.5 -22.5t20.5 -52.5q0 -37 -40 -64.5t-84 -27.5q-49 0 -82 21q-5 2 -5 9v42q0 4 2.5 6t6.5 1q29 -9 53 -9q22 0 35 8.5t13 21.5q0 36 -48 36q-23 0 -41 -9q-5 -2 -7.5 0t-0.5 7l31 79q-99 16 -160 73.5t-77 134.5q-1 8 10 10l149 25
q6 1 11 -10q15 -35 49 -61.5t88 -26.5q41 0 66 16t25 45q0 17 -6.5 29.5t-15 20t-27 14.5t-32.5 10.5l-41.5 10l-44.5 10.5q-51 14 -83 26.5t-67 35.5t-52 60t-17 89q0 80 74 141t183 61q124 0 194.5 -61t85.5 -138q1 -8 -10 -10l-150 -20q-4 -1 -6 1.5t-4 8.5q-8 31 -36 50
t-71 19q-35 0 -62.5 -14.5t-27.5 -47.5q0 -30 28 -44.5t112 -36.5l23 -6q114 -30 168.5 -74.5t54.5 -134.5q0 -88 -63.5 -145t-170.5 -65z" />
    <glyph glyph-name="scedilla" unicode="&#x15f;" horiz-adv-x="560" 
d="M330 -2l-12 -54q-2 -9 7 -9q29 -3 49.5 -22.5t20.5 -52.5q0 -37 -40 -64.5t-84 -27.5q-49 0 -82 21q-5 3 -5 9v42q0 4 2.5 6t6.5 1q29 -9 53 -9q22 0 35 8.5t13 21.5q0 36 -48 36q-23 0 -41 -9q-5 -2 -7.5 0t-0.5 7l38 98h14q-152 20 -189 155q-2 8 8 8l126 21q5 1 9 -8
q24 -54 103 -54q20 0 37 9.5t17 25.5q0 20 -16.5 35.5t-68.5 29.5q-93 25 -142 59t-49 98q0 66 58.5 108.5t151.5 42.5q99 0 148 -42t61 -106q1 -6 -8 -8l-127 -17q-4 -1 -5.5 1t-2.5 7q-10 40 -66 40q-19 0 -34.5 -9.5t-15.5 -25.5q0 -12 6 -20t20.5 -14.5t29.5 -11
l41.5 -12.5t47.5 -16q65 -24 98 -58t33 -92q0 -68 -53 -104.5t-137 -43.5z" />
    <glyph glyph-name="Scaron" unicode="&#x160;" horiz-adv-x="718" 
d="M219 848v88q0 13 12 8l121 -59q7 -3 14 0l121 59q12 5 12 -8v-88q0 -7 -8 -12l-125 -61q-7 -3 -14 0l-125 61q-8 5 -8 12zM391 -3q-126 0 -204 62t-97 151q-1 8 10 10l149 25q6 1 11 -10q15 -35 49 -61.5t88 -26.5q41 0 66 16t25 45q0 17 -6.5 29.5t-15 20t-27 14.5
t-32.5 10.5l-41.5 10l-44.5 10.5q-51 14 -83 26.5t-67 35.5t-52 60t-17 89q0 80 74 141t183 61q124 0 194.5 -61t85.5 -138q1 -8 -10 -10l-150 -20q-4 -1 -6 1.5t-4 8.5q-8 31 -36 50t-71 19q-35 0 -62.5 -14.5t-27.5 -47.5q0 -30 28 -44.5t112 -36.5l23 -6
q114 -30 168.5 -74.5t54.5 -134.5q0 -95 -73 -153t-194 -58z" />
    <glyph glyph-name="scaron" unicode="&#x161;" horiz-adv-x="560" 
d="M154 662v88q0 13 12 8l121 -59q7 -3 14 0l121 59q12 5 12 -8v-88q0 -7 -8 -12l-125 -61q-7 -3 -14 0l-125 61q-8 5 -8 12zM297 -3q-98 0 -157.5 42.5t-79.5 115.5q-2 8 8 8l126 21q5 1 9 -8q24 -54 103 -54q20 0 37 9.5t17 25.5q0 20 -16.5 35.5t-68.5 29.5
q-93 25 -142 59t-49 98q0 66 58.5 108.5t151.5 42.5q99 0 148 -42t61 -106q1 -6 -8 -8l-127 -17q-4 -1 -5.5 1t-2.5 7q-10 40 -66 40q-19 0 -34.5 -9.5t-15.5 -25.5q0 -12 6 -20t20.5 -14.5t29.5 -11l41.5 -12.5t47.5 -16q65 -24 98 -58t33 -92q0 -75 -63.5 -112t-159.5 -37
z" />
    <glyph glyph-name="uni0162" unicode="&#x162;" horiz-adv-x="653" 
d="M583 713q10 0 10 -10v-130q0 -10 -10 -10h-151q-10 0 -10 -10v-543q0 -10 -10 -10h-29l-8 -35q-1 -9 7 -9q29 -3 49.5 -22.5t20.5 -52.5q0 -37 -40 -64.5t-84 -27.5q-49 0 -82 21q-5 2 -5 9v42q0 4 2.5 6t6.5 1q29 -9 53 -9q22 0 35 8.5t13 21.5q0 36 -48 36
q-23 0 -41 -9q-5 -2 -7.5 0t-0.5 7l30 77h-22q-10 0 -10 10v543q0 10 -10 10h-152q-10 0 -10 10v130q0 10 10 10h493z" />
    <glyph glyph-name="uni0163" unicode="&#x163;" horiz-adv-x="474" 
d="M424 40q1 -7 -3 -10q-34 -22 -88 -29l-8 -36q-1 -9 7 -9q29 -3 49.5 -22.5t20.5 -52.5q0 -37 -40 -64.5t-84 -27.5q-49 0 -82 21q-5 2 -5 9v42q0 4 2.5 6t6.5 1q29 -9 53 -9q22 0 35 8.5t13 21.5q0 36 -48 36q-23 0 -41 -9q-5 -2 -7.5 0t-0.5 7l30 78q-32 7 -52.5 26
t-30.5 49.5t-13.5 62.5t-3.5 78v177q0 8 -8 8h-58q-8 0 -8 8v109q0 8 8 8h58q8 0 8 8v111q0 8 7 9l145 18q4 1 6 -1.5t2 -6.5v-130q0 -8 8 -8h110q8 0 8 -8v-109q0 -8 -8 -8h-110q-8 0 -8 -8v-177q0 -48 10.5 -71.5t41.5 -23.5q27 0 51 8q9 3 10 -3z" />
    <glyph glyph-name="Tcaron" unicode="&#x164;" horiz-adv-x="653" 
d="M201 845v88q0 13 12 8l121 -59q7 -4 14 0l121 59q12 5 12 -8v-88q0 -7 -8 -12l-125 -61q-7 -4 -14 0l-125 61q-8 5 -8 12zM583 713q10 0 10 -10v-130q0 -10 -10 -10h-151q-10 0 -10 -10v-543q0 -10 -10 -10h-150q-10 0 -10 10v543q0 10 -10 10h-152q-10 0 -10 10v130
q0 10 10 10h493z" />
    <glyph glyph-name="tcaron" unicode="&#x165;" horiz-adv-x="474" 
d="M402 834q2 9 11 9h129q11 0 8 -11l-86 -246q-3 -8 -12 -8h-100q-12 0 -8 11zM424 40q1 -7 -3 -10q-50 -33 -146 -33q-45 0 -74 16t-43 48.5t-19 68t-5 87.5v177q0 8 -8 8h-58q-8 0 -8 8v109q0 8 8 8h58q8 0 8 8v111q0 8 7 9l145 18q4 1 6 -1.5t2 -6.5v-130q0 -8 8 -8h110
q8 0 8 -8v-109q0 -8 -8 -8h-110q-8 0 -8 -8v-177q0 -48 10.5 -71.5t41.5 -23.5q27 0 51 8q9 3 10 -3z" />
    <glyph glyph-name="Tbar" unicode="&#x166;" horiz-adv-x="653" 
d="M583 713q10 0 10 -10v-130q0 -10 -10 -10h-151q-10 0 -10 -10v-151h120q10 0 10 -10v-70q0 -10 -10 -10h-120v-302q0 -10 -10 -10h-150q-10 0 -10 10v302h-120q-10 0 -10 10v70q0 10 10 10h120v151q0 10 -10 10h-152q-10 0 -10 10v130q0 10 10 10h493z" />
    <glyph glyph-name="tbar" unicode="&#x167;" horiz-adv-x="474" 
d="M424 40q1 -7 -3 -10q-50 -33 -146 -33q-45 0 -74 16t-43 48.5t-19 68t-5 87.5v22h-66q-8 0 -8 10v70q0 10 8 10h66v65q0 8 -8 8h-58q-8 0 -8 8v109q0 8 8 8h58q8 0 8 8v111q0 8 7 9l145 18q4 1 6 -1.5t2 -6.5v-130q0 -8 8 -8h110q8 0 8 -8v-109q0 -8 -8 -8h-110
q-8 0 -8 -8v-65h115q8 0 8 -10v-70q0 -10 -8 -10h-115v-22q0 -48 10.5 -71.5t41.5 -23.5q27 0 51 8q9 3 10 -3z" />
    <glyph glyph-name="utilde" unicode="&#x169;" horiz-adv-x="652" 
d="M397 583q-27 0 -50.5 10.5t-36.5 23t-30 23t-34 10.5q-42 0 -62 -41q-3 -6 -10 -5l-55 16q-8 2 -6 9q39 146 133 146q32 0 59 -16.5t49 -33.5t43 -17q47 0 62 40q3 7 10 6l54 -16q2 0 4 -1t2.5 -2t0.5 -2q-21 -77 -47 -109q-34 -41 -86 -41zM594 527q8 0 8 -8v-511
q0 -8 -8 -8h-144q-8 0 -8 8v61q0 3 -1.5 5t-3.5 1.5t-4 -3.5q-62 -75 -152 -75q-102 0 -156.5 65.5t-54.5 172.5v284q0 8 8 8h144q8 0 8 -8v-284q0 -113 102 -113q42 0 72 29t38 74v294q0 8 8 8h144z" />
    <glyph glyph-name="Umacron" unicode="&#x16a;" horiz-adv-x="803" 
d="M281 891q0 8 8 8h264q8 0 8 -8v-94q0 -8 -8 -8h-264q-8 0 -8 8v94zM563 703q0 10 10 10h150q10 0 10 -10v-396q0 -43 -8.5 -84t-30.5 -83t-56 -73t-91 -50.5t-130 -19.5t-130 19.5t-91.5 50.5t-56.5 73t-30.5 83t-8.5 84v396q0 10 10 10h150q10 0 10 -10v-396
q0 -81 38.5 -120.5t108.5 -39.5q142 0 146 160v396z" />
    <glyph glyph-name="umacron" unicode="&#x16b;" horiz-adv-x="652" 
d="M191 705q0 8 8 8h264q8 0 8 -8v-94q0 -8 -8 -8h-264q-8 0 -8 8v94zM594 527q8 0 8 -8v-511q0 -8 -8 -8h-144q-8 0 -8 8v61q0 3 -1.5 5t-3.5 1.5t-4 -3.5q-62 -75 -152 -75q-102 0 -156.5 65.5t-54.5 172.5v284q0 8 8 8h144q8 0 8 -8v-284q0 -113 102 -113q42 0 72 29
t38 74v294q0 8 8 8h144z" />
    <glyph glyph-name="Uring" unicode="&#x16e;" horiz-adv-x="803" 
d="M421 792q-31 0 -53 22t-22 53t22 53t53 22t53 -22t22 -53t-22 -53t-53 -22zM421 892q-12 0 -18.5 -8t-6.5 -17t6.5 -17t18.5 -8t18.5 8t6.5 17t-6.5 17t-18.5 8zM563 703q0 10 10 10h150q10 0 10 -10v-396q0 -43 -8.5 -84t-30.5 -83t-56 -73t-91 -50.5t-130 -19.5
t-130 19.5t-91.5 50.5t-56.5 73t-30.5 83t-8.5 84v396q0 10 10 10h150q10 0 10 -10v-396q0 -81 38.5 -120.5t108.5 -39.5q142 0 146 160v396z" />
    <glyph glyph-name="uring" unicode="&#x16f;" horiz-adv-x="652" 
d="M331 606q-31 0 -53 22t-22 53t22 53t53 22t53 -22t22 -53t-22 -53t-53 -22zM331 706q-12 0 -18.5 -8t-6.5 -17t6.5 -17t18.5 -8t18.5 8t6.5 17t-6.5 17t-18.5 8zM594 527q8 0 8 -8v-511q0 -8 -8 -8h-144q-8 0 -8 8v61q0 3 -1.5 5t-3.5 1.5t-4 -3.5q-62 -75 -152 -75
q-102 0 -156.5 65.5t-54.5 172.5v284q0 8 8 8h144q8 0 8 -8v-284q0 -113 102 -113q42 0 72 29t38 74v294q0 8 8 8h144z" />
    <glyph glyph-name="Uhungarumlaut" unicode="&#x170;" horiz-adv-x="803" 
d="M402 782q-2 -9 -11 -9h-129q-11 0 -8 11l86 246q3 8 12 8h100q12 0 8 -11zM609 782q-2 -9 -11 -9h-129q-11 0 -8 11l86 246q3 8 12 8h100q12 0 8 -11zM563 703q0 10 10 10h150q10 0 10 -10v-396q0 -43 -8.5 -84t-30.5 -83t-56 -73t-91 -50.5t-130 -19.5t-130 19.5
t-91.5 50.5t-56.5 73t-30.5 83t-8.5 84v396q0 10 10 10h150q10 0 10 -10v-396q0 -81 38.5 -120.5t108.5 -39.5q142 0 146 160v396z" />
    <glyph glyph-name="uhungarumlaut" unicode="&#x171;" horiz-adv-x="652" 
d="M312 596q-2 -9 -11 -9h-129q-11 0 -8 11l86 246q3 8 12 8h100q12 0 8 -11zM519 596q-2 -9 -11 -9h-129q-11 0 -8 11l86 246q3 8 12 8h100q12 0 8 -11zM594 527q8 0 8 -8v-511q0 -8 -8 -8h-144q-8 0 -8 8v61q0 3 -1.5 5t-3.5 1.5t-4 -3.5q-62 -75 -152 -75
q-102 0 -156.5 65.5t-54.5 172.5v284q0 8 8 8h144q8 0 8 -8v-284q0 -113 102 -113q42 0 72 29t38 74v294q0 8 8 8h144z" />
    <glyph glyph-name="Uogonek" unicode="&#x172;" horiz-adv-x="803" 
d="M723 713q10 0 10 -10v-396q0 -53 -13.5 -101.5t-43.5 -95.5t-89 -77t-141 -35q-74 -43 -74 -89q0 -50 48 -50q24 0 53 9q4 1 6.5 -1t2.5 -6v-42q0 -7 -3 -8q-31 -22 -84 -22t-88.5 24t-35.5 68q0 79 105 118q-78 6 -135 37t-86 77.5t-42 94t-13 99.5v396q0 10 10 10h150
q10 0 10 -10v-396q0 -81 38.5 -120.5t108.5 -39.5q142 0 146 160v396q0 10 10 10h150z" />
    <glyph glyph-name="uogonek" unicode="&#x173;" horiz-adv-x="652" 
d="M568 0q-76 -43 -76 -90q0 -50 48 -50q24 0 53 9q4 1 6.5 -1t2.5 -6v-42q0 -6 -3 -8q-31 -22 -84 -22t-88.5 24t-35.5 68q0 81 106 118h-47q-8 0 -8 8v61q0 3 -1.5 5t-3.5 1.5t-4 -3.5q-62 -75 -152 -75q-102 0 -156.5 65.5t-54.5 172.5v284q0 8 8 8h144q8 0 8 -8v-284
q0 -113 102 -113q42 0 72 29t38 74v294q0 8 8 8h144q8 0 8 -8v-511q0 -8 -8 -8h-26z" />
    <glyph glyph-name="Wcircumflex" unicode="&#x174;" horiz-adv-x="1104" 
d="M412 868q0 7 8 12l125 61q7 3 14 0l125 -61q8 -5 8 -12v-88q0 -13 -12 -8l-121 59q-7 3 -14 0l-121 -59q-12 -5 -12 8v88zM389 7l158 381q6 15 10 15t10 -15l157 -381q3 -7 12 -7h76q9 0 12 8l219 694q3 11 -8 11h-150q-10 0 -12 -8l-100 -395q-8 -32 -20 0l-146 395
q-3 8 -11 8h-79q-8 0 -11 -8l-146 -395q-12 -32 -20 0l-99 395v3t-0.5 3t-3.5 1.5t-8 0.5h-150q-11 0 -8 -11l218 -694q3 -8 12 -8h76q9 0 12 7z" />
    <glyph glyph-name="wcircumflex" unicode="&#x175;" horiz-adv-x="976" 
d="M354 682q0 7 8 12l125 61q7 3 14 0l125 -61q8 -5 8 -12v-88q0 -13 -12 -8l-121 59q-7 3 -14 0l-121 -59q-12 -5 -12 8v88zM773 520q2 7 9 7h147q10 0 6 -9l-210 -512q-2 -6 -10 -6h-79q-8 0 -10 6l-128 289q-5 12 -10 0l-127 -289q-2 -6 -10 -6h-79q-8 0 -10 6l-211 512
q-4 9 6 9h147q7 0 9 -7l93 -289q5 -14 11 0l112 290q2 6 9 6h110q7 0 9 -6l112 -290q6 -14 11 0z" />
    <glyph glyph-name="Ycircumflex" unicode="&#x176;" horiz-adv-x="850" 
d="M285 868q0 7 8 12l125 61q7 3 14 0l125 -61q8 -5 8 -12v-88q0 -13 -12 -8l-121 59q-7 3 -14 0l-121 -59q-12 -5 -12 8v88zM792 713q6 0 8 -3.5t-2 -8.5l-279 -386q-4 -5 -4 -13v-292q0 -10 -10 -10h-150q-10 0 -10 10v292q0 8 -4 13l-279 386q-4 5 -2 8.5t8 3.5h186
q8 0 12 -6l157 -225q7 -10 14 0l157 225q4 6 12 6h186z" />
    <glyph glyph-name="ycircumflex" unicode="&#x177;" horiz-adv-x="638" 
d="M202 682q0 7 8 12l125 61q7 3 14 0l125 -61q8 -5 8 -12v-88q0 -13 -12 -8l-121 59q-7 3 -14 0l-121 -59q-12 -5 -12 8v88zM440 521q2 6 9 6h152q10 0 6 -9l-201 -528q-40 -105 -85.5 -152.5t-121.5 -47.5q-36 0 -67.5 16.5t-49.5 45.5q-3 6 -2 11l17 87q2 11 10 3
q31 -28 61 -28q38 0 59 21t39 65q2 4 0 10l-205 497q-3 9 6 9h152q7 0 9 -6l102 -297q1 -3 3 -4.5t4 0t3 4.5z" />
    <glyph glyph-name="Ydieresis" unicode="&#x178;" horiz-adv-x="850" 
d="M324 782q-33 0 -56.5 23.5t-23.5 56.5t23.5 56.5t56.5 23.5t56.5 -23.5t23.5 -56.5t-23.5 -56.5t-56.5 -23.5zM533 782q-33 0 -56.5 23.5t-23.5 56.5t23.5 56.5t56.5 23.5t56.5 -23.5t23.5 -56.5t-23.5 -56.5t-56.5 -23.5zM792 713q6 0 8 -3.5t-2 -8.5l-279 -386
q-4 -5 -4 -13v-292q0 -10 -10 -10h-150q-10 0 -10 10v292q0 8 -4 13l-279 386q-4 5 -2 8.5t8 3.5h186q8 0 12 -6l157 -225q7 -10 14 0l157 225q4 6 12 6h186z" />
    <glyph glyph-name="Zacute" unicode="&#x179;" horiz-adv-x="792" 
d="M450 932q3 7 12 7h127q6 0 8 -3.5t-2 -8.5l-101 -138q-4 -6 -12 -6h-98q-6 0 -8.5 3.5t0.5 8.5zM702 713q10 0 10 -10v-78q0 -7 -4 -12l-349 -450q-4 -5 -2 -9t8 -4h337q10 0 10 -10v-130q0 -10 -10 -10h-592q-10 0 -10 10v78q0 8 4 13l348 449q4 4 2 8.5t-8 4.5h-336
q-10 0 -10 10v130q0 10 10 10h592z" />
    <glyph glyph-name="zacute" unicode="&#x17a;" horiz-adv-x="602" 
d="M355 746q3 7 12 7h127q6 0 8 -3.5t-2 -8.5l-101 -138q-4 -6 -12 -6h-98q-6 0 -8.5 3.5t0.5 8.5zM552 447q0 -4 -4 -10l-255 -301q-8 -10 4 -10h247q8 0 8 -8v-109q0 -8 -8 -8h-466q-8 0 -8 8v71q0 4 4 10l255 302q8 10 -4 10h-247q-8 0 -8 8v109q0 8 8 8h466q8 0 8 -8
v-72z" />
    <glyph glyph-name="Zdotaccent" unicode="&#x17b;" horiz-adv-x="792" 
d="M416 782q-33 0 -56.5 23.5t-23.5 56.5t23.5 56.5t56.5 23.5t56.5 -23.5t23.5 -56.5t-23.5 -56.5t-56.5 -23.5zM702 713q10 0 10 -10v-78q0 -7 -4 -12l-349 -450q-4 -5 -2 -9t8 -4h337q10 0 10 -10v-130q0 -10 -10 -10h-592q-10 0 -10 10v78q0 8 4 13l348 449q4 4 2 8.5
t-8 4.5h-336q-10 0 -10 10v130q0 10 10 10h592z" />
    <glyph glyph-name="zdotaccent" unicode="&#x17c;" horiz-adv-x="602" 
d="M321 596q-33 0 -56.5 23.5t-23.5 56.5t23.5 56.5t56.5 23.5t56.5 -23.5t23.5 -56.5t-23.5 -56.5t-56.5 -23.5zM552 447q0 -4 -4 -10l-255 -301q-8 -10 4 -10h247q8 0 8 -8v-109q0 -8 -8 -8h-466q-8 0 -8 8v71q0 4 4 10l255 302q8 10 -4 10h-247q-8 0 -8 8v109q0 8 8 8
h466q8 0 8 -8v-72z" />
    <glyph glyph-name="Zcaron" unicode="&#x17d;" horiz-adv-x="792" 
d="M276 845v88q0 13 12 8l121 -59q7 -4 14 0l121 59q12 5 12 -8v-88q0 -7 -8 -12l-125 -61q-7 -4 -14 0l-125 61q-8 5 -8 12zM702 713q10 0 10 -10v-78q0 -7 -4 -12l-349 -450q-4 -5 -2 -9t8 -4h337q10 0 10 -10v-130q0 -10 -10 -10h-592q-10 0 -10 10v78q0 8 4 13l348 449
q4 4 2 8.5t-8 4.5h-336q-10 0 -10 10v130q0 10 10 10h592z" />
    <glyph glyph-name="zcaron" unicode="&#x17e;" horiz-adv-x="602" 
d="M181 659v88q0 13 12 8l121 -59q7 -4 14 0l121 59q12 5 12 -8v-88q0 -7 -8 -12l-125 -61q-7 -4 -14 0l-125 61q-8 5 -8 12zM552 447q0 -4 -4 -10l-255 -301q-8 -10 4 -10h247q8 0 8 -8v-109q0 -8 -8 -8h-466q-8 0 -8 8v71q0 4 4 10l255 302q8 10 -4 10h-247q-8 0 -8 8v109
q0 8 8 8h466q8 0 8 -8v-72z" />
    <glyph glyph-name="Scommaaccent" unicode="&#x218;" horiz-adv-x="718" 
d="M391 -3q-126 0 -204 62t-97 151q-1 8 10 10l149 25q6 1 11 -10q15 -35 49 -61.5t88 -26.5q41 0 66 16t25 45q0 17 -6.5 29.5t-15 20t-27 14.5t-32.5 10.5l-41.5 10l-44.5 10.5q-51 14 -83 26.5t-67 35.5t-52 60t-17 89q0 80 74 141t183 61q124 0 194.5 -61t85.5 -138
q1 -8 -10 -10l-150 -20q-4 -1 -6 1.5t-4 8.5q-8 31 -36 50t-71 19q-35 0 -62.5 -14.5t-27.5 -47.5q0 -30 28 -44.5t112 -36.5l23 -6q114 -30 168.5 -74.5t54.5 -134.5q0 -95 -73 -153t-194 -58zM313 -49q2 9 11 9h129q11 0 8 -11l-86 -246q-3 -8 -12 -8h-100q-12 0 -8 11z
" />
    <glyph glyph-name="scommaaccent" unicode="&#x219;" horiz-adv-x="560" 
d="M297 -3q-98 0 -157.5 42.5t-79.5 115.5q-2 8 8 8l126 21q5 1 9 -8q24 -54 103 -54q20 0 37 9.5t17 25.5q0 20 -16.5 35.5t-68.5 29.5q-93 25 -142 59t-49 98q0 66 58.5 108.5t151.5 42.5q99 0 148 -42t61 -106q1 -6 -8 -8l-127 -17q-4 -1 -5.5 1t-2.5 7q-10 40 -66 40
q-19 0 -34.5 -9.5t-15.5 -25.5q0 -12 6 -20t20.5 -14.5t29.5 -11l41.5 -12.5t47.5 -16q65 -24 98 -58t33 -92q0 -75 -63.5 -112t-159.5 -37zM214 -70q2 9 11 9h129q11 0 8 -11l-86 -246q-3 -8 -12 -8h-100q-12 0 -8 11z" />
    <glyph glyph-name="uni021A" unicode="&#x21a;" horiz-adv-x="653" 
d="M583 713q10 0 10 -10v-130q0 -10 -10 -10h-151q-10 0 -10 -10v-543q0 -10 -10 -10h-150q-10 0 -10 10v543q0 10 -10 10h-152q-10 0 -10 10v130q0 10 10 10h493zM271 -49q2 9 11 9h129q11 0 8 -11l-86 -246q-3 -8 -12 -8h-100q-12 0 -8 11z" />
    <glyph glyph-name="uni021B" unicode="&#x21b;" horiz-adv-x="474" 
d="M424 40q1 -7 -3 -10q-50 -33 -146 -33q-45 0 -74 16t-43 48.5t-19 68t-5 87.5v177q0 8 -8 8h-58q-8 0 -8 8v109q0 8 8 8h58q8 0 8 8v111q0 8 7 9l145 18q4 1 6 -1.5t2 -6.5v-130q0 -8 8 -8h110q8 0 8 -8v-109q0 -8 -8 -8h-110q-8 0 -8 -8v-177q0 -48 10.5 -71.5
t41.5 -23.5q27 0 51 8q9 3 10 -3zM221 -49q2 9 11 9h129q11 0 8 -11l-86 -246q-3 -8 -12 -8h-100q-12 0 -8 11z" />
    <glyph glyph-name="gravecomb" unicode="&#x300;" 
d="M-145 746l74 -137q3 -5 0.5 -8.5t-8.5 -3.5h-98q-8 0 -12 6l-101 138q-4 5 -2 8.5t8 3.5h127q9 0 12 -7z" />
    <glyph glyph-name="acutecomb" unicode="&#x301;" 
d="M-217 746q3 7 12 7h127q6 0 8 -3.5t-2 -8.5l-101 -138q-4 -6 -12 -6h-98q-6 0 -8.5 3.5t0.5 8.5z" />
    <glyph glyph-name="uni0302" unicode="&#x302;" 
d="M-350 682q0 7 8 12l125 61q7 3 14 0l125 -61q8 -5 8 -12v-88q0 -13 -12 -8l-121 59q-7 3 -14 0l-121 -59q-12 -5 -12 8v88z" />
    <glyph glyph-name="tildecomb" unicode="&#x303;" 
d="M-203 583q-27 0 -50.5 10.5t-36.5 23t-30 23t-34 10.5q-42 0 -62 -41q-3 -6 -10 -5l-55 16q-8 2 -6 9q39 146 133 146q32 0 59 -16.5t49 -33.5t43 -17q47 0 62 40q3 7 10 6l54 -16q2 0 4 -1t2.5 -2t0.5 -2q-21 -77 -47 -109q-34 -41 -86 -41z" />
    <glyph glyph-name="uni0304" unicode="&#x304;" 
d="M-350 705q0 8 8 8h264q8 0 8 -8v-94q0 -8 -8 -8h-264q-8 0 -8 8v94z" />
    <glyph glyph-name="uni0306" unicode="&#x306;" 
d="M-440 745q0 8 8 8h54q8 0 8 -8q4 -25 24 -39t46 -14t46 14t24 39q0 8 8 8h54q8 0 8 -8q-3 -70 -43.5 -106.5t-96.5 -36.5t-96.5 37t-43.5 106z" />
    <glyph glyph-name="uni0307" unicode="&#x307;" 
d="M-150 596q-33 0 -56.5 23.5t-23.5 56.5t23.5 56.5t56.5 23.5t56.5 -23.5t23.5 -56.5t-23.5 -56.5t-56.5 -23.5z" />
    <glyph glyph-name="uni0308" unicode="&#x308;" 
d="M-357 596q-33 0 -56.5 23.5t-23.5 56.5t23.5 56.5t56.5 23.5t56.5 -23.5t23.5 -56.5t-23.5 -56.5t-56.5 -23.5zM-148 596q-33 0 -56.5 23.5t-23.5 56.5t23.5 56.5t56.5 23.5t56.5 -23.5t23.5 -56.5t-23.5 -56.5t-56.5 -23.5z" />
    <glyph glyph-name="uni030A" unicode="&#x30a;" 
d="M-277 606q-31 0 -53 22t-22 53t22 53t53 22t53 -22t22 -53t-22 -53t-53 -22zM-277 706q-12 0 -18.5 -8t-6.5 -17t6.5 -17t18.5 -8t18.5 8t6.5 17t-6.5 17t-18.5 8z" />
    <glyph glyph-name="uni030B" unicode="&#x30b;" 
d="M-326 596q-2 -9 -11 -9h-129q-11 0 -8 11l86 246q3 8 12 8h100q12 0 8 -11zM-119 596q-2 -9 -11 -9h-129q-11 0 -8 11l86 246q3 8 12 8h100q12 0 8 -11z" />
    <glyph glyph-name="uni030C" unicode="&#x30c;" 
d="M-350 659v88q0 13 12 8l121 -59q7 -4 14 0l121 59q12 5 12 -8v-88q0 -7 -8 -12l-125 -61q-7 -4 -14 0l-125 61q-8 5 -8 12z" />
    <glyph glyph-name="uni0312" unicode="&#x312;" 
d="M-99 596q-2 -9 -11 -9h-129q-11 0 -8 11l86 246q3 8 12 8h100q12 0 8 -11z" />
    <glyph glyph-name="uni0326" unicode="&#x326;" 
d="M-240 -70q2 9 11 9h129q11 0 8 -11l-86 -246q-3 -8 -12 -8h-100q-12 0 -8 11z" />
    <glyph glyph-name="uni0327" unicode="&#x327;" 
d="M-194 -210q-49 0 -82 21q-5 3 -5 9v42q0 4 2.5 6t6.5 1q29 -9 53 -9q22 0 35 8.5t13 21.5q0 36 -48 36q-23 0 -41 -9q-5 -2 -7.5 0t-0.5 7l38 98h95l-12 -56q-1 -9 7 -9q29 -3 49.5 -22.5t20.5 -52.5q0 -37 -40 -64.5t-84 -27.5z" />
    <glyph glyph-name="uni0328" unicode="&#x328;" 
d="M-157 -210q-53 0 -88.5 24t-35.5 68q0 83 112 120h69q-80 -44 -80 -92q0 -50 48 -50q24 0 53 9q4 1 6.5 -1t2.5 -6v-42q0 -6 -3 -8q-31 -22 -84 -22z" />
    <glyph glyph-name="uni0335" unicode="&#x335;" 
d="M-70 305q0 -10 -10 -10h-410q-10 0 -10 10v70q0 10 10 10h410q10 0 10 -10v-70z" />
    <glyph glyph-name="uni0336" unicode="&#x336;" 
d="M-70 305q0 -10 -10 -10h-770q-10 0 -10 10v70q0 10 10 10h770q10 0 10 -10v-70z" />
    <glyph glyph-name="uni0337" unicode="&#x337;" 
d="M-500 277l-61 61q-9 9 3 14l411 146q7 3 12 -3l62 -61q9 -9 -4 -13l-410 -147q-7 -3 -13 3z" />
    <glyph glyph-name="uni0338" unicode="&#x338;" 
d="M-447 -40q8 0 11 7l365 774q5 12 -7 12h-87q-8 0 -11 -7l-365 -774q-5 -12 7 -12h87z" />
    <glyph glyph-name="Wgrave" unicode="&#x1e80;" horiz-adv-x="1104" 
d="M528 932l74 -137q3 -5 0.5 -8.5t-8.5 -3.5h-98q-8 0 -12 6l-101 138q-4 5 -2 8.5t8 3.5h127q9 0 12 -7zM389 7l158 381q6 15 10 15t10 -15l157 -381q3 -7 12 -7h76q9 0 12 8l219 694q3 11 -8 11h-150q-10 0 -12 -8l-100 -395q-8 -32 -20 0l-146 395q-3 8 -11 8h-79
q-8 0 -11 -8l-146 -395q-12 -32 -20 0l-99 395v3t-0.5 3t-3.5 1.5t-8 0.5h-150q-11 0 -8 -11l218 -694q3 -8 12 -8h76q9 0 12 7z" />
    <glyph glyph-name="wgrave" unicode="&#x1e81;" horiz-adv-x="976" 
d="M470 746l74 -137q3 -5 0.5 -8.5t-8.5 -3.5h-98q-8 0 -12 6l-101 138q-4 5 -2 8.5t8 3.5h127q9 0 12 -7zM773 520q2 7 9 7h147q10 0 6 -9l-210 -512q-2 -6 -10 -6h-79q-8 0 -10 6l-128 289q-5 12 -10 0l-127 -289q-2 -6 -10 -6h-79q-8 0 -10 6l-211 512q-4 9 6 9h147
q7 0 9 -7l93 -289q5 -14 11 0l112 290q2 6 9 6h110q7 0 9 -6l112 -290q6 -14 11 0z" />
    <glyph glyph-name="Wacute" unicode="&#x1e82;" horiz-adv-x="1104" 
d="M586 932q3 7 12 7h127q6 0 8 -3.5t-2 -8.5l-101 -138q-4 -6 -12 -6h-98q-6 0 -8.5 3.5t0.5 8.5zM389 7l158 381q6 15 10 15t10 -15l157 -381q3 -7 12 -7h76q9 0 12 8l219 694q3 11 -8 11h-150q-10 0 -12 -8l-100 -395q-8 -32 -20 0l-146 395q-3 8 -11 8h-79q-8 0 -11 -8
l-146 -395q-12 -32 -20 0l-99 395v3t-0.5 3t-3.5 1.5t-8 0.5h-150q-11 0 -8 -11l218 -694q3 -8 12 -8h76q9 0 12 7z" />
    <glyph glyph-name="wacute" unicode="&#x1e83;" horiz-adv-x="976" 
d="M528 746q3 7 12 7h127q6 0 8 -3.5t-2 -8.5l-101 -138q-4 -6 -12 -6h-98q-6 0 -8.5 3.5t0.5 8.5zM773 520q2 7 9 7h147q10 0 6 -9l-210 -512q-2 -6 -10 -6h-79q-8 0 -10 6l-128 289q-5 12 -10 0l-127 -289q-2 -6 -10 -6h-79q-8 0 -10 6l-211 512q-4 9 6 9h147q7 0 9 -7
l93 -289q5 -14 11 0l112 290q2 6 9 6h110q7 0 9 -6l112 -290q6 -14 11 0z" />
    <glyph glyph-name="Wdieresis" unicode="&#x1e84;" horiz-adv-x="1104" 
d="M451 782q-33 0 -56.5 23.5t-23.5 56.5t23.5 56.5t56.5 23.5t56.5 -23.5t23.5 -56.5t-23.5 -56.5t-56.5 -23.5zM660 782q-33 0 -56.5 23.5t-23.5 56.5t23.5 56.5t56.5 23.5t56.5 -23.5t23.5 -56.5t-23.5 -56.5t-56.5 -23.5zM389 7l158 381q6 15 10 15t10 -15l157 -381
q3 -7 12 -7h76q9 0 12 8l219 694q3 11 -8 11h-150q-10 0 -12 -8l-100 -395q-8 -32 -20 0l-146 395q-3 8 -11 8h-79q-8 0 -11 -8l-146 -395q-12 -32 -20 0l-99 395v3t-0.5 3t-3.5 1.5t-8 0.5h-150q-11 0 -8 -11l218 -694q3 -8 12 -8h76q9 0 12 7z" />
    <glyph glyph-name="wdieresis" unicode="&#x1e85;" horiz-adv-x="976" 
d="M393 596q-33 0 -56.5 23.5t-23.5 56.5t23.5 56.5t56.5 23.5t56.5 -23.5t23.5 -56.5t-23.5 -56.5t-56.5 -23.5zM602 596q-33 0 -56.5 23.5t-23.5 56.5t23.5 56.5t56.5 23.5t56.5 -23.5t23.5 -56.5t-23.5 -56.5t-56.5 -23.5zM773 520q2 7 9 7h147q10 0 6 -9l-210 -512
q-2 -6 -10 -6h-79q-8 0 -10 6l-128 289q-5 12 -10 0l-127 -289q-2 -6 -10 -6h-79q-8 0 -10 6l-211 512q-4 9 6 9h147q7 0 9 -7l93 -289q5 -14 11 0l112 290q2 6 9 6h110q7 0 9 -6l112 -290q6 -14 11 0z" />
    <glyph glyph-name="uni1EBD" unicode="&#x1ebd;" horiz-adv-x="612" 
d="M383 586q-35 0 -61.5 17t-48 33.5t-41.5 16.5q-42 0 -62 -41q-3 -6 -10 -5l-55 16q-8 2 -6 9q39 146 133 146q32 0 59 -17t49 -33.5t43 -16.5q47 0 62 40q3 7 10 6l54 -16q2 0 4 -1t2.5 -2t0.5 -2q-21 -77 -47 -109q-34 -41 -86 -41zM572 267v-44q0 -8 -8 -8h-328
q-7 0 -7 -8q0 -36 27 -60.5t61 -24.5q63 0 93 43q3 7 10 5l134 -18q9 -2 6 -9q-22 -63 -82 -104.5t-152 -41.5q-127 0 -196.5 75.5t-69.5 191.5q0 113 71 189.5t186 76.5q63 0 113 -22t80.5 -59.5t46 -84t15.5 -97.5zM317 415q-39 0 -62.5 -26.5t-24.5 -59.5q0 -9 6 -9h158
q8 0 8 7q0 36 -22 62t-63 26z" />
    <glyph glyph-name="Ygrave" unicode="&#x1ef2;" horiz-adv-x="850" 
d="M401 932l74 -137q3 -5 0.5 -8.5t-8.5 -3.5h-98q-8 0 -12 6l-101 138q-4 5 -2 8.5t8 3.5h127q9 0 12 -7zM792 713q6 0 8 -3.5t-2 -8.5l-279 -386q-4 -5 -4 -13v-292q0 -10 -10 -10h-150q-10 0 -10 10v292q0 8 -4 13l-279 386q-4 5 -2 8.5t8 3.5h186q8 0 12 -6l157 -225
q7 -10 14 0l157 225q4 6 12 6h186z" />
    <glyph glyph-name="ygrave" unicode="&#x1ef3;" horiz-adv-x="638" 
d="M318 746l74 -137q3 -5 0.5 -8.5t-8.5 -3.5h-98q-8 0 -12 6l-101 138q-4 5 -2 8.5t8 3.5h127q9 0 12 -7zM440 521q2 6 9 6h152q10 0 6 -9l-201 -528q-40 -105 -85.5 -152.5t-121.5 -47.5q-36 0 -67.5 16.5t-49.5 45.5q-3 6 -2 11l17 87q2 11 10 3q31 -28 61 -28
q38 0 59 21t39 65q2 4 0 10l-205 497q-3 9 6 9h152q7 0 9 -6l102 -297q1 -3 3 -4.5t4 0t3 4.5z" />
    <glyph glyph-name="uni1EF9" unicode="&#x1ef9;" horiz-adv-x="638" 
d="M408 583q-27 0 -50.5 10.5t-36.5 23t-30 23t-34 10.5q-42 0 -62 -41q-3 -6 -10 -5l-55 16q-8 2 -6 9q39 146 133 146q32 0 59 -16.5t49 -33.5t43 -17q47 0 62 40q3 7 10 6l54 -16q2 0 4 -1t2.5 -2t0.5 -2q-21 -77 -47 -109q-34 -41 -86 -41zM440 521q2 6 9 6h152
q10 0 6 -9l-201 -528q-40 -105 -85.5 -152.5t-121.5 -47.5q-36 0 -67.5 16.5t-49.5 45.5q-3 6 -2 11l17 87q2 11 10 3q31 -28 61 -28q38 0 59 21t39 65q2 4 0 10l-205 497q-3 9 6 9h152q7 0 9 -6l102 -297q1 -3 3 -4.5t4 0t3 4.5z" />
    <glyph glyph-name="endash" unicode="&#x2013;" horiz-adv-x="860" 
d="M760 225q0 -10 -10 -10h-630q-10 0 -10 10v130q0 10 10 10h630q10 0 10 -10v-130z" />
    <glyph glyph-name="emdash" unicode="&#x2014;" horiz-adv-x="1010" 
d="M910 225q0 -10 -10 -10h-780q-10 0 -10 10v130q0 10 10 10h780q10 0 10 -10v-130z" />
    <glyph glyph-name="quoteleft" unicode="&#x2018;" horiz-adv-x="328" 
d="M219 497q-2 -9 -11 -9h-129q-11 0 -8 11l86 246q3 8 12 8h100q12 0 8 -11z" />
    <glyph glyph-name="quoteright" unicode="&#x2019;" horiz-adv-x="338" 
d="M129 744q2 9 11 9h129q11 0 8 -11l-86 -246q-3 -8 -12 -8h-100q-12 0 -8 11z" />
    <glyph glyph-name="quotesinglbase" unicode="&#x201a;" horiz-adv-x="348" 
d="M129 145q2 9 11 9h129q11 0 8 -11l-86 -246q-3 -8 -12 -8h-100q-12 0 -8 11z" />
    <glyph glyph-name="quotedblleft" unicode="&#x201c;" horiz-adv-x="535" 
d="M219 497q-2 -9 -11 -9h-129q-11 0 -8 11l86 246q3 8 12 8h100q12 0 8 -11zM426 497q-2 -9 -11 -9h-129q-11 0 -8 11l86 246q3 8 12 8h100q12 0 8 -11z" />
    <glyph glyph-name="quotedblright" unicode="&#x201d;" horiz-adv-x="545" 
d="M129 744q2 9 11 9h129q11 0 8 -11l-86 -246q-3 -8 -12 -8h-100q-12 0 -8 11zM336 744q2 9 11 9h129q11 0 8 -11l-86 -246q-3 -8 -12 -8h-100q-12 0 -8 11z" />
    <glyph glyph-name="quotedblbase" unicode="&#x201e;" horiz-adv-x="558" 
d="M129 145q2 9 11 9h129q11 0 8 -11l-86 -246q-3 -8 -12 -8h-100q-12 0 -8 11zM339 145q2 9 11 9h129q11 0 8 -11l-86 -246q-3 -8 -12 -8h-100q-12 0 -8 11z" />
    <glyph glyph-name="bullet" unicode="&#x2022;" horiz-adv-x="560" 
d="M300 194q-50 0 -85 35t-35 85t35 85t85 35t85 -35t35 -85t-35 -85t-85 -35z" />
    <glyph glyph-name="ellipsis" unicode="&#x2026;" horiz-adv-x="860" 
d="M160 -3q-33 0 -56.5 23.5t-23.5 56.5t23.5 56.5t56.5 23.5t56.5 -23.5t23.5 -56.5t-23.5 -56.5t-56.5 -23.5zM400 -3q-33 0 -56.5 23.5t-23.5 56.5t23.5 56.5t56.5 23.5t56.5 -23.5t23.5 -56.5t-23.5 -56.5t-56.5 -23.5zM640 -3q-33 0 -56.5 23.5t-23.5 56.5t23.5 56.5
t56.5 23.5t56.5 -23.5t23.5 -56.5t-23.5 -56.5t-56.5 -23.5z" />
    <glyph glyph-name="perthousand" unicode="&#x2030;" horiz-adv-x="1902" 
d="M340 277q-106 0 -173 71t-67 169t67 168.5t173 70.5t172.5 -70.5t66.5 -168.5t-66.5 -169t-172.5 -71zM588 -40q8 0 11 7l365 774q5 12 -7 12h-152q-8 0 -11 -7l-365 -774q-5 -12 7 -12h152zM340 606q-29 0 -49.5 -22.5t-20.5 -66.5t20.5 -67t49.5 -23t49 23t20 67
t-20 66.5t-49 22.5zM1069 -3q-106 0 -173 71t-67 169t67 168.5t173 70.5t172.5 -70.5t66.5 -168.5t-66.5 -169t-172.5 -71zM1593 -3q-106 0 -173 71t-67 169t67 168.5t173 70.5t172.5 -70.5t66.5 -168.5t-66.5 -169t-172.5 -71zM1069 326q-29 0 -49.5 -22.5t-20.5 -66.5
t20.5 -67t49.5 -23t49 23t20 67t-20 66.5t-49 22.5zM1593 326q-29 0 -49.5 -22.5t-20.5 -66.5t20.5 -67t49.5 -23t49 23t20 67t-20 66.5t-49 22.5z" />
    <glyph glyph-name="guilsinglleft" unicode="&#x2039;" horiz-adv-x="393" 
d="M164 465q3 7 12 7h148q14 0 7 -12l-99 -163q-4 -7 0 -14l100 -167q3 -5 0.5 -8.5t-8.5 -3.5h-148q-9 0 -12 7l-92 172q-4 7 0 14z" />
    <glyph glyph-name="guilsinglright" unicode="&#x203a;" horiz-adv-x="393" 
d="M239 465l92 -168q3 -7 0 -14l-92 -172q-3 -7 -12 -7h-148q-6 0 -8.5 3.5t0.5 8.5l100 167q3 7 0 14l-99 163q-7 12 7 12h148q9 0 12 -7z" />
    <glyph glyph-name="fraction" unicode="&#x2044;" horiz-adv-x="657" 
d="M230 -40q8 0 11 7l365 774q5 12 -7 12h-152q-8 0 -11 -7l-365 -774q-5 -12 7 -12h152z" />
    <glyph glyph-name="Euro" unicode="&#x20ac;" horiz-adv-x="839" 
d="M698 204l88 -96q8 -8 0 -14q-49 -45 -105 -71t-139 -26q-118 0 -211.5 65t-134.5 168h-76q-10 0 -10 6v78q0 6 10 6h54q-2 20 -2 30h-52q-10 0 -10 6v78q0 6 10 6h62q29 119 129 197.5t231 78.5q136 0 244 -96q8 -6 0 -14l-88 -96q-6 -8 -14 0q-47 56 -142 56
q-55 0 -108.5 -33t-76.5 -93h193q10 0 10 -6v-78q0 -6 -10 -6h-208q0 -15 3 -30h205q10 0 10 -6v-78q0 -6 -10 -6h-169q29 -40 73.5 -61.5t87.5 -21.5q46 0 83.5 16t58.5 41q8 8 14 0z" />
    <glyph glyph-name="trademark" unicode="&#x2122;" horiz-adv-x="704" 
d="M291 753q4 0 4 -4v-54q0 -5 -4 -5h-64q-4 0 -4 -4v-228q0 -4 -4 -4h-63q-4 0 -4 4v228q0 4 -4 4h-64q-4 0 -4 5v54q0 4 4 4h207zM599 751q2 2 6 2h34q4 0 4 -4v-291q0 -4 -4 -4h-63q-4 0 -4 4v124q0 3 -2 3.5t-3 -1.5l-76 -111q-3 -3 -6 0l-76 111q-3 2 -5 -2v-124
q0 -4 -4 -4h-63q-4 0 -4 4v291q0 4 4 4h35q4 0 5 -2l108 -166q3 -3 6 0z" />
    <glyph glyph-name="minus" unicode="&#x2212;" horiz-adv-x="620" 
d="M550 286q0 -10 -10 -10h-430q-10 0 -10 10v130q0 10 10 10h430q10 0 10 -10v-130z" />
    <glyph glyph-name="approxequal" unicode="&#x2248;" horiz-adv-x="587" 
d="M384 268q-35 0 -61.5 17t-48 33.5t-41.5 16.5q-42 0 -62 -41q-3 -6 -10 -5l-55 16q-8 2 -6 9q39 146 133 146q32 0 59 -17t49 -33.5t43 -16.5q47 0 62 40q3 7 10 6l54 -16q2 0 4 -1t2.5 -2t0.5 -2q-21 -77 -47 -109q-34 -41 -86 -41zM384 68q-35 0 -61.5 17t-48 33.5
t-41.5 16.5q-42 0 -62 -41q-3 -6 -10 -5l-55 16q-8 2 -6 9q39 146 133 146q32 0 59 -17t49 -33.5t43 -16.5q47 0 62 40q3 7 10 6l54 -16q2 0 4 -1t2.5 -2t0.5 -2q-21 -77 -47 -109q-34 -41 -86 -41z" />
    <glyph glyph-name="notequal" unicode="&#x2260;" horiz-adv-x="742" 
d="M632 401h-180l-47 -100h227q10 0 10 -10v-130q0 -10 -10 -10h-298l-68 -144q-3 -7 -11 -7h-87q-12 0 -7 12l65 139h-24q-10 0 -10 10v130q0 10 10 10h95l47 100h-142q-10 0 -10 10v130q0 10 10 10h213l73 155q3 7 11 7h87q12 0 7 -12l-71 -150h110q10 0 10 -10v-130
q0 -10 -10 -10z" />
    <glyph glyph-name="i.loclTRK" horiz-adv-x="280" 
d="M150 596q-33 0 -56.5 23.5t-23.5 56.5t23.5 56.5t56.5 23.5t56.5 -23.5t23.5 -56.5t-23.5 -56.5t-56.5 -23.5zM70 519q0 8 8 8h144q8 0 8 -8v-511q0 -8 -8 -8h-144q-8 0 -8 8v511z" />
    </font>
</defs>
</svg>
